CooperHewittInterpol3-Book.ufo
<glyph name="exclam" format="1">
  <advance width="216"/>
  <unicode hex="0021"/>
  <outline>
    <contour>
      <point x="153" y="90" type="line" smooth="yes"/>
      <point x="63" y="90" type="line" smooth="yes"/>
      <point x="63" y="0" type="line" smooth="yes"/>
      <point x="153" y="0" type="line" smooth="yes"/>
    </contour>
    <contour>
      <point x="65" y="780" type="line" smooth="yes"/>
      <point x="84" y="189" type="line" smooth="yes"/>
      <point x="132" y="189" type="line" smooth="yes"/>
      <point x="151" y="780" type="line" smooth="yes"/>
    </contour>
  </outline>
</glyph>
<glyph name="dollar" format="1">
  <advance width="600"/>
  <unicode hex="0024"/>
  <outline>
    <contour>
      <point x="143" y="547" type="line" smooth="yes"/>
      <point x="143" y="552" type="line" smooth="yes"/>
      <point x="155" y="600" type="line" smooth="yes"/>
      <point x="188" y="635" type="line" smooth="yes"/>
      <point x="238" y="657" type="line" smooth="yes"/>
      <point x="298" y="665" type="line" smooth="yes"/>
      <point x="302" y="665" type="line" smooth="yes"/>
      <point x="310" y="665" type="line" smooth="yes"/>
      <point x="317" y="664" type="line" smooth="yes"/>
      <point x="325" y="664" type="line" smooth="yes"/>
      <point x="332" y="663" type="line" smooth="yes"/>
      <point x="276" y="431" type="line" smooth="yes"/>
      <point x="214" y="448" type="line" smooth="yes"/>
      <point x="173" y="473" type="line" smooth="yes"/>
      <point x="150" y="506" type="line" smooth="yes"/>
    </contour>
    <contour>
      <point x="310" y="115" type="line" smooth="yes"/>
      <point x="307" y="115" type="line" smooth="yes"/>
      <point x="295" y="115" type="line" smooth="yes"/>
      <point x="284" y="116" type="line" smooth="yes"/>
      <point x="273" y="117" type="line" smooth="yes"/>
      <point x="262" y="119" type="line" smooth="yes"/>
      <point x="321" y="364" type="line" smooth="yes"/>
      <point x="384" y="349" type="line" smooth="yes"/>
      <point x="429" y="325" type="line" smooth="yes"/>
      <point x="455" y="290" type="line" smooth="yes"/>
      <point x="464" y="242" type="line" smooth="yes"/>
      <point x="464" y="237" type="line" smooth="yes"/>
      <point x="453" y="185" type="line" smooth="yes"/>
      <point x="422" y="147" type="line" smooth="yes"/>
      <point x="373" y="123" type="line" smooth="yes"/>
    </contour>
    <contour>
      <point x="435" y="840" type="line" smooth="yes"/>
      <point x="374" y="840" type="line" smooth="yes"/>
      <point x="346" y="724" type="line" smooth="yes"/>
      <point x="335" y="725" type="line" smooth="yes"/>
      <point x="324" y="726" type="line" smooth="yes"/>
      <point x="312" y="727" type="line" smooth="yes"/>
      <point x="300" y="727" type="line" smooth="yes"/>
      <point x="207" y="714" type="line" smooth="yes"/>
      <point x="135" y="679" type="line" smooth="yes"/>
      <point x="88" y="622" type="line" smooth="yes"/>
      <point x="71" y="547" type="line" smooth="yes"/>
      <point x="71" y="540" type="line" smooth="yes"/>
      <point x="81" y="480" type="line" smooth="yes"/>
      <point x="114" y="432" type="line" smooth="yes"/>
      <point x="174" y="395" type="line" smooth="yes"/>
      <point x="262" y="372" type="line" smooth="yes"/>
      <point x="206" y="138" type="line" smooth="yes"/>
      <point x="175" y="161" type="line" smooth="yes"/>
      <point x="153" y="192" type="line" smooth="yes"/>
      <point x="139" y="230" type="line" smooth="yes"/>
      <point x="134" y="274" type="line" smooth="yes"/>
      <point x="63" y="274" type="line" smooth="yes"/>
      <point x="63" y="267" type="line" smooth="yes"/>
      <point x="71" y="204" type="line" smooth="yes"/>
      <point x="96" y="149" type="line" smooth="yes"/>
      <point x="136" y="105" type="line" smooth="yes"/>
      <point x="191" y="73" type="line" smooth="yes"/>
      <point x="159" y="-60" type="line" smooth="yes"/>
      <point x="220" y="-60" type="line" smooth="yes"/>
      <point x="248" y="57" type="line" smooth="yes"/>
      <point x="262" y="55" type="line" smooth="yes"/>
      <point x="277" y="54" type="line" smooth="yes"/>
      <point x="292" y="53" type="line" smooth="yes"/>
      <point x="308" y="53" type="line" smooth="yes"/>
      <point x="404" y="66" type="line" smooth="yes"/>
      <point x="476" y="104" type="line" smooth="yes"/>
      <point x="521" y="163" type="line" smooth="yes"/>
      <point x="537" y="241" type="line" smooth="yes"/>
      <point x="537" y="249" type="line" smooth="yes"/>
      <point x="525" y="316" type="line" smooth="yes"/>
      <point x="487" y="367" type="line" smooth="yes"/>
      <point x="424" y="402" type="line" smooth="yes"/>
      <point x="335" y="423" type="line" smooth="yes"/>
      <point x="389" y="647" type="line" smooth="yes"/>
      <point x="420" y="623" type="line" smooth="yes"/>
      <point x="443" y="590" type="line" smooth="yes"/>
      <point x="456" y="548" type="line" smooth="yes"/>
      <point x="460" y="496" type="line" smooth="yes"/>
      <point x="530" y="496" type="line" smooth="yes"/>
      <point x="530" y="512" type="line" smooth="yes"/>
      <point x="522" y="581" type="line" smooth="yes"/>
      <point x="499" y="638" type="line" smooth="yes"/>
      <point x="460" y="682" type="line" smooth="yes"/>
      <point x="404" y="711" type="line" smooth="yes"/>
    </contour>
  </outline>
</glyph>
<glyph name="percent" format="1">
  <advance width="921"/>
  <unicode hex="0025"/>
  <outline>
    <contour>
      <point x="607" y="157" type="line" smooth="yes"/>
      <point x="607" y="174" type="line" smooth="yes"/>
      <point x="615" y="221" type="line" smooth="yes"/>
      <point x="638" y="255" type="line" smooth="yes"/>
      <point x="671" y="276" type="line" smooth="yes"/>
      <point x="712" y="283" type="line" smooth="yes"/>
      <point x="718" y="283" type="line" smooth="yes"/>
      <point x="759" y="276" type="line" smooth="yes"/>
      <point x="793" y="255" type="line" smooth="yes"/>
      <point x="816" y="221" type="line" smooth="yes"/>
      <point x="824" y="174" type="line" smooth="yes"/>
      <point x="824" y="157" type="line" smooth="yes"/>
      <point x="816" y="110" type="line" smooth="yes"/>
      <point x="793" y="76" type="line" smooth="yes"/>
      <point x="759" y="55" type="line" smooth="yes"/>
      <point x="718" y="48" type="line" smooth="yes"/>
      <point x="712" y="48" type="line" smooth="yes"/>
      <point x="671" y="55" type="line" smooth="yes"/>
      <point x="638" y="76" type="line" smooth="yes"/>
      <point x="615" y="110" type="line" smooth="yes"/>
    </contour>
    <contour>
      <point x="315" y="623" type="line" smooth="yes"/>
      <point x="315" y="606" type="line" smooth="yes"/>
      <point x="307" y="559" type="line" smooth="yes"/>
      <point x="284" y="525" type="line" smooth="yes"/>
      <point x="250" y="504" type="line" smooth="yes"/>
      <point x="209" y="497" type="line" smooth="yes"/>
      <point x="203" y="497" type="line" smooth="yes"/>
      <point x="162" y="504" type="line" smooth="yes"/>
      <point x="128" y="525" type="line" smooth="yes"/>
      <point x="105" y="559" type="line" smooth="yes"/>
      <point x="97" y="606" type="line" smooth="yes"/>
      <point x="97" y="623" type="line" smooth="yes"/>
      <point x="105" y="670" type="line" smooth="yes"/>
      <point x="128" y="704" type="line" smooth="yes"/>
      <point x="162" y="725" type="line" smooth="yes"/>
      <point x="203" y="732" type="line" smooth="yes"/>
      <point x="209" y="732" type="line" smooth="yes"/>
      <point x="250" y="725" type="line" smooth="yes"/>
      <point x="284" y="704" type="line" smooth="yes"/>
      <point x="307" y="670" type="line" smooth="yes"/>
    </contour>
    <contour>
      <point x="548" y="171" type="line" smooth="yes"/>
      <point x="548" y="160" type="line" smooth="yes"/>
      <point x="561" y="86" type="line" smooth="yes"/>
      <point x="597" y="32" type="line" smooth="yes"/>
      <point x="650" y="-0" type="line" smooth="yes"/>
      <point x="715" y="-11" type="line" smooth="yes"/>
      <point x="780" y="-0" type="line" smooth="yes"/>
      <point x="834" y="32" type="line" smooth="yes"/>
      <point x="870" y="86" type="line" smooth="yes"/>
      <point x="883" y="160" type="line" smooth="yes"/>
      <point x="883" y="171" type="line" smooth="yes"/>
      <point x="870" y="245" type="line" smooth="yes"/>
      <point x="834" y="299" type="line" smooth="yes"/>
      <point x="780" y="331" type="line" smooth="yes"/>
      <point x="715" y="342" type="line" smooth="yes"/>
      <point x="650" y="331" type="line" smooth="yes"/>
      <point x="597" y="299" type="line" smooth="yes"/>
      <point x="561" y="245" type="line" smooth="yes"/>
    </contour>
    <contour>
      <point x="332" y="0" type="line" smooth="yes"/>
      <point x="637" y="734" type="line" smooth="yes"/>
      <point x="637" y="781" type="line" smooth="yes"/>
      <point x="606" y="771" type="line" smooth="yes"/>
      <point x="560" y="761" type="line" smooth="yes"/>
      <point x="505" y="752" type="line" smooth="yes"/>
      <point x="451" y="749" type="line" smooth="yes"/>
      <point x="405" y="751" type="line" smooth="yes"/>
      <point x="360" y="756" type="line" smooth="yes"/>
      <point x="315" y="766" type="line" smooth="yes"/>
      <point x="272" y="780" type="line" smooth="yes"/>
      <point x="256" y="785" type="line" smooth="yes"/>
      <point x="240" y="788" type="line" smooth="yes"/>
      <point x="223" y="790" type="line" smooth="yes"/>
      <point x="206" y="791" type="line" smooth="yes"/>
      <point x="141" y="780" type="line" smooth="yes"/>
      <point x="87" y="748" type="line" smooth="yes"/>
      <point x="51" y="694" type="line" smooth="yes"/>
      <point x="38" y="620" type="line" smooth="yes"/>
      <point x="38" y="609" type="line" smooth="yes"/>
      <point x="51" y="535" type="line" smooth="yes"/>
      <point x="87" y="481" type="line" smooth="yes"/>
      <point x="141" y="449" type="line" smooth="yes"/>
      <point x="206" y="438" type="line" smooth="yes"/>
      <point x="271" y="449" type="line" smooth="yes"/>
      <point x="325" y="481" type="line" smooth="yes"/>
      <point x="361" y="535" type="line" smooth="yes"/>
      <point x="374" y="609" type="line" smooth="yes"/>
      <point x="374" y="620" type="line" smooth="yes"/>
      <point x="373" y="641" type="line" smooth="yes"/>
      <point x="370" y="660" type="line" smooth="yes"/>
      <point x="366" y="678" type="line" smooth="yes"/>
      <point x="360" y="695" type="line" smooth="yes"/>
      <point x="380" y="692" type="line" smooth="yes"/>
      <point x="400" y="690" type="line" smooth="yes"/>
      <point x="421" y="688" type="line" smooth="yes"/>
      <point x="443" y="688" type="line" smooth="yes"/>
      <point x="486" y="690" type="line" smooth="yes"/>
      <point x="522" y="695" type="line" smooth="yes"/>
      <point x="546" y="700" type="line" smooth="yes"/>
      <point x="557" y="703" type="line" smooth="yes"/>
      <point x="265" y="0" type="line" smooth="yes"/>
    </contour>
  </outline>
</glyph>
<glyph name="ampersand" format="1">
  <advance width="661"/>
  <unicode hex="0026"/>
  <outline>
    <contour>
      <point x="141" y="628" type="line" smooth="yes"/>
      <point x="148" y="665" type="line" smooth="yes"/>
      <point x="169" y="697" type="line" smooth="yes"/>
      <point x="203" y="719" type="line" smooth="yes"/>
      <point x="251" y="727" type="line" smooth="yes"/>
      <point x="258" y="727" type="line" smooth="yes"/>
      <point x="306" y="719" type="line" smooth="yes"/>
      <point x="340" y="697" type="line" smooth="yes"/>
      <point x="360" y="665" type="line" smooth="yes"/>
      <point x="367" y="628" type="line" smooth="yes"/>
      <point x="367" y="619" type="line" smooth="yes"/>
      <point x="355" y="571" type="line" smooth="yes"/>
      <point x="324" y="531" type="line" smooth="yes"/>
      <point x="278" y="495" type="line" smooth="yes"/>
      <point x="225" y="460" type="line" smooth="yes"/>
      <point x="192" y="497" type="line" smooth="yes"/>
      <point x="165" y="534" type="line" smooth="yes"/>
      <point x="148" y="574" type="line" smooth="yes"/>
      <point x="141" y="619" type="line" smooth="yes"/>
    </contour>
    <contour>
      <point x="269" y="54" type="line" smooth="yes"/>
      <point x="200" y="65" type="line" smooth="yes"/>
      <point x="152" y="96" type="line" smooth="yes"/>
      <point x="123" y="145" type="line" smooth="yes"/>
      <point x="114" y="207" type="line" smooth="yes"/>
      <point x="114" y="216" type="line" smooth="yes"/>
      <point x="122" y="264" type="line" smooth="yes"/>
      <point x="143" y="306" type="line" smooth="yes"/>
      <point x="175" y="342" type="line" smooth="yes"/>
      <point x="214" y="374" type="line" smooth="yes"/>
      <point x="443" y="125" type="line" smooth="yes"/>
      <point x="406" y="93" type="line" smooth="yes"/>
      <point x="365" y="71" type="line" smooth="yes"/>
      <point x="321" y="58" type="line" smooth="yes"/>
      <point x="275" y="54" type="line" smooth="yes"/>
    </contour>
    <contour>
      <point x="265" y="-11" type="line" smooth="yes"/>
      <point x="328" y="-6" type="line" smooth="yes"/>
      <point x="388" y="10" type="line" smooth="yes"/>
      <point x="441" y="37" type="line" smooth="yes"/>
      <point x="489" y="75" type="line" smooth="yes"/>
      <point x="559" y="0" type="line" smooth="yes"/>
      <point x="650" y="0" type="line" smooth="yes"/>
      <point x="532" y="128" type="line" smooth="yes"/>
      <point x="560" y="181" type="line" smooth="yes"/>
      <point x="580" y="243" type="line" smooth="yes"/>
      <point x="593" y="314" type="line" smooth="yes"/>
      <point x="598" y="394" type="line" smooth="yes"/>
      <point x="525" y="394" type="line" smooth="yes"/>
      <point x="525" y="391" type="line" smooth="yes"/>
      <point x="522" y="328" type="line" smooth="yes"/>
      <point x="514" y="272" type="line" smooth="yes"/>
      <point x="501" y="224" type="line" smooth="yes"/>
      <point x="483" y="182" type="line" smooth="yes"/>
      <point x="270" y="413" type="line" smooth="yes"/>
      <point x="332" y="454" type="line" smooth="yes"/>
      <point x="386" y="500" type="line" smooth="yes"/>
      <point x="425" y="553" type="line" smooth="yes"/>
      <point x="440" y="619" type="line" smooth="yes"/>
      <point x="440" y="629" type="line" smooth="yes"/>
      <point x="428" y="693" type="line" smooth="yes"/>
      <point x="393" y="745" type="line" smooth="yes"/>
      <point x="335" y="779" type="line" smooth="yes"/>
      <point x="254" y="791" type="line" smooth="yes"/>
      <point x="174" y="779" type="line" smooth="yes"/>
      <point x="116" y="745" type="line" smooth="yes"/>
      <point x="81" y="693" type="line" smooth="yes"/>
      <point x="69" y="629" type="line" smooth="yes"/>
      <point x="69" y="619" type="line" smooth="yes"/>
      <point x="76" y="565" type="line" smooth="yes"/>
      <point x="95" y="517" type="line" smooth="yes"/>
      <point x="127" y="471" type="line" smooth="yes"/>
      <point x="169" y="422" type="line" smooth="yes"/>
      <point x="120" y="383" type="line" smooth="yes"/>
      <point x="80" y="337" type="line" smooth="yes"/>
      <point x="52" y="281" type="line" smooth="yes"/>
      <point x="42" y="213" type="line" smooth="yes"/>
      <point x="42" y="203" type="line" smooth="yes"/>
      <point x="57" y="113" type="line" smooth="yes"/>
      <point x="102" y="45" type="line" smooth="yes"/>
      <point x="172" y="3" type="line" smooth="yes"/>
    </contour>
  </outline>
</glyph>
<glyph name="parenleft" format="1">
  <advance width="317"/>
  <unicode hex="0028"/>
  <outline>
    <contour>
      <point x="51" y="350" type="line" smooth="yes"/>
      <point x="64" y="195" type="line" smooth="yes"/>
      <point x="97" y="73" type="line" smooth="yes"/>
      <point x="147" y="-29" type="line" smooth="yes"/>
      <point x="206" y="-120" type="line" smooth="yes"/>
      <point x="283" y="-120" type="line" smooth="yes"/>
      <point x="219" y="-22" type="line" smooth="yes"/>
      <point x="168" y="83" type="line" smooth="yes"/>
      <point x="134" y="204" type="line" smooth="yes"/>
      <point x="122" y="350" type="line" smooth="yes"/>
      <point x="122" y="370" type="line" smooth="yes"/>
      <point x="134" y="516" type="line" smooth="yes"/>
      <point x="168" y="637" type="line" smooth="yes"/>
      <point x="219" y="742" type="line" smooth="yes"/>
      <point x="283" y="840" type="line" smooth="yes"/>
      <point x="206" y="840" type="line" smooth="yes"/>
      <point x="147" y="749" type="line" smooth="yes"/>
      <point x="97" y="647" type="line" smooth="yes"/>
      <point x="64" y="525" type="line" smooth="yes"/>
      <point x="51" y="370" type="line" smooth="yes"/>
    </contour>
  </outline>
</glyph>
<glyph name="parenright" format="1">
  <advance width="317"/>
  <unicode hex="0029"/>
  <outline>
    <contour>
      <point x="266" y="370" type="line" smooth="yes"/>
      <point x="254" y="525" type="line" smooth="yes"/>
      <point x="220" y="647" type="line" smooth="yes"/>
      <point x="171" y="749" type="line" smooth="yes"/>
      <point x="111" y="840" type="line" smooth="yes"/>
      <point x="34" y="840" type="line" smooth="yes"/>
      <point x="98" y="742" type="line" smooth="yes"/>
      <point x="149" y="637" type="line" smooth="yes"/>
      <point x="183" y="516" type="line" smooth="yes"/>
      <point x="195" y="370" type="line" smooth="yes"/>
      <point x="195" y="350" type="line" smooth="yes"/>
      <point x="183" y="204" type="line" smooth="yes"/>
      <point x="149" y="83" type="line" smooth="yes"/>
      <point x="98" y="-22" type="line" smooth="yes"/>
      <point x="34" y="-120" type="line" smooth="yes"/>
      <point x="111" y="-120" type="line" smooth="yes"/>
      <point x="171" y="-29" type="line" smooth="yes"/>
      <point x="220" y="73" type="line" smooth="yes"/>
      <point x="254" y="195" type="line" smooth="yes"/>
      <point x="266" y="350" type="line" smooth="yes"/>
    </contour>
  </outline>
</glyph>
<glyph name="plus" format="1">
  <advance width="600"/>
  <unicode hex="002B"/>
  <outline>
    <contour>
      <point x="267" y="642" type="line" smooth="yes"/>
      <point x="267" y="423" type="line" smooth="yes"/>
      <point x="48" y="423" type="line" smooth="yes"/>
      <point x="48" y="357" type="line" smooth="yes"/>
      <point x="267" y="357" type="line" smooth="yes"/>
      <point x="267" y="138" type="line" smooth="yes"/>
      <point x="333" y="138" type="line" smooth="yes"/>
      <point x="333" y="357" type="line" smooth="yes"/>
      <point x="552" y="357" type="line" smooth="yes"/>
      <point x="552" y="423" type="line" smooth="yes"/>
      <point x="333" y="423" type="line" smooth="yes"/>
      <point x="333" y="642" type="line" smooth="yes"/>
    </contour>
  </outline>
</glyph>
<glyph name="period" format="1">
  <advance width="216"/>
  <unicode hex="002E"/>
  <outline>
    <contour>
      <point x="153" y="90" type="line" smooth="yes"/>
      <point x="63" y="90" type="line" smooth="yes"/>
      <point x="63" y="0" type="line" smooth="yes"/>
      <point x="153" y="0" type="line" smooth="yes"/>
    </contour>
  </outline>
</glyph>
<glyph name="zero" format="1">
  <advance width="600"/>
  <unicode hex="0030"/>
  <outline>
    <contour>
      <point x="467" y="548" type="line" smooth="yes"/>
      <point x="467" y="232" type="line" smooth="yes"/>
      <point x="459" y="158" type="line" smooth="yes"/>
      <point x="431" y="102" type="line" smooth="yes"/>
      <point x="380" y="66" type="line" smooth="yes"/>
      <point x="303" y="53" type="line" smooth="yes"/>
      <point x="297" y="53" type="line" smooth="yes"/>
      <point x="220" y="66" type="line" smooth="yes"/>
      <point x="169" y="102" type="line" smooth="yes"/>
      <point x="141" y="158" type="line" smooth="yes"/>
      <point x="133" y="232" type="line" smooth="yes"/>
      <point x="133" y="548" type="line" smooth="yes"/>
      <point x="141" y="622" type="line" smooth="yes"/>
      <point x="169" y="678" type="line" smooth="yes"/>
      <point x="220" y="714" type="line" smooth="yes"/>
      <point x="297" y="727" type="line" smooth="yes"/>
      <point x="303" y="727" type="line" smooth="yes"/>
      <point x="380" y="714" type="line" smooth="yes"/>
      <point x="431" y="678" type="line" smooth="yes"/>
      <point x="459" y="622" type="line" smooth="yes"/>
    </contour>
    <contour>
      <point x="62" y="556" type="line" smooth="yes"/>
      <point x="62" y="224" type="line" smooth="yes"/>
      <point x="75" y="130" type="line" smooth="yes"/>
      <point x="117" y="56" type="line" smooth="yes"/>
      <point x="191" y="7" type="line" smooth="yes"/>
      <point x="300" y="-11" type="line" smooth="yes"/>
      <point x="409" y="7" type="line" smooth="yes"/>
      <point x="483" y="56" type="line" smooth="yes"/>
      <point x="525" y="130" type="line" smooth="yes"/>
      <point x="538" y="224" type="line" smooth="yes"/>
      <point x="538" y="556" type="line" smooth="yes"/>
      <point x="525" y="650" type="line" smooth="yes"/>
      <point x="483" y="724" type="line" smooth="yes"/>
      <point x="409" y="773" type="line" smooth="yes"/>
      <point x="300" y="791" type="line" smooth="yes"/>
      <point x="191" y="773" type="line" smooth="yes"/>
      <point x="117" y="724" type="line" smooth="yes"/>
      <point x="75" y="650" type="line" smooth="yes"/>
    </contour>
  </outline>
</glyph>
<glyph name="one" format="1">
  <advance width="600"/>
  <unicode hex="0031"/>
  <outline>
    <contour>
      <point x="549" y="0" type="line" smooth="yes"/>
      <point x="549" y="65" type="line" smooth="yes"/>
      <point x="346" y="65" type="line" smooth="yes"/>
      <point x="346" y="784" type="line" smooth="yes"/>
      <point x="300" y="784" type="line" smooth="yes"/>
      <point x="55" y="618" type="line" smooth="yes"/>
      <point x="91" y="563" type="line" smooth="yes"/>
      <point x="275" y="688" type="line" smooth="yes"/>
      <point x="275" y="65" type="line" smooth="yes"/>
      <point x="71" y="65" type="line" smooth="yes"/>
      <point x="71" y="0" type="line" smooth="yes"/>
    </contour>
  </outline>
</glyph>
<glyph name="two" format="1">
  <advance width="600"/>
  <unicode hex="0032"/>
  <outline>
    <contour>
      <point x="240" y="65" type="line" smooth="yes"/>
      <point x="165" y="64" type="line" smooth="yes"/>
      <point x="453" y="370" type="line" smooth="yes"/>
      <point x="497" y="421" type="line" smooth="yes"/>
      <point x="525" y="468" type="line" smooth="yes"/>
      <point x="540" y="516" type="line" smooth="yes"/>
      <point x="544" y="571" type="line" smooth="yes"/>
      <point x="544" y="583" type="line" smooth="yes"/>
      <point x="528" y="667" type="line" smooth="yes"/>
      <point x="481" y="733" type="line" smooth="yes"/>
      <point x="405" y="776" type="line" smooth="yes"/>
      <point x="300" y="791" type="line" smooth="yes"/>
      <point x="191" y="774" type="line" smooth="yes"/>
      <point x="115" y="726" type="line" smooth="yes"/>
      <point x="70" y="649" type="line" smooth="yes"/>
      <point x="56" y="544" type="line" smooth="yes"/>
      <point x="56" y="520" type="line" smooth="yes"/>
      <point x="127" y="520" type="line" smooth="yes"/>
      <point x="138" y="614" type="line" smooth="yes"/>
      <point x="170" y="679" type="line" smooth="yes"/>
      <point x="223" y="715" type="line" smooth="yes"/>
      <point x="297" y="727" type="line" smooth="yes"/>
      <point x="303" y="727" type="line" smooth="yes"/>
      <point x="372" y="716" type="line" smooth="yes"/>
      <point x="426" y="686" type="line" smooth="yes"/>
      <point x="461" y="637" type="line" smooth="yes"/>
      <point x="473" y="572" type="line" smooth="yes"/>
      <point x="473" y="562" type="line" smooth="yes"/>
      <point x="469" y="522" type="line" smooth="yes"/>
      <point x="456" y="484" type="line" smooth="yes"/>
      <point x="431" y="446" type="line" smooth="yes"/>
      <point x="393" y="403" type="line" smooth="yes"/>
      <point x="56" y="45" type="line" smooth="yes"/>
      <point x="56" y="0" type="line" smooth="yes"/>
      <point x="544" y="0" type="line" smooth="yes"/>
      <point x="544" y="65" type="line" smooth="yes"/>
    </contour>
  </outline>
</glyph>
<glyph name="three" format="1">
  <advance width="600"/>
  <unicode hex="0033"/>
  <outline>
    <contour>
      <point x="122" y="250" type="line" smooth="yes"/>
      <point x="51" y="250" type="line" smooth="yes"/>
      <point x="51" y="239" type="line" smooth="yes"/>
      <point x="66" y="135" type="line" smooth="yes"/>
      <point x="112" y="56" type="line" smooth="yes"/>
      <point x="189" y="6" type="line" smooth="yes"/>
      <point x="300" y="-11" type="line" smooth="yes"/>
      <point x="401" y="5" type="line" smooth="yes"/>
      <point x="480" y="48" type="line" smooth="yes"/>
      <point x="531" y="115" type="line" smooth="yes"/>
      <point x="549" y="200" type="line" smooth="yes"/>
      <point x="549" y="216" type="line" smooth="yes"/>
      <point x="540" y="281" type="line" smooth="yes"/>
      <point x="514" y="333" type="line" smooth="yes"/>
      <point x="474" y="372" type="line" smooth="yes"/>
      <point x="423" y="398" type="line" smooth="yes"/>
      <point x="472" y="422" type="line" smooth="yes"/>
      <point x="510" y="459" type="line" smooth="yes"/>
      <point x="535" y="508" type="line" smooth="yes"/>
      <point x="544" y="570" type="line" smooth="yes"/>
      <point x="544" y="585" type="line" smooth="yes"/>
      <point x="528" y="668" type="line" smooth="yes"/>
      <point x="481" y="733" type="line" smooth="yes"/>
      <point x="405" y="776" type="line" smooth="yes"/>
      <point x="300" y="791" type="line" smooth="yes"/>
      <point x="191" y="774" type="line" smooth="yes"/>
      <point x="115" y="726" type="line" smooth="yes"/>
      <point x="70" y="649" type="line" smooth="yes"/>
      <point x="56" y="544" type="line" smooth="yes"/>
      <point x="56" y="520" type="line" smooth="yes"/>
      <point x="127" y="520" type="line" smooth="yes"/>
      <point x="137" y="614" type="line" smooth="yes"/>
      <point x="169" y="679" type="line" smooth="yes"/>
      <point x="221" y="715" type="line" smooth="yes"/>
      <point x="295" y="727" type="line" smooth="yes"/>
      <point x="305" y="727" type="line" smooth="yes"/>
      <point x="373" y="716" type="line" smooth="yes"/>
      <point x="427" y="686" type="line" smooth="yes"/>
      <point x="461" y="638" type="line" smooth="yes"/>
      <point x="473" y="576" type="line" smooth="yes"/>
      <point x="473" y="569" type="line" smooth="yes"/>
      <point x="460" y="506" type="line" smooth="yes"/>
      <point x="426" y="463" type="line" smooth="yes"/>
      <point x="374" y="438" type="line" smooth="yes"/>
      <point x="310" y="430" type="line" smooth="yes"/>
      <point x="200" y="430" type="line" smooth="yes"/>
      <point x="200" y="366" type="line" smooth="yes"/>
      <point x="314" y="366" type="line" smooth="yes"/>
      <point x="378" y="357" type="line" smooth="yes"/>
      <point x="431" y="329" type="line" smooth="yes"/>
      <point x="465" y="282" type="line" smooth="yes"/>
      <point x="478" y="217" type="line" smooth="yes"/>
      <point x="478" y="203" type="line" smooth="yes"/>
      <point x="463" y="137" type="line" smooth="yes"/>
      <point x="425" y="90" type="line" smooth="yes"/>
      <point x="370" y="62" type="line" smooth="yes"/>
      <point x="305" y="53" type="line" smooth="yes"/>
      <point x="295" y="53" type="line" smooth="yes"/>
      <point x="222" y="65" type="line" smooth="yes"/>
      <point x="168" y="101" type="line" smooth="yes"/>
      <point x="134" y="162" type="line" smooth="yes"/>
    </contour>
  </outline>
</glyph>
<glyph name="five" format="1">
  <advance width="600"/>
  <unicode hex="0035"/>
  <outline>
    <contour>
      <point x="51" y="250" type="line" smooth="yes"/>
      <point x="51" y="239" type="line" smooth="yes"/>
      <point x="66" y="135" type="line" smooth="yes"/>
      <point x="112" y="56" type="line" smooth="yes"/>
      <point x="189" y="6" type="line" smooth="yes"/>
      <point x="300" y="-11" type="line" smooth="yes"/>
      <point x="399" y="5" type="line" smooth="yes"/>
      <point x="478" y="52" type="line" smooth="yes"/>
      <point x="530" y="129" type="line" smooth="yes"/>
      <point x="549" y="236" type="line" smooth="yes"/>
      <point x="549" y="248" type="line" smooth="yes"/>
      <point x="530" y="354" type="line" smooth="yes"/>
      <point x="478" y="431" type="line" smooth="yes"/>
      <point x="400" y="478" type="line" smooth="yes"/>
      <point x="302" y="494" type="line" smooth="yes"/>
      <point x="252" y="490" type="line" smooth="yes"/>
      <point x="207" y="479" type="line" smooth="yes"/>
      <point x="167" y="462" type="line" smooth="yes"/>
      <point x="132" y="438" type="line" smooth="yes"/>
      <point x="145" y="715" type="line" smooth="yes"/>
      <point x="539" y="715" type="line" smooth="yes"/>
      <point x="539" y="780" type="line" smooth="yes"/>
      <point x="76" y="780" type="line" smooth="yes"/>
      <point x="57" y="342" type="line" smooth="yes"/>
      <point x="117" y="324" type="line" smooth="yes"/>
      <point x="147" y="371" type="line" smooth="yes"/>
      <point x="190" y="404" type="line" smooth="yes"/>
      <point x="240" y="423" type="line" smooth="yes"/>
      <point x="294" y="430" type="line" smooth="yes"/>
      <point x="303" y="430" type="line" smooth="yes"/>
      <point x="369" y="420" type="line" smooth="yes"/>
      <point x="425" y="388" type="line" smooth="yes"/>
      <point x="463" y="332" type="line" smooth="yes"/>
      <point x="478" y="251" type="line" smooth="yes"/>
      <point x="478" y="233" type="line" smooth="yes"/>
      <point x="463" y="152" type="line" smooth="yes"/>
      <point x="425" y="96" type="line" smooth="yes"/>
      <point x="370" y="63" type="line" smooth="yes"/>
      <point x="305" y="53" type="line" smooth="yes"/>
      <point x="295" y="53" type="line" smooth="yes"/>
      <point x="222" y="65" type="line" smooth="yes"/>
      <point x="168" y="101" type="line" smooth="yes"/>
      <point x="134" y="162" type="line" smooth="yes"/>
      <point x="122" y="250" type="line" smooth="yes"/>
    </contour>
  </outline>
</glyph>
<glyph name="six" format="1">
  <advance width="600"/>
  <unicode hex="0036"/>
  <outline>
    <contour>
      <point x="306" y="426" type="line" smooth="yes"/>
      <point x="312" y="426" type="line" smooth="yes"/>
      <point x="382" y="414" type="line" smooth="yes"/>
      <point x="435" y="380" type="line" smooth="yes"/>
      <point x="470" y="325" type="line" smooth="yes"/>
      <point x="482" y="249" type="line" smooth="yes"/>
      <point x="482" y="232" type="line" smooth="yes"/>
      <point x="470" y="156" type="line" smooth="yes"/>
      <point x="434" y="100" type="line" smooth="yes"/>
      <point x="379" y="65" type="line" smooth="yes"/>
      <point x="307" y="53" type="line" smooth="yes"/>
      <point x="301" y="53" type="line" smooth="yes"/>
      <point x="233" y="67" type="line" smooth="yes"/>
      <point x="177" y="108" type="line" smooth="yes"/>
      <point x="140" y="173" type="line" smooth="yes"/>
      <point x="126" y="260" type="line" smooth="yes"/>
      <point x="126" y="270" type="line" smooth="yes"/>
      <point x="126" y="281" type="line" smooth="yes"/>
      <point x="126" y="293" type="line" smooth="yes"/>
      <point x="126" y="305" type="line" smooth="yes"/>
      <point x="127" y="316" type="line" smooth="yes"/>
      <point x="158" y="361" type="line" smooth="yes"/>
      <point x="200" y="396" type="line" smooth="yes"/>
      <point x="249" y="418" type="line" smooth="yes"/>
    </contour>
    <contour>
      <point x="517" y="791" type="line" smooth="yes"/>
      <point x="421" y="782" type="line" smooth="yes"/>
      <point x="326" y="754" type="line" smooth="yes"/>
      <point x="239" y="705" type="line" smooth="yes"/>
      <point x="165" y="631" type="line" smooth="yes"/>
      <point x="113" y="546" type="line" smooth="yes"/>
      <point x="79" y="457" type="line" smooth="yes"/>
      <point x="61" y="366" type="line" smooth="yes"/>
      <point x="55" y="274" type="line" smooth="yes"/>
      <point x="55" y="263" type="line" smooth="yes"/>
      <point x="74" y="146" type="line" smooth="yes"/>
      <point x="126" y="60" type="line" smooth="yes"/>
      <point x="204" y="7" type="line" smooth="yes"/>
      <point x="304" y="-11" type="line" smooth="yes"/>
      <point x="406" y="4" type="line" smooth="yes"/>
      <point x="484" y="51" type="line" smooth="yes"/>
      <point x="535" y="127" type="line" smooth="yes"/>
      <point x="553" y="235" type="line" smooth="yes"/>
      <point x="553" y="245" type="line" smooth="yes"/>
      <point x="535" y="353" type="line" smooth="yes"/>
      <point x="486" y="429" type="line" smooth="yes"/>
      <point x="412" y="475" type="line" smooth="yes"/>
      <point x="319" y="490" type="line" smooth="yes"/>
      <point x="266" y="485" type="line" smooth="yes"/>
      <point x="219" y="470" type="line" smooth="yes"/>
      <point x="178" y="447" type="line" smooth="yes"/>
      <point x="143" y="418" type="line" smooth="yes"/>
      <point x="156" y="463" type="line" smooth="yes"/>
      <point x="173" y="507" type="line" smooth="yes"/>
      <point x="195" y="549" type="line" smooth="yes"/>
      <point x="222" y="589" type="line" smooth="yes"/>
      <point x="285" y="652" type="line" smooth="yes"/>
      <point x="359" y="695" type="line" smooth="yes"/>
      <point x="438" y="719" type="line" smooth="yes"/>
      <point x="517" y="727" type="line" smooth="yes"/>
    </contour>
  </outline>
</glyph>
<glyph name="eight" format="1">
  <advance width="600"/>
  <unicode hex="0038"/>
  <outline>
    <contour>
      <point x="305" y="727" type="line" smooth="yes"/>
      <point x="373" y="717" type="line" smooth="yes"/>
      <point x="427" y="687" type="line" smooth="yes"/>
      <point x="461" y="641" type="line" smooth="yes"/>
      <point x="473" y="579" type="line" smooth="yes"/>
      <point x="473" y="571" type="line" smooth="yes"/>
      <point x="460" y="508" type="line" smooth="yes"/>
      <point x="426" y="465" type="line" smooth="yes"/>
      <point x="374" y="439" type="line" smooth="yes"/>
      <point x="310" y="430" type="line" smooth="yes"/>
      <point x="290" y="430" type="line" smooth="yes"/>
      <point x="226" y="439" type="line" smooth="yes"/>
      <point x="174" y="465" type="line" smooth="yes"/>
      <point x="140" y="508" type="line" smooth="yes"/>
      <point x="127" y="571" type="line" smooth="yes"/>
      <point x="127" y="579" type="line" smooth="yes"/>
      <point x="139" y="641" type="line" smooth="yes"/>
      <point x="174" y="687" type="line" smooth="yes"/>
      <point x="227" y="717" type="line" smooth="yes"/>
      <point x="295" y="727" type="line" smooth="yes"/>
    </contour>
    <contour>
      <point x="286" y="366" type="line" smooth="yes"/>
      <point x="314" y="366" type="line" smooth="yes"/>
      <point x="378" y="356" type="line" smooth="yes"/>
      <point x="431" y="328" type="line" smooth="yes"/>
      <point x="465" y="281" type="line" smooth="yes"/>
      <point x="478" y="215" type="line" smooth="yes"/>
      <point x="478" y="201" type="line" smooth="yes"/>
      <point x="463" y="134" type="line" smooth="yes"/>
      <point x="425" y="88" type="line" smooth="yes"/>
      <point x="370" y="62" type="line" smooth="yes"/>
      <point x="305" y="53" type="line" smooth="yes"/>
      <point x="295" y="53" type="line" smooth="yes"/>
      <point x="230" y="62" type="line" smooth="yes"/>
      <point x="175" y="88" type="line" smooth="yes"/>
      <point x="137" y="134" type="line" smooth="yes"/>
      <point x="122" y="201" type="line" smooth="yes"/>
      <point x="122" y="215" type="line" smooth="yes"/>
      <point x="135" y="281" type="line" smooth="yes"/>
      <point x="170" y="328" type="line" smooth="yes"/>
      <point x="222" y="356" type="line" smooth="yes"/>
    </contour>
    <contour>
      <point x="300" y="-11" type="line" smooth="yes"/>
      <point x="401" y="4" type="line" smooth="yes"/>
      <point x="480" y="47" type="line" smooth="yes"/>
      <point x="531" y="113" type="line" smooth="yes"/>
      <point x="549" y="198" type="line" smooth="yes"/>
      <point x="549" y="214" type="line" smooth="yes"/>
      <point x="540" y="279" type="line" smooth="yes"/>
      <point x="513" y="332" type="line" smooth="yes"/>
      <point x="473" y="371" type="line" smooth="yes"/>
      <point x="422" y="398" type="line" smooth="yes"/>
      <point x="471" y="423" type="line" smooth="yes"/>
      <point x="510" y="460" type="line" smooth="yes"/>
      <point x="535" y="510" type="line" smooth="yes"/>
      <point x="544" y="572" type="line" smooth="yes"/>
      <point x="544" y="587" type="line" smooth="yes"/>
      <point x="528" y="670" type="line" smooth="yes"/>
      <point x="481" y="734" type="line" smooth="yes"/>
      <point x="405" y="776" type="line" smooth="yes"/>
      <point x="300" y="791" type="line" smooth="yes"/>
      <point x="195" y="776" type="line" smooth="yes"/>
      <point x="119" y="734" type="line" smooth="yes"/>
      <point x="72" y="670" type="line" smooth="yes"/>
      <point x="56" y="587" type="line" smooth="yes"/>
      <point x="56" y="572" type="line" smooth="yes"/>
      <point x="65" y="510" type="line" smooth="yes"/>
      <point x="90" y="460" type="line" smooth="yes"/>
      <point x="128" y="423" type="line" smooth="yes"/>
      <point x="177" y="398" type="line" smooth="yes"/>
      <point x="126" y="371" type="line" smooth="yes"/>
      <point x="86" y="332" type="line" smooth="yes"/>
      <point x="60" y="279" type="line" smooth="yes"/>
      <point x="51" y="214" type="line" smooth="yes"/>
      <point x="51" y="198" type="line" smooth="yes"/>
      <point x="69" y="113" type="line" smooth="yes"/>
      <point x="120" y="47" type="line" smooth="yes"/>
      <point x="199" y="4" type="line" smooth="yes"/>
    </contour>
  </outline>
</glyph>
<glyph name="nine" format="1">
  <advance width="600"/>
  <unicode hex="0039"/>
  <outline>
    <contour>
      <point x="294" y="354" type="line" smooth="yes"/>
      <point x="288" y="354" type="line" smooth="yes"/>
      <point x="218" y="366" type="line" smooth="yes"/>
      <point x="165" y="400" type="line" smooth="yes"/>
      <point x="130" y="455" type="line" smooth="yes"/>
      <point x="118" y="531" type="line" smooth="yes"/>
      <point x="118" y="548" type="line" smooth="yes"/>
      <point x="130" y="624" type="line" smooth="yes"/>
      <point x="166" y="680" type="line" smooth="yes"/>
      <point x="221" y="715" type="line" smooth="yes"/>
      <point x="293" y="727" type="line" smooth="yes"/>
      <point x="299" y="727" type="line" smooth="yes"/>
      <point x="367" y="713" type="line" smooth="yes"/>
      <point x="423" y="672" type="line" smooth="yes"/>
      <point x="460" y="607" type="line" smooth="yes"/>
      <point x="474" y="520" type="line" smooth="yes"/>
      <point x="474" y="510" type="line" smooth="yes"/>
      <point x="474" y="498" type="line" smooth="yes"/>
      <point x="473" y="487" type="line" smooth="yes"/>
      <point x="473" y="475" type="line" smooth="yes"/>
      <point x="472" y="463" type="line" smooth="yes"/>
      <point x="441" y="419" type="line" smooth="yes"/>
      <point x="400" y="384" type="line" smooth="yes"/>
      <point x="350" y="362" type="line" smooth="yes"/>
    </contour>
    <contour>
      <point x="83" y="-11" type="line" smooth="yes"/>
      <point x="179" y="-2" type="line" smooth="yes"/>
      <point x="274" y="26" type="line" smooth="yes"/>
      <point x="361" y="75" type="line" smooth="yes"/>
      <point x="435" y="149" type="line" smooth="yes"/>
      <point x="487" y="234" type="line" smooth="yes"/>
      <point x="521" y="323" type="line" smooth="yes"/>
      <point x="539" y="414" type="line" smooth="yes"/>
      <point x="545" y="506" type="line" smooth="yes"/>
      <point x="545" y="517" type="line" smooth="yes"/>
      <point x="526" y="634" type="line" smooth="yes"/>
      <point x="475" y="720" type="line" smooth="yes"/>
      <point x="396" y="773" type="line" smooth="yes"/>
      <point x="296" y="791" type="line" smooth="yes"/>
      <point x="194" y="776" type="line" smooth="yes"/>
      <point x="116" y="730" type="line" smooth="yes"/>
      <point x="65" y="653" type="line" smooth="yes"/>
      <point x="47" y="545" type="line" smooth="yes"/>
      <point x="47" y="535" type="line" smooth="yes"/>
      <point x="65" y="427" type="line" smooth="yes"/>
      <point x="114" y="351" type="line" smooth="yes"/>
      <point x="188" y="305" type="line" smooth="yes"/>
      <point x="281" y="290" type="line" smooth="yes"/>
      <point x="334" y="295" type="line" smooth="yes"/>
      <point x="381" y="309" type="line" smooth="yes"/>
      <point x="422" y="332" type="line" smooth="yes"/>
      <point x="457" y="361" type="line" smooth="yes"/>
      <point x="444" y="316" type="line" smooth="yes"/>
      <point x="427" y="273" type="line" smooth="yes"/>
      <point x="405" y="231" type="line" smooth="yes"/>
      <point x="378" y="191" type="line" smooth="yes"/>
      <point x="315" y="128" type="line" smooth="yes"/>
      <point x="241" y="85" type="line" smooth="yes"/>
      <point x="162" y="61" type="line" smooth="yes"/>
      <point x="83" y="53" type="line" smooth="yes"/>
    </contour>
  </outline>
</glyph>
<glyph name="question" format="1">
  <advance width="455"/>
  <unicode hex="003F"/>
  <outline>
    <contour>
      <point x="271" y="90" type="line" smooth="yes"/>
      <point x="181" y="90" type="line" smooth="yes"/>
      <point x="181" y="0" type="line" smooth="yes"/>
      <point x="271" y="0" type="line" smooth="yes"/>
    </contour>
    <contour>
      <point x="231" y="726" type="line" smooth="yes"/>
      <point x="291" y="716" type="line" smooth="yes"/>
      <point x="329" y="686" type="line" smooth="yes"/>
      <point x="348" y="639" type="line" smooth="yes"/>
      <point x="354" y="576" type="line" smooth="yes"/>
      <point x="329" y="485" type="line" smooth="yes"/>
      <point x="276" y="405" type="line" smooth="yes"/>
      <point x="224" y="315" type="line" smooth="yes"/>
      <point x="203" y="189" type="line" smooth="yes"/>
      <point x="250" y="189" type="line" smooth="yes"/>
      <point x="281" y="307" type="line" smooth="yes"/>
      <point x="341" y="387" type="line" smooth="yes"/>
      <point x="400" y="466" type="line" smooth="yes"/>
      <point x="427" y="583" type="line" smooth="yes"/>
      <point x="416" y="668" type="line" smooth="yes"/>
      <point x="382" y="734" type="line" smooth="yes"/>
      <point x="321" y="776" type="line" smooth="yes"/>
      <point x="231" y="791" type="line" smooth="yes"/>
      <point x="130" y="770" type="line" smooth="yes"/>
      <point x="67" y="712" type="line" smooth="yes"/>
      <point x="35" y="625" type="line" smooth="yes"/>
      <point x="26" y="516" type="line" smooth="yes"/>
      <point x="26" y="504" type="line" smooth="yes"/>
      <point x="97" y="504" type="line" smooth="yes"/>
      <point x="103" y="596" type="line" smooth="yes"/>
      <point x="125" y="666" type="line" smooth="yes"/>
      <point x="166" y="711" type="line" smooth="yes"/>
    </contour>
  </outline>
</glyph>
<glyph name="at" format="1">
  <advance width="961"/>
  <unicode hex="0040"/>
  <outline>
    <contour>
      <point x="465" y="109" type="line" smooth="yes"/>
      <point x="401" y="122" type="line" smooth="yes"/>
      <point x="357" y="159" type="line" smooth="yes"/>
      <point x="331" y="214" type="line" smooth="yes"/>
      <point x="323" y="283" type="line" smooth="yes"/>
      <point x="323" y="307" type="line" smooth="yes"/>
      <point x="331" y="376" type="line" smooth="yes"/>
      <point x="357" y="431" type="line" smooth="yes"/>
      <point x="401" y="468" type="line" smooth="yes"/>
      <point x="465" y="481" type="line" smooth="yes"/>
      <point x="511" y="473" type="line" smooth="yes"/>
      <point x="548" y="454" type="line" smooth="yes"/>
      <point x="577" y="428" type="line" smooth="yes"/>
      <point x="598" y="401" type="line" smooth="yes"/>
      <point x="598" y="189" type="line" smooth="yes"/>
      <point x="577" y="162" type="line" smooth="yes"/>
      <point x="548" y="136" type="line" smooth="yes"/>
      <point x="511" y="117" type="line" smooth="yes"/>
    </contour>
    <contour>
      <point x="501" y="-156" type="line" smooth="yes"/>
      <point x="335" y="-128" type="line" smooth="yes"/>
      <point x="205" y="-47" type="line" smooth="yes"/>
      <point x="120" y="87" type="line" smooth="yes"/>
      <point x="90" y="270" type="line" smooth="yes"/>
      <point x="90" y="310" type="line" smooth="yes"/>
      <point x="120" y="490" type="line" smooth="yes"/>
      <point x="203" y="624" type="line" smooth="yes"/>
      <point x="332" y="707" type="line" smooth="yes"/>
      <point x="496" y="736" type="line" smooth="yes"/>
      <point x="502" y="736" type="line" smooth="yes"/>
      <point x="640" y="717" type="line" smooth="yes"/>
      <point x="757" y="656" type="line" smooth="yes"/>
      <point x="838" y="548" type="line" smooth="yes"/>
      <point x="869" y="388" type="line" smooth="yes"/>
      <point x="869" y="358" type="line" smooth="yes"/>
      <point x="854" y="234" type="line" smooth="yes"/>
      <point x="813" y="160" type="line" smooth="yes"/>
      <point x="748" y="125" type="line" smooth="yes"/>
      <point x="663" y="114" type="line" smooth="yes"/>
      <point x="663" y="383" type="line" smooth="yes"/>
      <point x="669" y="530" type="line" smooth="yes"/>
      <point x="615" y="530" type="line" smooth="yes"/>
      <point x="605" y="457" type="line" smooth="yes"/>
      <point x="580" y="489" type="line" smooth="yes"/>
      <point x="547" y="516" type="line" smooth="yes"/>
      <point x="503" y="534" type="line" smooth="yes"/>
      <point x="450" y="541" type="line" smooth="yes"/>
      <point x="361" y="522" type="line" smooth="yes"/>
      <point x="300" y="470" type="line" smooth="yes"/>
      <point x="265" y="395" type="line" smooth="yes"/>
      <point x="254" y="307" type="line" smooth="yes"/>
      <point x="254" y="283" type="line" smooth="yes"/>
      <point x="265" y="195" type="line" smooth="yes"/>
      <point x="300" y="120" type="line" smooth="yes"/>
      <point x="361" y="68" type="line" smooth="yes"/>
      <point x="450" y="49" type="line" smooth="yes"/>
      <point x="503" y="56" type="line" smooth="yes"/>
      <point x="547" y="74" type="line" smooth="yes"/>
      <point x="580" y="100" type="line" smooth="yes"/>
      <point x="605" y="133" type="line" smooth="yes"/>
      <point x="615" y="60" type="line" smooth="yes"/>
      <point x="661" y="60" type="line" smooth="yes"/>
      <point x="768" y="73" type="line" smooth="yes"/>
      <point x="853" y="119" type="line" smooth="yes"/>
      <point x="908" y="210" type="line" smooth="yes"/>
      <point x="928" y="358" type="line" smooth="yes"/>
      <point x="928" y="388" type="line" smooth="yes"/>
      <point x="894" y="567" type="line" smooth="yes"/>
      <point x="801" y="692" type="line" smooth="yes"/>
      <point x="664" y="767" type="line" smooth="yes"/>
      <point x="499" y="791" type="line" smooth="yes"/>
      <point x="310" y="758" type="line" smooth="yes"/>
      <point x="163" y="664" type="line" smooth="yes"/>
      <point x="67" y="513" type="line" smooth="yes"/>
      <point x="33" y="310" type="line" smooth="yes"/>
      <point x="33" y="270" type="line" smooth="yes"/>
      <point x="68" y="67" type="line" smooth="yes"/>
      <point x="165" y="-84" type="line" smooth="yes"/>
      <point x="314" y="-178" type="line" smooth="yes"/>
      <point x="504" y="-211" type="line" smooth="yes"/>
      <point x="594" y="-206" type="line" smooth="yes"/>
      <point x="686" y="-188" type="line" smooth="yes"/>
      <point x="778" y="-152" type="line" smooth="yes"/>
      <point x="868" y="-95" type="line" smooth="yes"/>
      <point x="836" y="-52" type="line" smooth="yes"/>
      <point x="759" y="-99" type="line" smooth="yes"/>
      <point x="679" y="-132" type="line" smooth="yes"/>
      <point x="595" y="-150" type="line" smooth="yes"/>
      <point x="507" y="-156" type="line" smooth="yes"/>
    </contour>
  </outline>
</glyph>
<glyph name="C" format="1">
  <advance width="618"/>
  <unicode hex="0043"/>
  <outline>
    <contour>
      <point x="131" y="370" type="line" smooth="yes"/>
      <point x="131" y="410" type="line" smooth="yes"/>
      <point x="142" y="553" type="line" smooth="yes"/>
      <point x="177" y="651" type="line" smooth="yes"/>
      <point x="236" y="708" type="line" smooth="yes"/>
      <point x="321" y="726" type="line" smooth="yes"/>
      <point x="328" y="726" type="line" smooth="yes"/>
      <point x="403" y="713" type="line" smooth="yes"/>
      <point x="455" y="671" type="line" smooth="yes"/>
      <point x="485" y="600" type="line" smooth="yes"/>
      <point x="494" y="496" type="line" smooth="yes"/>
      <point x="568" y="496" type="line" smooth="yes"/>
      <point x="568" y="524" type="line" smooth="yes"/>
      <point x="553" y="640" type="line" smooth="yes"/>
      <point x="507" y="724" type="line" smooth="yes"/>
      <point x="430" y="774" type="line" smooth="yes"/>
      <point x="322" y="791" type="line" smooth="yes"/>
      <point x="205" y="769" type="line" smooth="yes"/>
      <point x="122" y="702" type="line" smooth="yes"/>
      <point x="73" y="583" type="line" smooth="yes"/>
      <point x="57" y="410" type="line" smooth="yes"/>
      <point x="57" y="370" type="line" smooth="yes"/>
      <point x="73" y="197" type="line" smooth="yes"/>
      <point x="122" y="78" type="line" smooth="yes"/>
      <point x="205" y="11" type="line" smooth="yes"/>
      <point x="322" y="-11" type="line" smooth="yes"/>
      <point x="430" y="6" type="line" smooth="yes"/>
      <point x="507" y="55" type="line" smooth="yes"/>
      <point x="553" y="135" type="line" smooth="yes"/>
      <point x="568" y="244" type="line" smooth="yes"/>
      <point x="568" y="254" type="line" smooth="yes"/>
      <point x="494" y="254" type="line" smooth="yes"/>
      <point x="485" y="168" type="line" smooth="yes"/>
      <point x="455" y="106" type="line" smooth="yes"/>
      <point x="403" y="67" type="line" smooth="yes"/>
      <point x="328" y="54" type="line" smooth="yes"/>
      <point x="321" y="54" type="line" smooth="yes"/>
      <point x="236" y="72" type="line" smooth="yes"/>
      <point x="177" y="129" type="line" smooth="yes"/>
      <point x="142" y="227" type="line" smooth="yes"/>
    </contour>
  </outline>
</glyph>
<glyph name="D" format="1">
  <advance width="639"/>
  <unicode hex="0044"/>
  <outline>
    <contour>
      <point x="146" y="65" type="line" smooth="yes"/>
      <point x="146" y="715" type="line" smooth="yes"/>
      <point x="274" y="715" type="line" smooth="yes"/>
      <point x="374" y="699" type="line" smooth="yes"/>
      <point x="447" y="646" type="line" smooth="yes"/>
      <point x="493" y="551" type="line" smooth="yes"/>
      <point x="508" y="410" type="line" smooth="yes"/>
      <point x="508" y="370" type="line" smooth="yes"/>
      <point x="493" y="229" type="line" smooth="yes"/>
      <point x="447" y="134" type="line" smooth="yes"/>
      <point x="374" y="81" type="line" smooth="yes"/>
      <point x="274" y="65" type="line" smooth="yes"/>
    </contour>
    <contour>
      <point x="582" y="370" type="line" smooth="yes"/>
      <point x="582" y="410" type="line" smooth="yes"/>
      <point x="562" y="582" type="line" smooth="yes"/>
      <point x="502" y="696" type="line" smooth="yes"/>
      <point x="407" y="760" type="line" smooth="yes"/>
      <point x="280" y="780" type="line" smooth="yes"/>
      <point x="74" y="780" type="line" smooth="yes"/>
      <point x="74" y="0" type="line" smooth="yes"/>
      <point x="280" y="0" type="line" smooth="yes"/>
      <point x="407" y="20" type="line" smooth="yes"/>
      <point x="502" y="84" type="line" smooth="yes"/>
      <point x="562" y="198" type="line" smooth="yes"/>
    </contour>
  </outline>
</glyph>
<glyph name="P" format="1">
  <advance width="573"/>
  <unicode hex="0050"/>
  <outline>
    <contour>
      <point x="146" y="382" type="line" smooth="yes"/>
      <point x="146" y="715" type="line" smooth="yes"/>
      <point x="292" y="715" type="line" smooth="yes"/>
      <point x="346" y="709" type="line" smooth="yes"/>
      <point x="399" y="686" type="line" smooth="yes"/>
      <point x="439" y="637" type="line" smooth="yes"/>
      <point x="455" y="556" type="line" smooth="yes"/>
      <point x="455" y="541" type="line" smooth="yes"/>
      <point x="439" y="460" type="line" smooth="yes"/>
      <point x="399" y="411" type="line" smooth="yes"/>
      <point x="346" y="388" type="line" smooth="yes"/>
      <point x="292" y="382" type="line" smooth="yes"/>
    </contour>
    <contour>
      <point x="146" y="317" type="line" smooth="yes"/>
      <point x="290" y="317" type="line" smooth="yes"/>
      <point x="374" y="326" type="line" smooth="yes"/>
      <point x="451" y="360" type="line" smooth="yes"/>
      <point x="507" y="428" type="line" smooth="yes"/>
      <point x="529" y="538" type="line" smooth="yes"/>
      <point x="529" y="558" type="line" smooth="yes"/>
      <point x="507" y="669" type="line" smooth="yes"/>
      <point x="451" y="737" type="line" smooth="yes"/>
      <point x="374" y="771" type="line" smooth="yes"/>
      <point x="290" y="780" type="line" smooth="yes"/>
      <point x="74" y="780" type="line" smooth="yes"/>
      <point x="74" y="0" type="line" smooth="yes"/>
      <point x="146" y="0" type="line" smooth="yes"/>
    </contour>
  </outline>
</glyph>
<glyph name="S" format="1">
  <advance width="601"/>
  <unicode hex="0053"/>
  <outline>
    <contour>
      <point x="288" y="370" type="line" smooth="yes"/>
      <point x="376" y="350" type="line" smooth="yes"/>
      <point x="436" y="319" type="line" smooth="yes"/>
      <point x="470" y="274" type="line" smooth="yes"/>
      <point x="481" y="213" type="line" smooth="yes"/>
      <point x="481" y="204" type="line" smooth="yes"/>
      <point x="468" y="140" type="line" smooth="yes"/>
      <point x="432" y="93" type="line" smooth="yes"/>
      <point x="376" y="64" type="line" smooth="yes"/>
      <point x="304" y="54" type="line" smooth="yes"/>
      <point x="297" y="54" type="line" smooth="yes"/>
      <point x="225" y="66" type="line" smooth="yes"/>
      <point x="168" y="103" type="line" smooth="yes"/>
      <point x="131" y="165" type="line" smooth="yes"/>
      <point x="118" y="254" type="line" smooth="yes"/>
      <point x="46" y="254" type="line" smooth="yes"/>
      <point x="46" y="244" type="line" smooth="yes"/>
      <point x="62" y="136" type="line" smooth="yes"/>
      <point x="111" y="56" type="line" smooth="yes"/>
      <point x="191" y="6" type="line" smooth="yes"/>
      <point x="300" y="-11" type="line" smooth="yes"/>
      <point x="406" y="4" type="line" smooth="yes"/>
      <point x="486" y="47" type="line" smooth="yes"/>
      <point x="537" y="116" type="line" smooth="yes"/>
      <point x="555" y="209" type="line" smooth="yes"/>
      <point x="555" y="219" type="line" smooth="yes"/>
      <point x="541" y="300" type="line" smooth="yes"/>
      <point x="499" y="361" type="line" smooth="yes"/>
      <point x="424" y="405" type="line" smooth="yes"/>
      <point x="315" y="431" type="line" smooth="yes"/>
      <point x="226" y="452" type="line" smooth="yes"/>
      <point x="168" y="483" type="line" smooth="yes"/>
      <point x="138" y="527" type="line" smooth="yes"/>
      <point x="129" y="583" type="line" smooth="yes"/>
      <point x="129" y="591" type="line" smooth="yes"/>
      <point x="142" y="648" type="line" smooth="yes"/>
      <point x="177" y="690" type="line" smooth="yes"/>
      <point x="230" y="717" type="line" smooth="yes"/>
      <point x="296" y="726" type="line" smooth="yes"/>
      <point x="303" y="726" type="line" smooth="yes"/>
      <point x="380" y="714" type="line" smooth="yes"/>
      <point x="433" y="677" type="line" smooth="yes"/>
      <point x="464" y="611" type="line" smooth="yes"/>
      <point x="474" y="516" type="line" smooth="yes"/>
      <point x="546" y="516" type="line" smooth="yes"/>
      <point x="546" y="540" type="line" smooth="yes"/>
      <point x="532" y="647" type="line" smooth="yes"/>
      <point x="488" y="726" type="line" smooth="yes"/>
      <point x="412" y="774" type="line" smooth="yes"/>
      <point x="300" y="791" type="line" smooth="yes"/>
      <point x="199" y="777" type="line" smooth="yes"/>
      <point x="122" y="735" type="line" smooth="yes"/>
      <point x="72" y="670" type="line" smooth="yes"/>
      <point x="55" y="582" type="line" smooth="yes"/>
      <point x="55" y="572" type="line" smooth="yes"/>
      <point x="68" y="500" type="line" smooth="yes"/>
      <point x="108" y="441" type="line" smooth="yes"/>
      <point x="180" y="397" type="line" smooth="yes"/>
    </contour>
  </outline>
</glyph>
<glyph name="Y" format="1">
  <advance width="577"/>
  <unicode hex="0059"/>
  <outline>
    <contour>
      <point x="325" y="236" type="line" smooth="yes"/>
      <point x="557" y="780" type="line" smooth="yes"/>
      <point x="478" y="780" type="line" smooth="yes"/>
      <point x="289" y="325" type="line" smooth="yes"/>
      <point x="99" y="780" type="line" smooth="yes"/>
      <point x="21" y="780" type="line" smooth="yes"/>
      <point x="253" y="236" type="line" smooth="yes"/>
      <point x="253" y="0" type="line" smooth="yes"/>
      <point x="325" y="0" type="line" smooth="yes"/>
    </contour>
  </outline>
</glyph>
<glyph name="backslash" format="1">
  <advance width="329"/>
  <unicode hex="005C"/>
  <outline>
    <contour>
      <point x="245" y="-120" type="line" smooth="yes"/>
      <point x="315" y="-120" type="line" smooth="yes"/>
      <point x="85" y="840" type="line" smooth="yes"/>
      <point x="15" y="840" type="line" smooth="yes"/>
    </contour>
  </outline>
</glyph>
<glyph name="asciicircum" format="1">
  <advance width="600"/>
  <unicode hex="005E"/>
  <outline>
    <contour>
      <point x="335" y="780" type="line" smooth="yes"/>
      <point x="265" y="780" type="line" smooth="yes"/>
      <point x="30" y="276" type="line" smooth="yes"/>
      <point x="102" y="276" type="line" smooth="yes"/>
      <point x="300" y="709" type="line" smooth="yes"/>
      <point x="498" y="276" type="line" smooth="yes"/>
      <point x="570" y="276" type="line" smooth="yes"/>
    </contour>
  </outline>
</glyph>
<glyph name="underscore" format="1">
  <advance width="320"/>
  <unicode hex="005F"/>
  <outline>
    <contour>
      <point x="48" y="-135" type="line" smooth="yes"/>
      <point x="272" y="-135" type="line" smooth="yes"/>
      <point x="272" y="-71" type="line" smooth="yes"/>
      <point x="48" y="-71" type="line" smooth="yes"/>
    </contour>
  </outline>
</glyph>
<glyph name="d" format="1">
  <advance width="540"/>
  <unicode hex="0064"/>
  <outline>
    <contour>
      <point x="269" y="52" type="line" smooth="yes"/>
      <point x="204" y="66" type="line" smooth="yes"/>
      <point x="158" y="106" type="line" smooth="yes"/>
      <point x="131" y="170" type="line" smooth="yes"/>
      <point x="122" y="253" type="line" smooth="yes"/>
      <point x="122" y="277" type="line" smooth="yes"/>
      <point x="131" y="360" type="line" smooth="yes"/>
      <point x="158" y="424" type="line" smooth="yes"/>
      <point x="204" y="464" type="line" smooth="yes"/>
      <point x="269" y="478" type="line" smooth="yes"/>
      <point x="317" y="470" type="line" smooth="yes"/>
      <point x="355" y="450" type="line" smooth="yes"/>
      <point x="384" y="424" type="line" smooth="yes"/>
      <point x="404" y="396" type="line" smooth="yes"/>
      <point x="404" y="134" type="line" smooth="yes"/>
      <point x="384" y="106" type="line" smooth="yes"/>
      <point x="355" y="80" type="line" smooth="yes"/>
      <point x="317" y="60" type="line" smooth="yes"/>
    </contour>
    <contour>
      <point x="254" y="541" type="line" smooth="yes"/>
      <point x="161" y="520" type="line" smooth="yes"/>
      <point x="98" y="464" type="line" smooth="yes"/>
      <point x="62" y="380" type="line" smooth="yes"/>
      <point x="51" y="277" type="line" smooth="yes"/>
      <point x="51" y="253" type="line" smooth="yes"/>
      <point x="62" y="150" type="line" smooth="yes"/>
      <point x="98" y="66" type="line" smooth="yes"/>
      <point x="161" y="10" type="line" smooth="yes"/>
      <point x="254" y="-11" type="line" smooth="yes"/>
      <point x="308" y="-5" type="line" smooth="yes"/>
      <point x="352" y="13" type="line" smooth="yes"/>
      <point x="386" y="39" type="line" smooth="yes"/>
      <point x="411" y="71" type="line" smooth="yes"/>
      <point x="421" y="0" type="line" smooth="yes"/>
      <point x="480" y="0" type="line" smooth="yes"/>
      <point x="474" y="150" type="line" smooth="yes"/>
      <point x="474" y="800" type="line" smooth="yes"/>
      <point x="404" y="800" type="line" smooth="yes"/>
      <point x="404" y="469" type="line" smooth="yes"/>
      <point x="379" y="497" type="line" smooth="yes"/>
      <point x="346" y="520" type="line" smooth="yes"/>
      <point x="305" y="535" type="line" smooth="yes"/>
    </contour>
  </outline>
</glyph>
<glyph name="h" format="1">
  <advance width="528"/>
  <unicode hex="0068"/>
  <outline>
    <contour>
      <point x="136" y="800" type="line" smooth="yes"/>
      <point x="66" y="800" type="line" smooth="yes"/>
      <point x="66" y="0" type="line" smooth="yes"/>
      <point x="136" y="0" type="line" smooth="yes"/>
      <point x="136" y="396" type="line" smooth="yes"/>
      <point x="156" y="424" type="line" smooth="yes"/>
      <point x="186" y="450" type="line" smooth="yes"/>
      <point x="227" y="470" type="line" smooth="yes"/>
      <point x="282" y="478" type="line" smooth="yes"/>
      <point x="330" y="471" type="line" smooth="yes"/>
      <point x="366" y="450" type="line" smooth="yes"/>
      <point x="389" y="413" type="line" smooth="yes"/>
      <point x="397" y="361" type="line" smooth="yes"/>
      <point x="397" y="0" type="line" smooth="yes"/>
      <point x="467" y="0" type="line" smooth="yes"/>
      <point x="467" y="371" type="line" smooth="yes"/>
      <point x="457" y="439" type="line" smooth="yes"/>
      <point x="426" y="493" type="line" smooth="yes"/>
      <point x="375" y="528" type="line" smooth="yes"/>
      <point x="306" y="541" type="line" smooth="yes"/>
      <point x="249" y="535" type="line" smooth="yes"/>
      <point x="202" y="519" type="line" smooth="yes"/>
      <point x="164" y="495" type="line" smooth="yes"/>
      <point x="136" y="466" type="line" smooth="yes"/>
    </contour>
  </outline>
</glyph>
<glyph name="j" format="1">
  <advance width="216"/>
  <unicode hex="006A"/>
  <outline>
    <contour>
      <point x="153" y="745" type="line" smooth="yes"/>
      <point x="63" y="745" type="line" smooth="yes"/>
      <point x="63" y="655" type="line" smooth="yes"/>
      <point x="153" y="655" type="line" smooth="yes"/>
    </contour>
    <contour>
      <point x="73" y="-44" type="line" smooth="yes"/>
      <point x="66" y="-96" type="line" smooth="yes"/>
      <point x="47" y="-128" type="line" smooth="yes"/>
      <point x="15" y="-144" type="line" smooth="yes"/>
      <point x="-29" y="-148" type="line" smooth="yes"/>
      <point x="-46" y="-147" type="line" smooth="yes"/>
      <point x="-62" y="-145" type="line" smooth="yes"/>
      <point x="-76" y="-142" type="line" smooth="yes"/>
      <point x="-86" y="-139" type="line" smooth="yes"/>
      <point x="-86" y="-200" type="line" smooth="yes"/>
      <point x="-77" y="-203" type="line" smooth="yes"/>
      <point x="-62" y="-207" type="line" smooth="yes"/>
      <point x="-40" y="-210" type="line" smooth="yes"/>
      <point x="-12" y="-211" type="line" smooth="yes"/>
      <point x="50" y="-202" type="line" smooth="yes"/>
      <point x="99" y="-175" type="line" smooth="yes"/>
      <point x="131" y="-126" type="line" smooth="yes"/>
      <point x="143" y="-53" type="line" smooth="yes"/>
      <point x="143" y="530" type="line" smooth="yes"/>
      <point x="73" y="530" type="line" smooth="yes"/>
    </contour>
  </outline>
</glyph>
<glyph name="m" format="1">
  <advance width="805"/>
  <unicode hex="006D"/>
  <outline>
    <contour>
      <point x="744" y="0" type="line" smooth="yes"/>
      <point x="744" y="384" type="line" smooth="yes"/>
      <point x="734" y="451" type="line" smooth="yes"/>
      <point x="706" y="500" type="line" smooth="yes"/>
      <point x="659" y="531" type="line" smooth="yes"/>
      <point x="596" y="541" type="line" smooth="yes"/>
      <point x="538" y="534" type="line" smooth="yes"/>
      <point x="491" y="515" type="line" smooth="yes"/>
      <point x="455" y="487" type="line" smooth="yes"/>
      <point x="429" y="453" type="line" smooth="yes"/>
      <point x="409" y="491" type="line" smooth="yes"/>
      <point x="379" y="518" type="line" smooth="yes"/>
      <point x="340" y="535" type="line" smooth="yes"/>
      <point x="292" y="541" type="line" smooth="yes"/>
      <point x="235" y="534" type="line" smooth="yes"/>
      <point x="190" y="516" type="line" smooth="yes"/>
      <point x="154" y="490" type="line" smooth="yes"/>
      <point x="128" y="458" type="line" smooth="yes"/>
      <point x="118" y="530" type="line" smooth="yes"/>
      <point x="60" y="530" type="line" smooth="yes"/>
      <point x="66" y="380" type="line" smooth="yes"/>
      <point x="66" y="0" type="line" smooth="yes"/>
      <point x="136" y="0" type="line" smooth="yes"/>
      <point x="136" y="398" type="line" smooth="yes"/>
      <point x="156" y="425" type="line" smooth="yes"/>
      <point x="183" y="451" type="line" smooth="yes"/>
      <point x="219" y="470" type="line" smooth="yes"/>
      <point x="268" y="478" type="line" smooth="yes"/>
      <point x="309" y="473" type="line" smooth="yes"/>
      <point x="342" y="456" type="line" smooth="yes"/>
      <point x="363" y="424" type="line" smooth="yes"/>
      <point x="370" y="374" type="line" smooth="yes"/>
      <point x="370" y="0" type="line" smooth="yes"/>
      <point x="440" y="0" type="line" smooth="yes"/>
      <point x="440" y="398" type="line" smooth="yes"/>
      <point x="460" y="425" type="line" smooth="yes"/>
      <point x="487" y="451" type="line" smooth="yes"/>
      <point x="523" y="470" type="line" smooth="yes"/>
      <point x="572" y="478" type="line" smooth="yes"/>
      <point x="613" y="473" type="line" smooth="yes"/>
      <point x="646" y="456" type="line" smooth="yes"/>
      <point x="667" y="424" type="line" smooth="yes"/>
      <point x="674" y="374" type="line" smooth="yes"/>
      <point x="674" y="0" type="line" smooth="yes"/>
    </contour>
  </outline>
</glyph>
<glyph name="p" format="1">
  <advance width="537"/>
  <unicode hex="0070"/>
  <outline>
    <contour>
      <point x="136" y="396" type="line" smooth="yes"/>
      <point x="156" y="424" type="line" smooth="yes"/>
      <point x="184" y="450" type="line" smooth="yes"/>
      <point x="222" y="470" type="line" smooth="yes"/>
      <point x="270" y="478" type="line" smooth="yes"/>
      <point x="335" y="464" type="line" smooth="yes"/>
      <point x="381" y="424" type="line" smooth="yes"/>
      <point x="408" y="360" type="line" smooth="yes"/>
      <point x="417" y="277" type="line" smooth="yes"/>
      <point x="417" y="253" type="line" smooth="yes"/>
      <point x="408" y="170" type="line" smooth="yes"/>
      <point x="381" y="106" type="line" smooth="yes"/>
      <point x="335" y="66" type="line" smooth="yes"/>
      <point x="270" y="52" type="line" smooth="yes"/>
      <point x="222" y="60" type="line" smooth="yes"/>
      <point x="184" y="80" type="line" smooth="yes"/>
      <point x="156" y="106" type="line" smooth="yes"/>
      <point x="136" y="134" type="line" smooth="yes"/>
    </contour>
    <contour>
      <point x="286" y="-11" type="line" smooth="yes"/>
      <point x="379" y="10" type="line" smooth="yes"/>
      <point x="442" y="66" type="line" smooth="yes"/>
      <point x="478" y="150" type="line" smooth="yes"/>
      <point x="489" y="253" type="line" smooth="yes"/>
      <point x="489" y="277" type="line" smooth="yes"/>
      <point x="478" y="380" type="line" smooth="yes"/>
      <point x="442" y="464" type="line" smooth="yes"/>
      <point x="379" y="520" type="line" smooth="yes"/>
      <point x="286" y="541" type="line" smooth="yes"/>
      <point x="231" y="534" type="line" smooth="yes"/>
      <point x="187" y="516" type="line" smooth="yes"/>
      <point x="153" y="490" type="line" smooth="yes"/>
      <point x="128" y="458" type="line" smooth="yes"/>
      <point x="118" y="530" type="line" smooth="yes"/>
      <point x="60" y="530" type="line" smooth="yes"/>
      <point x="66" y="380" type="line" smooth="yes"/>
      <point x="66" y="-200" type="line" smooth="yes"/>
      <point x="136" y="-200" type="line" smooth="yes"/>
      <point x="136" y="60" type="line" smooth="yes"/>
      <point x="161" y="32" type="line" smooth="yes"/>
      <point x="194" y="10" type="line" smooth="yes"/>
      <point x="235" y="-6" type="line" smooth="yes"/>
    </contour>
  </outline>
</glyph>
<glyph name="x" format="1">
  <advance width="485"/>
  <unicode hex="0078"/>
  <outline>
    <contour>
      <point x="23" y="530" type="line" smooth="yes"/>
      <point x="189" y="268" type="line" smooth="yes"/>
      <point x="23" y="0" type="line" smooth="yes"/>
      <point x="106" y="0" type="line" smooth="yes"/>
      <point x="242" y="223" type="line" smooth="yes"/>
      <point x="379" y="0" type="line" smooth="yes"/>
      <point x="462" y="0" type="line" smooth="yes"/>
      <point x="295" y="268" type="line" smooth="yes"/>
      <point x="462" y="530" type="line" smooth="yes"/>
      <point x="379" y="530" type="line" smooth="yes"/>
      <point x="242" y="313" type="line" smooth="yes"/>
      <point x="106" y="530" type="line" smooth="yes"/>
    </contour>
  </outline>
</glyph>
<glyph name="braceright" format="1">
  <advance width="317"/>
  <unicode hex="007D"/>
  <outline>
    <contour>
      <point x="42" y="-120" type="line" smooth="yes"/>
      <point x="60" y="-120" type="line" smooth="yes"/>
      <point x="114" y="-114" type="line" smooth="yes"/>
      <point x="160" y="-91" type="line" smooth="yes"/>
      <point x="193" y="-49" type="line" smooth="yes"/>
      <point x="206" y="19" type="line" smooth="yes"/>
      <point x="206" y="239" type="line" smooth="yes"/>
      <point x="211" y="284" type="line" smooth="yes"/>
      <point x="228" y="310" type="line" smooth="yes"/>
      <point x="255" y="324" type="line" smooth="yes"/>
      <point x="292" y="327" type="line" smooth="yes"/>
      <point x="292" y="393" type="line" smooth="yes"/>
      <point x="255" y="396" type="line" smooth="yes"/>
      <point x="228" y="410" type="line" smooth="yes"/>
      <point x="211" y="436" type="line" smooth="yes"/>
      <point x="206" y="481" type="line" smooth="yes"/>
      <point x="206" y="701" type="line" smooth="yes"/>
      <point x="193" y="769" type="line" smooth="yes"/>
      <point x="160" y="811" type="line" smooth="yes"/>
      <point x="114" y="834" type="line" smooth="yes"/>
      <point x="60" y="840" type="line" smooth="yes"/>
      <point x="42" y="840" type="line" smooth="yes"/>
      <point x="42" y="774" type="line" smooth="yes"/>
      <point x="82" y="769" type="line" smooth="yes"/>
      <point x="111" y="753" type="line" smooth="yes"/>
      <point x="130" y="722" type="line" smooth="yes"/>
      <point x="136" y="671" type="line" smooth="yes"/>
      <point x="136" y="463" type="line" smooth="yes"/>
      <point x="140" y="426" type="line" smooth="yes"/>
      <point x="151" y="397" type="line" smooth="yes"/>
      <point x="168" y="375" type="line" smooth="yes"/>
      <point x="190" y="360" type="line" smooth="yes"/>
      <point x="168" y="344" type="line" smooth="yes"/>
      <point x="151" y="322" type="line" smooth="yes"/>
      <point x="140" y="293" type="line" smooth="yes"/>
      <point x="136" y="257" type="line" smooth="yes"/>
      <point x="136" y="49" type="line" smooth="yes"/>
      <point x="130" y="-2" type="line" smooth="yes"/>
      <point x="111" y="-33" type="line" smooth="yes"/>
      <point x="82" y="-49" type="line" smooth="yes"/>
      <point x="42" y="-54" type="line" smooth="yes"/>
    </contour>
  </outline>
</glyph>
<glyph name="asciitilde" format="1">
  <advance width="600"/>
  <unicode hex="007E"/>
  <outline>
    <contour>
      <point x="177" y="451" type="line" smooth="yes"/>
      <point x="129" y="444" type="line" smooth="yes"/>
      <point x="89" y="425" type="line" smooth="yes"/>
      <point x="59" y="401" type="line" smooth="yes"/>
      <point x="37" y="375" type="line" smooth="yes"/>
      <point x="77" y="335" type="line" smooth="yes"/>
      <point x="94" y="353" type="line" smooth="yes"/>
      <point x="116" y="372" type="line" smooth="yes"/>
      <point x="144" y="385" type="line" smooth="yes"/>
      <point x="175" y="391" type="line" smooth="yes"/>
      <point x="236" y="380" type="line" smooth="yes"/>
      <point x="293" y="356" type="line" smooth="yes"/>
      <point x="352" y="331" type="line" smooth="yes"/>
      <point x="423" y="320" type="line" smooth="yes"/>
      <point x="471" y="327" type="line" smooth="yes"/>
      <point x="511" y="346" type="line" smooth="yes"/>
      <point x="541" y="371" type="line" smooth="yes"/>
      <point x="563" y="396" type="line" smooth="yes"/>
      <point x="523" y="436" type="line" smooth="yes"/>
      <point x="506" y="418" type="line" smooth="yes"/>
      <point x="484" y="400" type="line" smooth="yes"/>
      <point x="456" y="386" type="line" smooth="yes"/>
      <point x="425" y="380" type="line" smooth="yes"/>
      <point x="364" y="391" type="line" smooth="yes"/>
      <point x="307" y="416" type="line" smooth="yes"/>
      <point x="248" y="440" type="line" smooth="yes"/>
    </contour>
  </outline>
</glyph>
<glyph name="cent" format="1">
  <advance width="600"/>
  <unicode hex="00A2"/>
  <outline>
    <contour>
      <point x="135" y="376" type="line" smooth="yes"/>
      <point x="135" y="404" type="line" smooth="yes"/>
      <point x="146" y="516" type="line" smooth="yes"/>
      <point x="180" y="597" type="line" smooth="yes"/>
      <point x="236" y="645" type="line" smooth="yes"/>
      <point x="313" y="661" type="line" smooth="yes"/>
      <point x="316" y="661" type="line" smooth="yes"/>
      <point x="319" y="661" type="line" smooth="yes"/>
      <point x="323" y="661" type="line" smooth="yes"/>
      <point x="326" y="660" type="line" smooth="yes"/>
      <point x="329" y="660" type="line" smooth="yes"/>
      <point x="208" y="153" type="line" smooth="yes"/>
      <point x="176" y="189" type="line" smooth="yes"/>
      <point x="153" y="239" type="line" smooth="yes"/>
      <point x="140" y="301" type="line" smooth="yes"/>
    </contour>
    <contour>
      <point x="434" y="840" type="line" smooth="yes"/>
      <point x="372" y="840" type="line" smooth="yes"/>
      <point x="344" y="725" type="line" smooth="yes"/>
      <point x="336" y="726" type="line" smooth="yes"/>
      <point x="329" y="726" type="line" smooth="yes"/>
      <point x="321" y="727" type="line" smooth="yes"/>
      <point x="313" y="727" type="line" smooth="yes"/>
      <point x="203" y="706" type="line" smooth="yes"/>
      <point x="125" y="644" type="line" smooth="yes"/>
      <point x="78" y="543" type="line" smooth="yes"/>
      <point x="62" y="404" type="line" smooth="yes"/>
      <point x="62" y="376" type="line" smooth="yes"/>
      <point x="70" y="274" type="line" smooth="yes"/>
      <point x="94" y="190" type="line" smooth="yes"/>
      <point x="135" y="126" type="line" smooth="yes"/>
      <point x="191" y="82" type="line" smooth="yes"/>
      <point x="157" y="-60" type="line" smooth="yes"/>
      <point x="219" y="-60" type="line" smooth="yes"/>
      <point x="248" y="61" type="line" smooth="yes"/>
      <point x="263" y="58" type="line" smooth="yes"/>
      <point x="279" y="57" type="line" smooth="yes"/>
      <point x="296" y="55" type="line" smooth="yes"/>
      <point x="313" y="55" type="line" smooth="yes"/>
      <point x="414" y="71" type="line" smooth="yes"/>
      <point x="484" y="115" type="line" smooth="yes"/>
      <point x="525" y="183" type="line" smooth="yes"/>
      <point x="538" y="269" type="line" smooth="yes"/>
      <point x="538" y="282" type="line" smooth="yes"/>
      <point x="467" y="282" type="line" smooth="yes"/>
      <point x="459" y="216" type="line" smooth="yes"/>
      <point x="432" y="165" type="line" smooth="yes"/>
      <point x="386" y="132" type="line" smooth="yes"/>
      <point x="316" y="120" type="line" smooth="yes"/>
      <point x="313" y="120" type="line" smooth="yes"/>
      <point x="300" y="120" type="line" smooth="yes"/>
      <point x="287" y="121" type="line" smooth="yes"/>
      <point x="275" y="123" type="line" smooth="yes"/>
      <point x="263" y="125" type="line" smooth="yes"/>
      <point x="388" y="648" type="line" smooth="yes"/>
      <point x="424" y="623" type="line" smooth="yes"/>
      <point x="448" y="587" type="line" smooth="yes"/>
      <point x="462" y="538" type="line" smooth="yes"/>
      <point x="467" y="477" type="line" smooth="yes"/>
      <point x="538" y="477" type="line" smooth="yes"/>
      <point x="538" y="501" type="line" smooth="yes"/>
      <point x="530" y="574" type="line" smooth="yes"/>
      <point x="506" y="635" type="line" smooth="yes"/>
      <point x="464" y="683" type="line" smooth="yes"/>
      <point x="404" y="714" type="line" smooth="yes"/>
    </contour>
  </outline>
</glyph>
<glyph name="sterling" format="1">
  <advance width="600"/>
  <unicode hex="00A3"/>
  <outline>
    <contour>
      <point x="328" y="726" type="line" smooth="yes"/>
      <point x="396" y="710" type="line" smooth="yes"/>
      <point x="442" y="664" type="line" smooth="yes"/>
      <point x="468" y="593" type="line" smooth="yes"/>
      <point x="477" y="500" type="line" smooth="yes"/>
      <point x="548" y="500" type="line" smooth="yes"/>
      <point x="548" y="512" type="line" smooth="yes"/>
      <point x="536" y="623" type="line" smooth="yes"/>
      <point x="499" y="712" type="line" smooth="yes"/>
      <point x="431" y="770" type="line" smooth="yes"/>
      <point x="328" y="791" type="line" smooth="yes"/>
      <point x="236" y="775" type="line" smooth="yes"/>
      <point x="170" y="731" type="line" smooth="yes"/>
      <point x="129" y="664" type="line" smooth="yes"/>
      <point x="116" y="577" type="line" smooth="yes"/>
      <point x="117" y="535" type="line" smooth="yes"/>
      <point x="122" y="494" type="line" smooth="yes"/>
      <point x="128" y="455" type="line" smooth="yes"/>
      <point x="136" y="416" type="line" smooth="yes"/>
      <point x="56" y="416" type="line" smooth="yes"/>
      <point x="56" y="351" type="line" smooth="yes"/>
      <point x="154" y="351" type="line" smooth="yes"/>
      <point x="174" y="282" type="line" smooth="yes"/>
      <point x="194" y="213" type="line" smooth="yes"/>
      <point x="211" y="141" type="line" smooth="yes"/>
      <point x="221" y="66" type="line" smooth="yes"/>
      <point x="56" y="66" type="line" smooth="yes"/>
      <point x="56" y="0" type="line" smooth="yes"/>
      <point x="544" y="0" type="line" smooth="yes"/>
      <point x="544" y="66" type="line" smooth="yes"/>
      <point x="283" y="66" type="line" smooth="yes"/>
      <point x="276" y="141" type="line" smooth="yes"/>
      <point x="264" y="214" type="line" smooth="yes"/>
      <point x="247" y="284" type="line" smooth="yes"/>
      <point x="230" y="351" type="line" smooth="yes"/>
      <point x="413" y="351" type="line" smooth="yes"/>
      <point x="413" y="416" type="line" smooth="yes"/>
      <point x="212" y="416" type="line" smooth="yes"/>
      <point x="203" y="456" type="line" smooth="yes"/>
      <point x="196" y="495" type="line" smooth="yes"/>
      <point x="191" y="533" type="line" smooth="yes"/>
      <point x="189" y="570" type="line" smooth="yes"/>
      <point x="197" y="634" type="line" smooth="yes"/>
      <point x="223" y="684" type="line" smooth="yes"/>
      <point x="266" y="715" type="line" smooth="yes"/>
    </contour>
  </outline>
</glyph>
<glyph name="section" format="1">
  <advance width="513"/>
  <unicode hex="00A7"/>
  <outline>
    <contour>
      <point x="399" y="390" type="line" smooth="yes"/>
      <point x="390" y="349" type="line" smooth="yes"/>
      <point x="365" y="317" type="line" smooth="yes"/>
      <point x="322" y="297" type="line" smooth="yes"/>
      <point x="264" y="290" type="line" smooth="yes"/>
      <point x="260" y="290" type="line" smooth="yes"/>
      <point x="194" y="298" type="line" smooth="yes"/>
      <point x="149" y="315" type="line" smooth="yes"/>
      <point x="122" y="345" type="line" smooth="yes"/>
      <point x="114" y="390" type="line" smooth="yes"/>
      <point x="123" y="431" type="line" smooth="yes"/>
      <point x="149" y="463" type="line" smooth="yes"/>
      <point x="191" y="483" type="line" smooth="yes"/>
      <point x="249" y="490" type="line" smooth="yes"/>
      <point x="252" y="490" type="line" smooth="yes"/>
      <point x="318" y="482" type="line" smooth="yes"/>
      <point x="364" y="465" type="line" smooth="yes"/>
      <point x="391" y="435" type="line" smooth="yes"/>
    </contour>
    <contour>
      <point x="471" y="389" type="line" smooth="yes"/>
      <point x="471" y="395" type="line" smooth="yes"/>
      <point x="460" y="459" type="line" smooth="yes"/>
      <point x="426" y="503" type="line" smooth="yes"/>
      <point x="367" y="530" type="line" smooth="yes"/>
      <point x="281" y="544" type="line" smooth="yes"/>
      <point x="211" y="555" type="line" smooth="yes"/>
      <point x="168" y="575" type="line" smooth="yes"/>
      <point x="147" y="603" type="line" smooth="yes"/>
      <point x="141" y="640" type="line" smooth="yes"/>
      <point x="150" y="679" type="line" smooth="yes"/>
      <point x="174" y="708" type="line" smooth="yes"/>
      <point x="214" y="726" type="line" smooth="yes"/>
      <point x="267" y="732" type="line" smooth="yes"/>
      <point x="329" y="723" type="line" smooth="yes"/>
      <point x="369" y="699" type="line" smooth="yes"/>
      <point x="390" y="660" type="line" smooth="yes"/>
      <point x="396" y="609" type="line" smooth="yes"/>
      <point x="466" y="609" type="line" smooth="yes"/>
      <point x="466" y="613" type="line" smooth="yes"/>
      <point x="455" y="685" type="line" smooth="yes"/>
      <point x="421" y="741" type="line" smooth="yes"/>
      <point x="359" y="778" type="line" smooth="yes"/>
      <point x="267" y="791" type="line" smooth="yes"/>
      <point x="184" y="780" type="line" smooth="yes"/>
      <point x="122" y="750" type="line" smooth="yes"/>
      <point x="83" y="702" type="line" smooth="yes"/>
      <point x="70" y="640" type="line" smooth="yes"/>
      <point x="70" y="634" type="line" smooth="yes"/>
      <point x="73" y="599" type="line" smooth="yes"/>
      <point x="84" y="568" type="line" smooth="yes"/>
      <point x="103" y="541" type="line" smooth="yes"/>
      <point x="132" y="520" type="line" smooth="yes"/>
      <point x="92" y="498" type="line" smooth="yes"/>
      <point x="64" y="469" type="line" smooth="yes"/>
      <point x="47" y="433" type="line" smooth="yes"/>
      <point x="41" y="391" type="line" smooth="yes"/>
      <point x="41" y="385" type="line" smooth="yes"/>
      <point x="52" y="322" type="line" smooth="yes"/>
      <point x="87" y="278" type="line" smooth="yes"/>
      <point x="146" y="250" type="line" smooth="yes"/>
      <point x="232" y="236" type="line" smooth="yes"/>
      <point x="302" y="225" type="line" smooth="yes"/>
      <point x="345" y="205" type="line" smooth="yes"/>
      <point x="366" y="177" type="line" smooth="yes"/>
      <point x="372" y="140" type="line" smooth="yes"/>
      <point x="363" y="101" type="line" smooth="yes"/>
      <point x="339" y="72" type="line" smooth="yes"/>
      <point x="299" y="54" type="line" smooth="yes"/>
      <point x="245" y="48" type="line" smooth="yes"/>
      <point x="184" y="57" type="line" smooth="yes"/>
      <point x="144" y="81" type="line" smooth="yes"/>
      <point x="123" y="120" type="line" smooth="yes"/>
      <point x="117" y="171" type="line" smooth="yes"/>
      <point x="47" y="171" type="line" smooth="yes"/>
      <point x="47" y="167" type="line" smooth="yes"/>
      <point x="58" y="95" type="line" smooth="yes"/>
      <point x="92" y="39" type="line" smooth="yes"/>
      <point x="153" y="2" type="line" smooth="yes"/>
      <point x="245" y="-11" type="line" smooth="yes"/>
      <point x="329" y="-0" type="line" smooth="yes"/>
      <point x="391" y="30" type="line" smooth="yes"/>
      <point x="430" y="78" type="line" smooth="yes"/>
      <point x="443" y="140" type="line" smooth="yes"/>
      <point x="443" y="146" type="line" smooth="yes"/>
      <point x="440" y="181" type="line" smooth="yes"/>
      <point x="429" y="212" type="line" smooth="yes"/>
      <point x="409" y="238" type="line" smooth="yes"/>
      <point x="380" y="260" type="line" smooth="yes"/>
      <point x="420" y="281" type="line" smooth="yes"/>
      <point x="448" y="310" type="line" smooth="yes"/>
      <point x="465" y="346" type="line" smooth="yes"/>
    </contour>
  </outline>
</glyph>
<glyph name="copyright" format="1">
  <advance width="920"/>
  <unicode hex="00A9"/>
  <outline>
    <contour>
      <point x="461" y="206" type="line" smooth="yes"/>
      <point x="396" y="221" type="line" smooth="yes"/>
      <point x="352" y="260" type="line" smooth="yes"/>
      <point x="328" y="315" type="line" smooth="yes"/>
      <point x="320" y="378" type="line" smooth="yes"/>
      <point x="320" y="402" type="line" smooth="yes"/>
      <point x="328" y="465" type="line" smooth="yes"/>
      <point x="352" y="520" type="line" smooth="yes"/>
      <point x="396" y="559" type="line" smooth="yes"/>
      <point x="461" y="574" type="line" smooth="yes"/>
      <point x="521" y="564" type="line" smooth="yes"/>
      <point x="559" y="538" type="line" smooth="yes"/>
      <point x="580" y="501" type="line" smooth="yes"/>
      <point x="586" y="459" type="line" smooth="yes"/>
      <point x="651" y="459" type="line" smooth="yes"/>
      <point x="651" y="476" type="line" smooth="yes"/>
      <point x="641" y="528" type="line" smooth="yes"/>
      <point x="609" y="580" type="line" smooth="yes"/>
      <point x="550" y="620" type="line" smooth="yes"/>
      <point x="460" y="636" type="line" smooth="yes"/>
      <point x="364" y="615" type="line" smooth="yes"/>
      <point x="299" y="560" type="line" smooth="yes"/>
      <point x="263" y="485" type="line" smooth="yes"/>
      <point x="252" y="402" type="line" smooth="yes"/>
      <point x="252" y="378" type="line" smooth="yes"/>
      <point x="263" y="295" type="line" smooth="yes"/>
      <point x="299" y="220" type="line" smooth="yes"/>
      <point x="364" y="165" type="line" smooth="yes"/>
      <point x="460" y="144" type="line" smooth="yes"/>
      <point x="550" y="159" type="line" smooth="yes"/>
      <point x="609" y="198" type="line" smooth="yes"/>
      <point x="641" y="248" type="line" smooth="yes"/>
      <point x="651" y="298" type="line" smooth="yes"/>
      <point x="651" y="311" type="line" smooth="yes"/>
      <point x="586" y="311" type="line" smooth="yes"/>
      <point x="580" y="276" type="line" smooth="yes"/>
      <point x="560" y="242" type="line" smooth="yes"/>
      <point x="522" y="216" type="line" smooth="yes"/>
    </contour>
    <contour>
      <point x="102" y="390" type="line" smooth="yes"/>
      <point x="130" y="529" type="line" smooth="yes"/>
      <point x="207" y="643" type="line" smooth="yes"/>
      <point x="321" y="720" type="line" smooth="yes"/>
      <point x="460" y="748" type="line" smooth="yes"/>
      <point x="599" y="720" type="line" smooth="yes"/>
      <point x="713" y="643" type="line" smooth="yes"/>
      <point x="790" y="529" type="line" smooth="yes"/>
      <point x="818" y="390" type="line" smooth="yes"/>
      <point x="790" y="251" type="line" smooth="yes"/>
      <point x="713" y="137" type="line" smooth="yes"/>
      <point x="599" y="60" type="line" smooth="yes"/>
      <point x="460" y="32" type="line" smooth="yes"/>
      <point x="321" y="60" type="line" smooth="yes"/>
      <point x="207" y="137" type="line" smooth="yes"/>
      <point x="130" y="251" type="line" smooth="yes"/>
    </contour>
    <contour>
      <point x="59" y="390" type="line" smooth="yes"/>
      <point x="91" y="234" type="line" smooth="yes"/>
      <point x="177" y="107" type="line" smooth="yes"/>
      <point x="304" y="21" type="line" smooth="yes"/>
      <point x="460" y="-11" type="line" smooth="yes"/>
      <point x="616" y="21" type="line" smooth="yes"/>
      <point x="743" y="107" type="line" smooth="yes"/>
      <point x="829" y="234" type="line" smooth="yes"/>
      <point x="861" y="390" type="line" smooth="yes"/>
      <point x="829" y="546" type="line" smooth="yes"/>
      <point x="743" y="673" type="line" smooth="yes"/>
      <point x="616" y="759" type="line" smooth="yes"/>
      <point x="460" y="791" type="line" smooth="yes"/>
      <point x="304" y="759" type="line" smooth="yes"/>
      <point x="177" y="673" type="line" smooth="yes"/>
      <point x="91" y="546" type="line" smooth="yes"/>
    </contour>
  </outline>
</glyph>
<glyph name="ordfeminine" format="1">
  <advance width="390"/>
  <unicode hex="00AA"/>
  <outline>
    <contour>
      <point x="352" y="212" type="line" smooth="yes"/>
      <point x="352" y="269" type="line" smooth="yes"/>
      <point x="47" y="269" type="line" smooth="yes"/>
      <point x="47" y="212" type="line" smooth="yes"/>
    </contour>
    <contour>
      <point x="172" y="433" type="line" smooth="yes"/>
      <point x="140" y="438" type="line" smooth="yes"/>
      <point x="118" y="452" type="line" smooth="yes"/>
      <point x="106" y="472" type="line" smooth="yes"/>
      <point x="102" y="495" type="line" smooth="yes"/>
      <point x="102" y="501" type="line" smooth="yes"/>
      <point x="107" y="529" type="line" smooth="yes"/>
      <point x="122" y="551" type="line" smooth="yes"/>
      <point x="146" y="566" type="line" smooth="yes"/>
      <point x="178" y="575" type="line" smooth="yes"/>
      <point x="284" y="592" type="line" smooth="yes"/>
      <point x="284" y="488" type="line" smooth="yes"/>
      <point x="269" y="471" type="line" smooth="yes"/>
      <point x="246" y="453" type="line" smooth="yes"/>
      <point x="214" y="439" type="line" smooth="yes"/>
    </contour>
    <contour>
      <point x="299" y="388" type="line" smooth="yes"/>
      <point x="352" y="388" type="line" smooth="yes"/>
      <point x="347" y="499" type="line" smooth="yes"/>
      <point x="347" y="644" type="line" smooth="yes"/>
      <point x="340" y="704" type="line" smooth="yes"/>
      <point x="316" y="751" type="line" smooth="yes"/>
      <point x="271" y="780" type="line" smooth="yes"/>
      <point x="200" y="791" type="line" smooth="yes"/>
      <point x="127" y="779" type="line" smooth="yes"/>
      <point x="82" y="748" type="line" smooth="yes"/>
      <point x="59" y="705" type="line" smooth="yes"/>
      <point x="53" y="659" type="line" smooth="yes"/>
      <point x="53" y="652" type="line" smooth="yes"/>
      <point x="114" y="652" type="line" smooth="yes"/>
      <point x="118" y="685" type="line" smooth="yes"/>
      <point x="131" y="713" type="line" smooth="yes"/>
      <point x="157" y="732" type="line" smooth="yes"/>
      <point x="199" y="739" type="line" smooth="yes"/>
      <point x="240" y="733" type="line" smooth="yes"/>
      <point x="266" y="715" type="line" smooth="yes"/>
      <point x="280" y="685" type="line" smooth="yes"/>
      <point x="284" y="644" type="line" smooth="yes"/>
      <point x="284" y="635" type="line" smooth="yes"/>
      <point x="170" y="618" type="line" smooth="yes"/>
      <point x="121" y="606" type="line" smooth="yes"/>
      <point x="79" y="585" type="line" smooth="yes"/>
      <point x="49" y="550" type="line" smooth="yes"/>
      <point x="38" y="496" type="line" smooth="yes"/>
      <point x="38" y="489" type="line" smooth="yes"/>
      <point x="46" y="445" type="line" smooth="yes"/>
      <point x="68" y="410" type="line" smooth="yes"/>
      <point x="104" y="387" type="line" smooth="yes"/>
      <point x="154" y="379" type="line" smooth="yes"/>
      <point x="200" y="384" type="line" smooth="yes"/>
      <point x="237" y="397" type="line" smooth="yes"/>
      <point x="267" y="417" type="line" smooth="yes"/>
      <point x="290" y="441" type="line" smooth="yes"/>
    </contour>
  </outline>
</glyph>
<glyph name="guillemotleft" format="1">
  <advance width="517"/>
  <unicode hex="00AB"/>
  <outline>
    <contour>
      <point x="467" y="524" type="line" smooth="yes"/>
      <point x="263" y="371" type="line" smooth="yes"/>
      <point x="263" y="309" type="line" smooth="yes"/>
      <point x="467" y="156" type="line" smooth="yes"/>
      <point x="467" y="226" type="line" smooth="yes"/>
      <point x="317" y="340" type="line" smooth="yes"/>
      <point x="467" y="454" type="line" smooth="yes"/>
    </contour>
    <contour>
      <point x="254" y="524" type="line" smooth="yes"/>
      <point x="50" y="371" type="line" smooth="yes"/>
      <point x="50" y="309" type="line" smooth="yes"/>
      <point x="254" y="156" type="line" smooth="yes"/>
      <point x="254" y="226" type="line" smooth="yes"/>
      <point x="105" y="340" type="line" smooth="yes"/>
      <point x="254" y="454" type="line" smooth="yes"/>
    </contour>
  </outline>
</glyph>
<glyph name="logicalnot" format="1">
  <advance width="600"/>
  <unicode hex="00AC"/>
  <outline>
    <contour>
      <point x="48" y="490" type="line" smooth="yes"/>
      <point x="486" y="490" type="line" smooth="yes"/>
      <point x="486" y="213" type="line" smooth="yes"/>
      <point x="552" y="213" type="line" smooth="yes"/>
      <point x="552" y="557" type="line" smooth="yes"/>
      <point x="48" y="557" type="line" smooth="yes"/>
    </contour>
  </outline>
</glyph>
<glyph name="degree" format="1">
  <advance width="400"/>
  <unicode hex="00B0"/>
  <outline>
    <contour>
      <point x="353" y="639" type="line" smooth="yes"/>
      <point x="341" y="702" type="line" smooth="yes"/>
      <point x="309" y="750" type="line" smooth="yes"/>
      <point x="261" y="780" type="line" smooth="yes"/>
      <point x="200" y="791" type="line" smooth="yes"/>
      <point x="139" y="780" type="line" smooth="yes"/>
      <point x="91" y="750" type="line" smooth="yes"/>
      <point x="59" y="702" type="line" smooth="yes"/>
      <point x="47" y="639" type="line" smooth="yes"/>
      <point x="47" y="635" type="line" smooth="yes"/>
      <point x="59" y="572" type="line" smooth="yes"/>
      <point x="91" y="524" type="line" smooth="yes"/>
      <point x="139" y="494" type="line" smooth="yes"/>
      <point x="200" y="484" type="line" smooth="yes"/>
      <point x="261" y="494" type="line" smooth="yes"/>
      <point x="309" y="524" type="line" smooth="yes"/>
      <point x="341" y="572" type="line" smooth="yes"/>
      <point x="353" y="635" type="line" smooth="yes"/>
    </contour>
    <contour>
      <point x="300" y="634" type="line" smooth="yes"/>
      <point x="292" y="594" type="line" smooth="yes"/>
      <point x="271" y="563" type="line" smooth="yes"/>
      <point x="241" y="544" type="line" smooth="yes"/>
      <point x="203" y="537" type="line" smooth="yes"/>
      <point x="197" y="537" type="line" smooth="yes"/>
      <point x="159" y="544" type="line" smooth="yes"/>
      <point x="129" y="563" type="line" smooth="yes"/>
      <point x="108" y="594" type="line" smooth="yes"/>
      <point x="100" y="634" type="line" smooth="yes"/>
      <point x="100" y="641" type="line" smooth="yes"/>
      <point x="108" y="681" type="line" smooth="yes"/>
      <point x="129" y="712" type="line" smooth="yes"/>
      <point x="159" y="730" type="line" smooth="yes"/>
      <point x="197" y="737" type="line" smooth="yes"/>
      <point x="203" y="737" type="line" smooth="yes"/>
      <point x="241" y="730" type="line" smooth="yes"/>
      <point x="271" y="712" type="line" smooth="yes"/>
      <point x="292" y="681" type="line" smooth="yes"/>
      <point x="300" y="641" type="line" smooth="yes"/>
    </contour>
  </outline>
</glyph>
<glyph name="twosuperior" format="1">
  <advance width="300"/>
  <unicode hex="00B2"/>
  <outline>
    <contour>
      <point x="275" y="442" type="line" smooth="yes"/>
      <point x="111" y="442" type="line" smooth="yes"/>
      <point x="230" y="571" type="line" smooth="yes"/>
      <point x="251" y="596" type="line" smooth="yes"/>
      <point x="265" y="619" type="line" smooth="yes"/>
      <point x="272" y="643" type="line" smooth="yes"/>
      <point x="275" y="672" type="line" smooth="yes"/>
      <point x="275" y="679" type="line" smooth="yes"/>
      <point x="268" y="720" type="line" smooth="yes"/>
      <point x="246" y="754" type="line" smooth="yes"/>
      <point x="207" y="777" type="line" smooth="yes"/>
      <point x="150" y="786" type="line" smooth="yes"/>
      <point x="94" y="778" type="line" smooth="yes"/>
      <point x="55" y="754" type="line" smooth="yes"/>
      <point x="32" y="715" type="line" smooth="yes"/>
      <point x="25" y="661" type="line" smooth="yes"/>
      <point x="25" y="650" type="line" smooth="yes"/>
      <point x="84" y="650" type="line" smooth="yes"/>
      <point x="88" y="688" type="line" smooth="yes"/>
      <point x="101" y="714" type="line" smooth="yes"/>
      <point x="121" y="728" type="line" smooth="yes"/>
      <point x="148" y="733" type="line" smooth="yes"/>
      <point x="151" y="733" type="line" smooth="yes"/>
      <point x="177" y="729" type="line" smooth="yes"/>
      <point x="197" y="716" type="line" smooth="yes"/>
      <point x="210" y="696" type="line" smooth="yes"/>
      <point x="215" y="669" type="line" smooth="yes"/>
      <point x="215" y="664" type="line" smooth="yes"/>
      <point x="213" y="647" type="line" smooth="yes"/>
      <point x="208" y="631" type="line" smooth="yes"/>
      <point x="198" y="616" type="line" smooth="yes"/>
      <point x="183" y="599" type="line" smooth="yes"/>
      <point x="25" y="427" type="line" smooth="yes"/>
      <point x="25" y="390" type="line" smooth="yes"/>
      <point x="275" y="390" type="line" smooth="yes"/>
    </contour>
  </outline>
</glyph>
<glyph name="threesuperior" format="1">
  <advance width="300"/>
  <unicode hex="00B3"/>
  <outline>
    <contour>
      <point x="82" y="515" type="line" smooth="yes"/>
      <point x="22" y="515" type="line" smooth="yes"/>
      <point x="22" y="508" type="line" smooth="yes"/>
      <point x="30" y="456" type="line" smooth="yes"/>
      <point x="54" y="416" type="line" smooth="yes"/>
      <point x="94" y="392" type="line" smooth="yes"/>
      <point x="150" y="383" type="line" smooth="yes"/>
      <point x="205" y="392" type="line" smooth="yes"/>
      <point x="245" y="417" type="line" smooth="yes"/>
      <point x="269" y="452" type="line" smooth="yes"/>
      <point x="277" y="492" type="line" smooth="yes"/>
      <point x="277" y="501" type="line" smooth="yes"/>
      <point x="273" y="532" type="line" smooth="yes"/>
      <point x="262" y="556" type="line" smooth="yes"/>
      <point x="245" y="575" type="line" smooth="yes"/>
      <point x="224" y="589" type="line" smooth="yes"/>
      <point x="244" y="602" type="line" smooth="yes"/>
      <point x="260" y="620" type="line" smooth="yes"/>
      <point x="271" y="644" type="line" smooth="yes"/>
      <point x="275" y="674" type="line" smooth="yes"/>
      <point x="275" y="682" type="line" smooth="yes"/>
      <point x="268" y="721" type="line" smooth="yes"/>
      <point x="246" y="754" type="line" smooth="yes"/>
      <point x="207" y="777" type="line" smooth="yes"/>
      <point x="150" y="786" type="line" smooth="yes"/>
      <point x="94" y="778" type="line" smooth="yes"/>
      <point x="55" y="754" type="line" smooth="yes"/>
      <point x="32" y="715" type="line" smooth="yes"/>
      <point x="25" y="661" type="line" smooth="yes"/>
      <point x="25" y="650" type="line" smooth="yes"/>
      <point x="84" y="650" type="line" smooth="yes"/>
      <point x="88" y="688" type="line" smooth="yes"/>
      <point x="100" y="714" type="line" smooth="yes"/>
      <point x="120" y="728" type="line" smooth="yes"/>
      <point x="147" y="733" type="line" smooth="yes"/>
      <point x="152" y="733" type="line" smooth="yes"/>
      <point x="177" y="729" type="line" smooth="yes"/>
      <point x="197" y="717" type="line" smooth="yes"/>
      <point x="210" y="699" type="line" smooth="yes"/>
      <point x="215" y="675" type="line" smooth="yes"/>
      <point x="215" y="671" type="line" smooth="yes"/>
      <point x="210" y="646" type="line" smooth="yes"/>
      <point x="198" y="629" type="line" smooth="yes"/>
      <point x="178" y="618" type="line" smooth="yes"/>
      <point x="153" y="615" type="line" smooth="yes"/>
      <point x="100" y="615" type="line" smooth="yes"/>
      <point x="100" y="563" type="line" smooth="yes"/>
      <point x="155" y="563" type="line" smooth="yes"/>
      <point x="180" y="559" type="line" smooth="yes"/>
      <point x="200" y="548" type="line" smooth="yes"/>
      <point x="213" y="530" type="line" smooth="yes"/>
      <point x="218" y="504" type="line" smooth="yes"/>
      <point x="218" y="497" type="line" smooth="yes"/>
      <point x="212" y="470" type="line" smooth="yes"/>
      <point x="198" y="451" type="line" smooth="yes"/>
      <point x="177" y="440" type="line" smooth="yes"/>
      <point x="152" y="436" type="line" smooth="yes"/>
      <point x="147" y="436" type="line" smooth="yes"/>
      <point x="120" y="440" type="line" smooth="yes"/>
      <point x="100" y="455" type="line" smooth="yes"/>
      <point x="87" y="479" type="line" smooth="yes"/>
    </contour>
  </outline>
</glyph>
<glyph name="acute" format="1">
  <advance width="500"/>
  <unicode hex="00B4"/>
  <outline>
    <contour>
      <point x="304" y="780" type="line" smooth="yes"/>
      <point x="214" y="614" type="line" smooth="yes"/>
      <point x="286" y="614" type="line" smooth="yes"/>
      <point x="380" y="780" type="line" smooth="yes"/>
    </contour>
  </outline>
</glyph>
<glyph name="paragraph" format="1">
  <advance width="513"/>
  <unicode hex="00B6"/>
  <outline>
    <contour>
      <point x="110" y="541" type="line" smooth="yes"/>
      <point x="110" y="556" type="line" smooth="yes"/>
      <point x="125" y="635" type="line" smooth="yes"/>
      <point x="162" y="683" type="line" smooth="yes"/>
      <point x="213" y="707" type="line" smooth="yes"/>
      <point x="265" y="715" type="line" smooth="yes"/>
      <point x="265" y="382" type="line" smooth="yes"/>
      <point x="213" y="390" type="line" smooth="yes"/>
      <point x="162" y="414" type="line" smooth="yes"/>
      <point x="125" y="462" type="line" smooth="yes"/>
    </contour>
    <contour>
      <point x="375" y="0" type="line" smooth="yes"/>
      <point x="447" y="0" type="line" smooth="yes"/>
      <point x="447" y="780" type="line" smooth="yes"/>
      <point x="275" y="780" type="line" smooth="yes"/>
      <point x="190" y="771" type="line" smooth="yes"/>
      <point x="114" y="737" type="line" smooth="yes"/>
      <point x="58" y="669" type="line" smooth="yes"/>
      <point x="36" y="558" type="line" smooth="yes"/>
      <point x="36" y="538" type="line" smooth="yes"/>
      <point x="56" y="430" type="line" smooth="yes"/>
      <point x="109" y="363" type="line" smooth="yes"/>
      <point x="183" y="328" type="line" smooth="yes"/>
      <point x="265" y="317" type="line" smooth="yes"/>
      <point x="265" y="0" type="line" smooth="yes"/>
      <point x="335" y="0" type="line" smooth="yes"/>
      <point x="335" y="715" type="line" smooth="yes"/>
      <point x="375" y="715" type="line" smooth="yes"/>
    </contour>
  </outline>
</glyph>
<glyph name="cedilla" format="1">
  <advance width="602"/>
  <unicode hex="00B8"/>
  <outline>
    <contour>
      <point x="162" y="-191" type="line" smooth="yes"/>
      <point x="180" y="-200" type="line" smooth="yes"/>
      <point x="202" y="-206" type="line" smooth="yes"/>
      <point x="227" y="-210" type="line" smooth="yes"/>
      <point x="254" y="-211" type="line" smooth="yes"/>
      <point x="296" y="-207" type="line" smooth="yes"/>
      <point x="328" y="-193" type="line" smooth="yes"/>
      <point x="349" y="-169" type="line" smooth="yes"/>
      <point x="357" y="-133" type="line" smooth="yes"/>
      <point x="348" y="-97" type="line" smooth="yes"/>
      <point x="325" y="-74" type="line" smooth="yes"/>
      <point x="293" y="-60" type="line" smooth="yes"/>
      <point x="257" y="-56" type="line" smooth="yes"/>
      <point x="253" y="-56" type="line" smooth="yes"/>
      <point x="274" y="0" type="line" smooth="yes"/>
      <point x="226" y="0" type="line" smooth="yes"/>
      <point x="195" y="-80" type="line" smooth="yes"/>
      <point x="214" y="-103" type="line" smooth="yes"/>
      <point x="216" y="-103" type="line" smooth="yes"/>
      <point x="223" y="-102" type="line" smooth="yes"/>
      <point x="232" y="-100" type="line" smooth="yes"/>
      <point x="243" y="-100" type="line" smooth="yes"/>
      <point x="269" y="-102" type="line" smooth="yes"/>
      <point x="288" y="-107" type="line" smooth="yes"/>
      <point x="301" y="-116" type="line" smooth="yes"/>
      <point x="305" y="-131" type="line" smooth="yes"/>
      <point x="301" y="-146" type="line" smooth="yes"/>
      <point x="291" y="-156" type="line" smooth="yes"/>
      <point x="273" y="-161" type="line" smooth="yes"/>
      <point x="247" y="-162" type="line" smooth="yes"/>
      <point x="227" y="-161" type="line" smooth="yes"/>
      <point x="209" y="-158" type="line" smooth="yes"/>
      <point x="191" y="-153" type="line" smooth="yes"/>
      <point x="177" y="-147" type="line" smooth="yes"/>
    </contour>
  </outline>
</glyph>
<glyph name="onesuperior" format="1">
  <advance width="300"/>
  <unicode hex="00B9"/>
  <outline>
    <contour>
      <point x="277" y="390" type="line" smooth="yes"/>
      <point x="277" y="442" type="line" smooth="yes"/>
      <point x="185" y="442" type="line" smooth="yes"/>
      <point x="185" y="781" type="line" smooth="yes"/>
      <point x="142" y="781" type="line" smooth="yes"/>
      <point x="20" y="698" type="line" smooth="yes"/>
      <point x="49" y="654" type="line" smooth="yes"/>
      <point x="125" y="705" type="line" smooth="yes"/>
      <point x="125" y="442" type="line" smooth="yes"/>
      <point x="32" y="442" type="line" smooth="yes"/>
      <point x="32" y="390" type="line" smooth="yes"/>
    </contour>
  </outline>
</glyph>
<glyph name="ordmasculine" format="1">
  <advance width="418"/>
  <unicode hex="00BA"/>
  <outline>
    <contour>
      <point x="48" y="212" type="line" smooth="yes"/>
      <point x="371" y="212" type="line" smooth="yes"/>
      <point x="371" y="269" type="line" smooth="yes"/>
      <point x="48" y="269" type="line" smooth="yes"/>
    </contour>
    <contour>
      <point x="104" y="575" type="line" smooth="yes"/>
      <point x="104" y="595" type="line" smooth="yes"/>
      <point x="110" y="653" type="line" smooth="yes"/>
      <point x="129" y="697" type="line" smooth="yes"/>
      <point x="162" y="725" type="line" smooth="yes"/>
      <point x="209" y="735" type="line" smooth="yes"/>
      <point x="256" y="725" type="line" smooth="yes"/>
      <point x="289" y="697" type="line" smooth="yes"/>
      <point x="308" y="653" type="line" smooth="yes"/>
      <point x="314" y="595" type="line" smooth="yes"/>
      <point x="314" y="575" type="line" smooth="yes"/>
      <point x="308" y="518" type="line" smooth="yes"/>
      <point x="289" y="474" type="line" smooth="yes"/>
      <point x="256" y="445" type="line" smooth="yes"/>
      <point x="209" y="435" type="line" smooth="yes"/>
      <point x="162" y="445" type="line" smooth="yes"/>
      <point x="129" y="474" type="line" smooth="yes"/>
      <point x="110" y="518" type="line" smooth="yes"/>
    </contour>
    <contour>
      <point x="378" y="575" type="line" smooth="yes"/>
      <point x="378" y="595" type="line" smooth="yes"/>
      <point x="368" y="672" type="line" smooth="yes"/>
      <point x="338" y="735" type="line" smooth="yes"/>
      <point x="285" y="776" type="line" smooth="yes"/>
      <point x="209" y="791" type="line" smooth="yes"/>
      <point x="133" y="776" type="line" smooth="yes"/>
      <point x="81" y="735" type="line" smooth="yes"/>
      <point x="50" y="672" type="line" smooth="yes"/>
      <point x="40" y="595" type="line" smooth="yes"/>
      <point x="40" y="575" type="line" smooth="yes"/>
      <point x="50" y="498" type="line" smooth="yes"/>
      <point x="81" y="436" type="line" smooth="yes"/>
      <point x="133" y="394" type="line" smooth="yes"/>
      <point x="209" y="379" type="line" smooth="yes"/>
      <point x="285" y="394" type="line" smooth="yes"/>
      <point x="338" y="436" type="line" smooth="yes"/>
      <point x="368" y="498" type="line" smooth="yes"/>
    </contour>
  </outline>
</glyph>
<glyph name="guillemotright" format="1">
  <advance width="517"/>
  <unicode hex="00BB"/>
  <outline>
    <contour>
      <point x="50" y="454" type="line" smooth="yes"/>
      <point x="199" y="340" type="line" smooth="yes"/>
      <point x="50" y="226" type="line" smooth="yes"/>
      <point x="50" y="156" type="line" smooth="yes"/>
      <point x="254" y="309" type="line" smooth="yes"/>
      <point x="254" y="371" type="line" smooth="yes"/>
      <point x="50" y="524" type="line" smooth="yes"/>
    </contour>
    <contour>
      <point x="263" y="454" type="line" smooth="yes"/>
      <point x="411" y="340" type="line" smooth="yes"/>
      <point x="263" y="226" type="line" smooth="yes"/>
      <point x="263" y="156" type="line" smooth="yes"/>
      <point x="467" y="309" type="line" smooth="yes"/>
      <point x="467" y="371" type="line" smooth="yes"/>
      <point x="263" y="524" type="line" smooth="yes"/>
    </contour>
  </outline>
</glyph>
<glyph name="onehalf" format="1">
  <advance width="800"/>
  <unicode hex="00BD"/>
  <outline>
    <contour>
      <point x="277" y="390" type="line" smooth="yes"/>
      <point x="277" y="442" type="line" smooth="yes"/>
      <point x="185" y="442" type="line" smooth="yes"/>
      <point x="185" y="781" type="line" smooth="yes"/>
      <point x="142" y="781" type="line" smooth="yes"/>
      <point x="20" y="698" type="line" smooth="yes"/>
      <point x="49" y="654" type="line" smooth="yes"/>
      <point x="125" y="705" type="line" smooth="yes"/>
      <point x="125" y="442" type="line" smooth="yes"/>
      <point x="32" y="442" type="line" smooth="yes"/>
      <point x="32" y="390" type="line" smooth="yes"/>
    </contour>
    <contour>
      <point x="775" y="52" type="line" smooth="yes"/>
      <point x="611" y="52" type="line" smooth="yes"/>
      <point x="730" y="181" type="line" smooth="yes"/>
      <point x="751" y="206" type="line" smooth="yes"/>
      <point x="765" y="229" type="line" smooth="yes"/>
      <point x="772" y="253" type="line" smooth="yes"/>
      <point x="775" y="282" type="line" smooth="yes"/>
      <point x="775" y="289" type="line" smooth="yes"/>
      <point x="768" y="330" type="line" smooth="yes"/>
      <point x="746" y="364" type="line" smooth="yes"/>
      <point x="707" y="387" type="line" smooth="yes"/>
      <point x="650" y="396" type="line" smooth="yes"/>
      <point x="594" y="388" type="line" smooth="yes"/>
      <point x="555" y="364" type="line" smooth="yes"/>
      <point x="532" y="325" type="line" smooth="yes"/>
      <point x="525" y="271" type="line" smooth="yes"/>
      <point x="525" y="260" type="line" smooth="yes"/>
      <point x="584" y="260" type="line" smooth="yes"/>
      <point x="588" y="298" type="line" smooth="yes"/>
      <point x="601" y="324" type="line" smooth="yes"/>
      <point x="621" y="338" type="line" smooth="yes"/>
      <point x="648" y="343" type="line" smooth="yes"/>
      <point x="651" y="343" type="line" smooth="yes"/>
      <point x="677" y="339" type="line" smooth="yes"/>
      <point x="697" y="326" type="line" smooth="yes"/>
      <point x="710" y="306" type="line" smooth="yes"/>
      <point x="715" y="279" type="line" smooth="yes"/>
      <point x="715" y="274" type="line" smooth="yes"/>
      <point x="713" y="257" type="line" smooth="yes"/>
      <point x="708" y="241" type="line" smooth="yes"/>
      <point x="698" y="226" type="line" smooth="yes"/>
      <point x="683" y="209" type="line" smooth="yes"/>
      <point x="525" y="37" type="line" smooth="yes"/>
      <point x="525" y="0" type="line" smooth="yes"/>
      <point x="775" y="0" type="line" smooth="yes"/>
    </contour>
    <contour>
      <point x="144" y="0" type="line" smooth="yes"/>
      <point x="720" y="780" type="line" smooth="yes"/>
      <point x="656" y="780" type="line" smooth="yes"/>
      <point x="80" y="0" type="line" smooth="yes"/>
    </contour>
  </outline>
</glyph>
<glyph name="questiondown" format="1">
  <advance width="455"/>
  <unicode hex="00BF"/>
  <outline>
    <contour>
      <point x="184" y="440" type="line" smooth="yes"/>
      <point x="274" y="440" type="line" smooth="yes"/>
      <point x="274" y="530" type="line" smooth="yes"/>
      <point x="184" y="530" type="line" smooth="yes"/>
    </contour>
    <contour>
      <point x="224" y="-146" type="line" smooth="yes"/>
      <point x="168" y="-137" type="line" smooth="yes"/>
      <point x="130" y="-113" type="line" smooth="yes"/>
      <point x="108" y="-73" type="line" smooth="yes"/>
      <point x="101" y="-22" type="line" smooth="yes"/>
      <point x="126" y="68" type="line" smooth="yes"/>
      <point x="179" y="145" type="line" smooth="yes"/>
      <point x="231" y="229" type="line" smooth="yes"/>
      <point x="252" y="341" type="line" smooth="yes"/>
      <point x="205" y="341" type="line" smooth="yes"/>
      <point x="174" y="237" type="line" smooth="yes"/>
      <point x="114" y="164" type="line" smooth="yes"/>
      <point x="55" y="88" type="line" smooth="yes"/>
      <point x="28" y="-29" type="line" smooth="yes"/>
      <point x="40" y="-103" type="line" smooth="yes"/>
      <point x="77" y="-161" type="line" smooth="yes"/>
      <point x="138" y="-198" type="line" smooth="yes"/>
      <point x="224" y="-211" type="line" smooth="yes"/>
      <point x="325" y="-191" type="line" smooth="yes"/>
      <point x="388" y="-137" type="line" smooth="yes"/>
      <point x="420" y="-54" type="line" smooth="yes"/>
      <point x="429" y="48" type="line" smooth="yes"/>
      <point x="429" y="60" type="line" smooth="yes"/>
      <point x="357" y="60" type="line" smooth="yes"/>
      <point x="351" y="-26" type="line" smooth="yes"/>
      <point x="330" y="-91" type="line" smooth="yes"/>
      <point x="289" y="-132" type="line" smooth="yes"/>
    </contour>
  </outline>
</glyph>
<glyph name="Agrave" format="1">
  <advance width="611"/>
  <unicode hex="00C0"/>
  <outline>
    <contour>
      <point x="207" y="950" type="line" smooth="yes"/>
      <point x="269" y="840" type="line" smooth="yes"/>
      <point x="341" y="840" type="line" smooth="yes"/>
      <point x="281" y="950" type="line" smooth="yes"/>
    </contour>
    <contour>
      <point x="305" y="709" type="line" smooth="yes"/>
      <point x="429" y="265" type="line" smooth="yes"/>
      <point x="181" y="265" type="line" smooth="yes"/>
    </contour>
    <contour>
      <point x="254" y="788" type="line" smooth="yes"/>
      <point x="29" y="0" type="line" smooth="yes"/>
      <point x="107" y="0" type="line" smooth="yes"/>
      <point x="163" y="200" type="line" smooth="yes"/>
      <point x="448" y="200" type="line" smooth="yes"/>
      <point x="504" y="0" type="line" smooth="yes"/>
      <point x="582" y="0" type="line" smooth="yes"/>
      <point x="357" y="788" type="line" smooth="yes"/>
    </contour>
  </outline>
</glyph>
<glyph name="Acircumflex" format="1">
  <advance width="611"/>
  <unicode hex="00C2"/>
  <outline>
    <contour>
      <point x="237" y="840" type="line" smooth="yes"/>
      <point x="305" y="906" type="line" smooth="yes"/>
      <point x="373" y="840" type="line" smooth="yes"/>
      <point x="443" y="840" type="line" smooth="yes"/>
      <point x="337" y="950" type="line" smooth="yes"/>
      <point x="273" y="950" type="line" smooth="yes"/>
      <point x="167" y="840" type="line" smooth="yes"/>
    </contour>
    <contour>
      <point x="305" y="709" type="line" smooth="yes"/>
      <point x="429" y="265" type="line" smooth="yes"/>
      <point x="181" y="265" type="line" smooth="yes"/>
    </contour>
    <contour>
      <point x="254" y="788" type="line" smooth="yes"/>
      <point x="29" y="0" type="line" smooth="yes"/>
      <point x="107" y="0" type="line" smooth="yes"/>
      <point x="163" y="200" type="line" smooth="yes"/>
      <point x="448" y="200" type="line" smooth="yes"/>
      <point x="504" y="0" type="line" smooth="yes"/>
      <point x="582" y="0" type="line" smooth="yes"/>
      <point x="357" y="788" type="line" smooth="yes"/>
    </contour>
  </outline>
</glyph>
<glyph name="Aring" format="1">
  <advance width="611"/>
  <unicode hex="00C5"/>
  <outline>
    <contour>
      <point x="249" y="867" type="line" smooth="yes"/>
      <point x="253" y="889" type="line" smooth="yes"/>
      <point x="265" y="907" type="line" smooth="yes"/>
      <point x="283" y="919" type="line" smooth="yes"/>
      <point x="305" y="923" type="line" smooth="yes"/>
      <point x="327" y="919" type="line" smooth="yes"/>
      <point x="345" y="907" type="line" smooth="yes"/>
      <point x="357" y="889" type="line" smooth="yes"/>
      <point x="361" y="867" type="line" smooth="yes"/>
      <point x="357" y="845" type="line" smooth="yes"/>
      <point x="345" y="827" type="line" smooth="yes"/>
      <point x="327" y="815" type="line" smooth="yes"/>
      <point x="305" y="811" type="line" smooth="yes"/>
      <point x="283" y="815" type="line" smooth="yes"/>
      <point x="265" y="827" type="line" smooth="yes"/>
      <point x="253" y="845" type="line" smooth="yes"/>
    </contour>
    <contour>
      <point x="305" y="709" type="line" smooth="yes"/>
      <point x="429" y="265" type="line" smooth="yes"/>
      <point x="181" y="265" type="line" smooth="yes"/>
    </contour>
    <contour>
      <point x="211" y="867" type="line" smooth="yes"/>
      <point x="214" y="843" type="line" smooth="yes"/>
      <point x="223" y="821" type="line" smooth="yes"/>
      <point x="236" y="802" type="line" smooth="yes"/>
      <point x="254" y="788" type="line" smooth="yes"/>
      <point x="29" y="0" type="line" smooth="yes"/>
      <point x="107" y="0" type="line" smooth="yes"/>
      <point x="163" y="200" type="line" smooth="yes"/>
      <point x="448" y="200" type="line" smooth="yes"/>
      <point x="504" y="0" type="line" smooth="yes"/>
      <point x="582" y="0" type="line" smooth="yes"/>
      <point x="357" y="788" type="line" smooth="yes"/>
      <point x="356" y="788" type="line" smooth="yes"/>
      <point x="374" y="802" type="line" smooth="yes"/>
      <point x="387" y="821" type="line" smooth="yes"/>
      <point x="396" y="843" type="line" smooth="yes"/>
      <point x="399" y="867" type="line" smooth="yes"/>
      <point x="392" y="904" type="line" smooth="yes"/>
      <point x="372" y="934" type="line" smooth="yes"/>
      <point x="342" y="954" type="line" smooth="yes"/>
      <point x="305" y="961" type="line" smooth="yes"/>
      <point x="268" y="954" type="line" smooth="yes"/>
      <point x="239" y="934" type="line" smooth="yes"/>
      <point x="218" y="904" type="line" smooth="yes"/>
    </contour>
  </outline>
</glyph>
<glyph name="Ccedilla" format="1">
  <advance width="618"/>
  <unicode hex="00C7"/>
  <outline>
    <contour>
      <point x="240" y="-191" type="line" smooth="yes"/>
      <point x="258" y="-200" type="line" smooth="yes"/>
      <point x="280" y="-206" type="line" smooth="yes"/>
      <point x="305" y="-210" type="line" smooth="yes"/>
      <point x="332" y="-211" type="line" smooth="yes"/>
      <point x="374" y="-207" type="line" smooth="yes"/>
      <point x="406" y="-193" type="line" smooth="yes"/>
      <point x="427" y="-169" type="line" smooth="yes"/>
      <point x="435" y="-133" type="line" smooth="yes"/>
      <point x="426" y="-97" type="line" smooth="yes"/>
      <point x="403" y="-74" type="line" smooth="yes"/>
      <point x="371" y="-60" type="line" smooth="yes"/>
      <point x="335" y="-56" type="line" smooth="yes"/>
      <point x="331" y="-56" type="line" smooth="yes"/>
      <point x="348" y="-10" type="line" smooth="yes"/>
      <point x="445" y="12" type="line" smooth="yes"/>
      <point x="514" y="62" type="line" smooth="yes"/>
      <point x="554" y="140" type="line" smooth="yes"/>
      <point x="568" y="244" type="line" smooth="yes"/>
      <point x="568" y="254" type="line" smooth="yes"/>
      <point x="494" y="254" type="line" smooth="yes"/>
      <point x="485" y="168" type="line" smooth="yes"/>
      <point x="455" y="106" type="line" smooth="yes"/>
      <point x="403" y="67" type="line" smooth="yes"/>
      <point x="328" y="54" type="line" smooth="yes"/>
      <point x="321" y="54" type="line" smooth="yes"/>
      <point x="236" y="72" type="line" smooth="yes"/>
      <point x="177" y="129" type="line" smooth="yes"/>
      <point x="142" y="227" type="line" smooth="yes"/>
      <point x="131" y="370" type="line" smooth="yes"/>
      <point x="131" y="410" type="line" smooth="yes"/>
      <point x="142" y="553" type="line" smooth="yes"/>
      <point x="177" y="651" type="line" smooth="yes"/>
      <point x="236" y="708" type="line" smooth="yes"/>
      <point x="321" y="726" type="line" smooth="yes"/>
      <point x="328" y="726" type="line" smooth="yes"/>
      <point x="403" y="713" type="line" smooth="yes"/>
      <point x="455" y="671" type="line" smooth="yes"/>
      <point x="485" y="600" type="line" smooth="yes"/>
      <point x="494" y="496" type="line" smooth="yes"/>
      <point x="568" y="496" type="line" smooth="yes"/>
      <point x="568" y="524" type="line" smooth="yes"/>
      <point x="553" y="640" type="line" smooth="yes"/>
      <point x="507" y="724" type="line" smooth="yes"/>
      <point x="430" y="774" type="line" smooth="yes"/>
      <point x="322" y="791" type="line" smooth="yes"/>
      <point x="205" y="769" type="line" smooth="yes"/>
      <point x="122" y="702" type="line" smooth="yes"/>
      <point x="73" y="583" type="line" smooth="yes"/>
      <point x="57" y="410" type="line" smooth="yes"/>
      <point x="57" y="370" type="line" smooth="yes"/>
      <point x="72" y="203" type="line" smooth="yes"/>
      <point x="117" y="86" type="line" smooth="yes"/>
      <point x="193" y="17" type="line" smooth="yes"/>
      <point x="300" y="-10" type="line" smooth="yes"/>
      <point x="273" y="-80" type="line" smooth="yes"/>
      <point x="292" y="-103" type="line" smooth="yes"/>
      <point x="294" y="-103" type="line" smooth="yes"/>
      <point x="301" y="-102" type="line" smooth="yes"/>
      <point x="310" y="-100" type="line" smooth="yes"/>
      <point x="321" y="-100" type="line" smooth="yes"/>
      <point x="347" y="-102" type="line" smooth="yes"/>
      <point x="366" y="-107" type="line" smooth="yes"/>
      <point x="379" y="-116" type="line" smooth="yes"/>
      <point x="383" y="-131" type="line" smooth="yes"/>
      <point x="379" y="-146" type="line" smooth="yes"/>
      <point x="369" y="-156" type="line" smooth="yes"/>
      <point x="351" y="-161" type="line" smooth="yes"/>
      <point x="325" y="-162" type="line" smooth="yes"/>
      <point x="305" y="-161" type="line" smooth="yes"/>
      <point x="287" y="-158" type="line" smooth="yes"/>
      <point x="269" y="-153" type="line" smooth="yes"/>
      <point x="255" y="-147" type="line" smooth="yes"/>
    </contour>
  </outline>
</glyph>
<glyph name="Ntilde" format="1">
  <advance width="659"/>
  <unicode hex="00D1"/>
  <outline>
    <contour>
      <point x="431" y="936" type="line" smooth="yes"/>
      <point x="428" y="915" type="line" smooth="yes"/>
      <point x="420" y="902" type="line" smooth="yes"/>
      <point x="408" y="895" type="line" smooth="yes"/>
      <point x="394" y="893" type="line" smooth="yes"/>
      <point x="365" y="901" type="line" smooth="yes"/>
      <point x="334" y="920" type="line" smooth="yes"/>
      <point x="298" y="939" type="line" smooth="yes"/>
      <point x="256" y="947" type="line" smooth="yes"/>
      <point x="224" y="942" type="line" smooth="yes"/>
      <point x="199" y="925" type="line" smooth="yes"/>
      <point x="183" y="896" type="line" smooth="yes"/>
      <point x="177" y="854" type="line" smooth="yes"/>
      <point x="227" y="854" type="line" smooth="yes"/>
      <point x="230" y="875" type="line" smooth="yes"/>
      <point x="238" y="888" type="line" smooth="yes"/>
      <point x="250" y="895" type="line" smooth="yes"/>
      <point x="264" y="897" type="line" smooth="yes"/>
      <point x="293" y="889" type="line" smooth="yes"/>
      <point x="324" y="870" type="line" smooth="yes"/>
      <point x="360" y="851" type="line" smooth="yes"/>
      <point x="402" y="843" type="line" smooth="yes"/>
      <point x="434" y="848" type="line" smooth="yes"/>
      <point x="459" y="865" type="line" smooth="yes"/>
      <point x="475" y="894" type="line" smooth="yes"/>
      <point x="481" y="936" type="line" smooth="yes"/>
    </contour>
    <contour>
      <point x="585" y="780" type="line" smooth="yes"/>
      <point x="517" y="780" type="line" smooth="yes"/>
      <point x="517" y="303" type="line" smooth="yes"/>
      <point x="520" y="122" type="line" smooth="yes"/>
      <point x="152" y="780" type="line" smooth="yes"/>
      <point x="74" y="780" type="line" smooth="yes"/>
      <point x="74" y="0" type="line" smooth="yes"/>
      <point x="142" y="0" type="line" smooth="yes"/>
      <point x="142" y="477" type="line" smooth="yes"/>
      <point x="138" y="658" type="line" smooth="yes"/>
      <point x="507" y="0" type="line" smooth="yes"/>
      <point x="585" y="0" type="line" smooth="yes"/>
    </contour>
  </outline>
</glyph>
<glyph name="Oacute" format="1">
  <advance width="649"/>
  <unicode hex="00D3"/>
  <outline>
    <contour>
      <point x="348" y="950" type="line" smooth="yes"/>
      <point x="288" y="840" type="line" smooth="yes"/>
      <point x="360" y="840" type="line" smooth="yes"/>
      <point x="422" y="950" type="line" smooth="yes"/>
    </contour>
    <contour>
      <point x="321" y="54" type="line" smooth="yes"/>
      <point x="236" y="72" type="line" smooth="yes"/>
      <point x="177" y="129" type="line" smooth="yes"/>
      <point x="142" y="227" type="line" smooth="yes"/>
      <point x="131" y="370" type="line" smooth="yes"/>
      <point x="131" y="410" type="line" smooth="yes"/>
      <point x="142" y="553" type="line" smooth="yes"/>
      <point x="177" y="651" type="line" smooth="yes"/>
      <point x="236" y="708" type="line" smooth="yes"/>
      <point x="321" y="726" type="line" smooth="yes"/>
      <point x="328" y="726" type="line" smooth="yes"/>
      <point x="413" y="708" type="line" smooth="yes"/>
      <point x="472" y="651" type="line" smooth="yes"/>
      <point x="507" y="553" type="line" smooth="yes"/>
      <point x="518" y="410" type="line" smooth="yes"/>
      <point x="518" y="370" type="line" smooth="yes"/>
      <point x="507" y="227" type="line" smooth="yes"/>
      <point x="472" y="129" type="line" smooth="yes"/>
      <point x="413" y="72" type="line" smooth="yes"/>
      <point x="328" y="54" type="line" smooth="yes"/>
    </contour>
    <contour>
      <point x="324" y="-11" type="line" smooth="yes"/>
      <point x="441" y="11" type="line" smooth="yes"/>
      <point x="525" y="78" type="line" smooth="yes"/>
      <point x="575" y="197" type="line" smooth="yes"/>
      <point x="592" y="370" type="line" smooth="yes"/>
      <point x="592" y="410" type="line" smooth="yes"/>
      <point x="575" y="583" type="line" smooth="yes"/>
      <point x="525" y="702" type="line" smooth="yes"/>
      <point x="441" y="769" type="line" smooth="yes"/>
      <point x="324" y="791" type="line" smooth="yes"/>
      <point x="207" y="769" type="line" smooth="yes"/>
      <point x="124" y="702" type="line" smooth="yes"/>
      <point x="74" y="583" type="line" smooth="yes"/>
      <point x="57" y="410" type="line" smooth="yes"/>
      <point x="57" y="370" type="line" smooth="yes"/>
      <point x="74" y="197" type="line" smooth="yes"/>
      <point x="124" y="78" type="line" smooth="yes"/>
      <point x="207" y="11" type="line" smooth="yes"/>
    </contour>
  </outline>
</glyph>
<glyph name="Otilde" format="1">
  <advance width="649"/>
  <unicode hex="00D5"/>
  <outline>
    <contour>
      <point x="426" y="936" type="line" smooth="yes"/>
      <point x="423" y="915" type="line" smooth="yes"/>
      <point x="415" y="902" type="line" smooth="yes"/>
      <point x="403" y="895" type="line" smooth="yes"/>
      <point x="389" y="893" type="line" smooth="yes"/>
      <point x="360" y="901" type="line" smooth="yes"/>
      <point x="329" y="920" type="line" smooth="yes"/>
      <point x="293" y="939" type="line" smooth="yes"/>
      <point x="251" y="947" type="line" smooth="yes"/>
      <point x="219" y="942" type="line" smooth="yes"/>
      <point x="194" y="925" type="line" smooth="yes"/>
      <point x="178" y="896" type="line" smooth="yes"/>
      <point x="172" y="854" type="line" smooth="yes"/>
      <point x="222" y="854" type="line" smooth="yes"/>
      <point x="225" y="875" type="line" smooth="yes"/>
      <point x="233" y="888" type="line" smooth="yes"/>
      <point x="245" y="895" type="line" smooth="yes"/>
      <point x="259" y="897" type="line" smooth="yes"/>
      <point x="288" y="889" type="line" smooth="yes"/>
      <point x="319" y="870" type="line" smooth="yes"/>
      <point x="355" y="851" type="line" smooth="yes"/>
      <point x="397" y="843" type="line" smooth="yes"/>
      <point x="429" y="848" type="line" smooth="yes"/>
      <point x="454" y="865" type="line" smooth="yes"/>
      <point x="470" y="894" type="line" smooth="yes"/>
      <point x="476" y="936" type="line" smooth="yes"/>
    </contour>
    <contour>
      <point x="321" y="54" type="line" smooth="yes"/>
      <point x="236" y="72" type="line" smooth="yes"/>
      <point x="177" y="129" type="line" smooth="yes"/>
      <point x="142" y="227" type="line" smooth="yes"/>
      <point x="131" y="370" type="line" smooth="yes"/>
      <point x="131" y="410" type="line" smooth="yes"/>
      <point x="142" y="553" type="line" smooth="yes"/>
      <point x="177" y="651" type="line" smooth="yes"/>
      <point x="236" y="708" type="line" smooth="yes"/>
      <point x="321" y="726" type="line" smooth="yes"/>
      <point x="328" y="726" type="line" smooth="yes"/>
      <point x="413" y="708" type="line" smooth="yes"/>
      <point x="472" y="651" type="line" smooth="yes"/>
      <point x="507" y="553" type="line" smooth="yes"/>
      <point x="518" y="410" type="line" smooth="yes"/>
      <point x="518" y="370" type="line" smooth="yes"/>
      <point x="507" y="227" type="line" smooth="yes"/>
      <point x="472" y="129" type="line" smooth="yes"/>
      <point x="413" y="72" type="line" smooth="yes"/>
      <point x="328" y="54" type="line" smooth="yes"/>
    </contour>
    <contour>
      <point x="324" y="-11" type="line" smooth="yes"/>
      <point x="441" y="11" type="line" smooth="yes"/>
      <point x="525" y="78" type="line" smooth="yes"/>
      <point x="575" y="197" type="line" smooth="yes"/>
      <point x="592" y="370" type="line" smooth="yes"/>
      <point x="592" y="410" type="line" smooth="yes"/>
      <point x="575" y="583" type="line" smooth="yes"/>
      <point x="525" y="702" type="line" smooth="yes"/>
      <point x="441" y="769" type="line" smooth="yes"/>
      <point x="324" y="791" type="line" smooth="yes"/>
      <point x="207" y="769" type="line" smooth="yes"/>
      <point x="124" y="702" type="line" smooth="yes"/>
      <point x="74" y="583" type="line" smooth="yes"/>
      <point x="57" y="410" type="line" smooth="yes"/>
      <point x="57" y="370" type="line" smooth="yes"/>
      <point x="74" y="197" type="line" smooth="yes"/>
      <point x="124" y="78" type="line" smooth="yes"/>
      <point x="207" y="11" type="line" smooth="yes"/>
    </contour>
  </outline>
</glyph>
<glyph name="Oslash" format="1">
  <advance width="638"/>
  <unicode hex="00D8"/>
  <outline>
    <contour>
      <point x="131" y="370" type="line" smooth="yes"/>
      <point x="131" y="410" type="line" smooth="yes"/>
      <point x="142" y="553" type="line" smooth="yes"/>
      <point x="177" y="651" type="line" smooth="yes"/>
      <point x="236" y="708" type="line" smooth="yes"/>
      <point x="321" y="726" type="line" smooth="yes"/>
      <point x="328" y="726" type="line" smooth="yes"/>
      <point x="368" y="723" type="line" smooth="yes"/>
      <point x="404" y="712" type="line" smooth="yes"/>
      <point x="434" y="694" type="line" smooth="yes"/>
      <point x="460" y="668" type="line" smooth="yes"/>
      <point x="157" y="170" type="line" smooth="yes"/>
      <point x="145" y="210" type="line" smooth="yes"/>
      <point x="137" y="257" type="line" smooth="yes"/>
      <point x="133" y="310" type="line" smooth="yes"/>
    </contour>
    <contour>
      <point x="518" y="410" type="line" smooth="yes"/>
      <point x="518" y="370" type="line" smooth="yes"/>
      <point x="507" y="227" type="line" smooth="yes"/>
      <point x="472" y="129" type="line" smooth="yes"/>
      <point x="413" y="72" type="line" smooth="yes"/>
      <point x="328" y="54" type="line" smooth="yes"/>
      <point x="321" y="54" type="line" smooth="yes"/>
      <point x="278" y="58" type="line" smooth="yes"/>
      <point x="241" y="70" type="line" smooth="yes"/>
      <point x="209" y="89" type="line" smooth="yes"/>
      <point x="183" y="118" type="line" smooth="yes"/>
      <point x="488" y="619" type="line" smooth="yes"/>
      <point x="501" y="578" type="line" smooth="yes"/>
      <point x="511" y="530" type="line" smooth="yes"/>
      <point x="516" y="474" type="line" smooth="yes"/>
    </contour>
    <contour>
      <point x="57" y="410" type="line" smooth="yes"/>
      <point x="57" y="370" type="line" smooth="yes"/>
      <point x="60" y="284" type="line" smooth="yes"/>
      <point x="71" y="210" type="line" smooth="yes"/>
      <point x="88" y="147" type="line" smooth="yes"/>
      <point x="112" y="95" type="line" smooth="yes"/>
      <point x="54" y="0" type="line" smooth="yes"/>
      <point x="112" y="0" type="line" smooth="yes"/>
      <point x="144" y="54" type="line" smooth="yes"/>
      <point x="180" y="25" type="line" smooth="yes"/>
      <point x="222" y="5" type="line" smooth="yes"/>
      <point x="270" y="-7" type="line" smooth="yes"/>
      <point x="324" y="-11" type="line" smooth="yes"/>
      <point x="441" y="11" type="line" smooth="yes"/>
      <point x="525" y="78" type="line" smooth="yes"/>
      <point x="575" y="197" type="line" smooth="yes"/>
      <point x="592" y="370" type="line" smooth="yes"/>
      <point x="592" y="410" type="line" smooth="yes"/>
      <point x="588" y="499" type="line" smooth="yes"/>
      <point x="577" y="575" type="line" smooth="yes"/>
      <point x="558" y="639" type="line" smooth="yes"/>
      <point x="532" y="691" type="line" smooth="yes"/>
      <point x="586" y="780" type="line" smooth="yes"/>
      <point x="528" y="780" type="line" smooth="yes"/>
      <point x="498" y="731" type="line" smooth="yes"/>
      <point x="463" y="758" type="line" smooth="yes"/>
      <point x="422" y="776" type="line" smooth="yes"/>
      <point x="376" y="787" type="line" smooth="yes"/>
      <point x="324" y="791" type="line" smooth="yes"/>
      <point x="207" y="769" type="line" smooth="yes"/>
      <point x="124" y="702" type="line" smooth="yes"/>
      <point x="74" y="583" type="line" smooth="yes"/>
    </contour>
  </outline>
</glyph>
<glyph name="Ugrave" format="1">
  <advance width="639"/>
  <unicode hex="00D9"/>
  <outline>
    <contour>
      <point x="221" y="950" type="line" smooth="yes"/>
      <point x="283" y="840" type="line" smooth="yes"/>
      <point x="355" y="840" type="line" smooth="yes"/>
      <point x="295" y="950" type="line" smooth="yes"/>
    </contour>
    <contour>
      <point x="319" y="-11" type="line" smooth="yes"/>
      <point x="428" y="2" type="line" smooth="yes"/>
      <point x="507" y="45" type="line" smooth="yes"/>
      <point x="554" y="123" type="line" smooth="yes"/>
      <point x="570" y="242" type="line" smooth="yes"/>
      <point x="570" y="780" type="line" smooth="yes"/>
      <point x="498" y="780" type="line" smooth="yes"/>
      <point x="498" y="247" type="line" smooth="yes"/>
      <point x="487" y="154" type="line" smooth="yes"/>
      <point x="454" y="95" type="line" smooth="yes"/>
      <point x="398" y="63" type="line" smooth="yes"/>
      <point x="319" y="54" type="line" smooth="yes"/>
      <point x="241" y="63" type="line" smooth="yes"/>
      <point x="185" y="95" type="line" smooth="yes"/>
      <point x="152" y="154" type="line" smooth="yes"/>
      <point x="141" y="247" type="line" smooth="yes"/>
      <point x="141" y="780" type="line" smooth="yes"/>
      <point x="69" y="780" type="line" smooth="yes"/>
      <point x="69" y="242" type="line" smooth="yes"/>
      <point x="85" y="123" type="line" smooth="yes"/>
      <point x="132" y="45" type="line" smooth="yes"/>
      <point x="210" y="2" type="line" smooth="yes"/>
    </contour>
  </outline>
</glyph>
<glyph name="Udieresis" format="1">
  <advance width="639"/>
  <unicode hex="00DC"/>
  <outline>
    <contour>
      <point x="437" y="930" type="line" smooth="yes"/>
      <point x="358" y="930" type="line" smooth="yes"/>
      <point x="358" y="860" type="line" smooth="yes"/>
      <point x="437" y="860" type="line" smooth="yes"/>
    </contour>
    <contour>
      <point x="280" y="930" type="line" smooth="yes"/>
      <point x="201" y="930" type="line" smooth="yes"/>
      <point x="201" y="860" type="line" smooth="yes"/>
      <point x="280" y="860" type="line" smooth="yes"/>
    </contour>
    <contour>
      <point x="319" y="-11" type="line" smooth="yes"/>
      <point x="428" y="2" type="line" smooth="yes"/>
      <point x="507" y="45" type="line" smooth="yes"/>
      <point x="554" y="123" type="line" smooth="yes"/>
      <point x="570" y="242" type="line" smooth="yes"/>
      <point x="570" y="780" type="line" smooth="yes"/>
      <point x="498" y="780" type="line" smooth="yes"/>
      <point x="498" y="247" type="line" smooth="yes"/>
      <point x="487" y="154" type="line" smooth="yes"/>
      <point x="454" y="95" type="line" smooth="yes"/>
      <point x="398" y="63" type="line" smooth="yes"/>
      <point x="319" y="54" type="line" smooth="yes"/>
      <point x="241" y="63" type="line" smooth="yes"/>
      <point x="185" y="95" type="line" smooth="yes"/>
      <point x="152" y="154" type="line" smooth="yes"/>
      <point x="141" y="247" type="line" smooth="yes"/>
      <point x="141" y="780" type="line" smooth="yes"/>
      <point x="69" y="780" type="line" smooth="yes"/>
      <point x="69" y="242" type="line" smooth="yes"/>
      <point x="85" y="123" type="line" smooth="yes"/>
      <point x="132" y="45" type="line" smooth="yes"/>
      <point x="210" y="2" type="line" smooth="yes"/>
    </contour>
  </outline>
</glyph>
<glyph name="Thorn" format="1">
  <advance width="573"/>
  <unicode hex="00DE"/>
  <outline>
    <contour>
      <point x="146" y="223" type="line" smooth="yes"/>
      <point x="146" y="557" type="line" smooth="yes"/>
      <point x="292" y="557" type="line" smooth="yes"/>
      <point x="346" y="551" type="line" smooth="yes"/>
      <point x="399" y="528" type="line" smooth="yes"/>
      <point x="439" y="479" type="line" smooth="yes"/>
      <point x="455" y="397" type="line" smooth="yes"/>
      <point x="455" y="383" type="line" smooth="yes"/>
      <point x="439" y="301" type="line" smooth="yes"/>
      <point x="399" y="252" type="line" smooth="yes"/>
      <point x="346" y="229" type="line" smooth="yes"/>
      <point x="292" y="223" type="line" smooth="yes"/>
    </contour>
    <contour>
      <point x="146" y="780" type="line" smooth="yes"/>
      <point x="74" y="780" type="line" smooth="yes"/>
      <point x="74" y="0" type="line" smooth="yes"/>
      <point x="146" y="0" type="line" smooth="yes"/>
      <point x="146" y="158" type="line" smooth="yes"/>
      <point x="290" y="158" type="line" smooth="yes"/>
      <point x="374" y="167" type="line" smooth="yes"/>
      <point x="451" y="202" type="line" smooth="yes"/>
      <point x="507" y="269" type="line" smooth="yes"/>
      <point x="529" y="380" type="line" smooth="yes"/>
      <point x="529" y="400" type="line" smooth="yes"/>
      <point x="507" y="511" type="line" smooth="yes"/>
      <point x="451" y="579" type="line" smooth="yes"/>
      <point x="374" y="613" type="line" smooth="yes"/>
      <point x="290" y="622" type="line" smooth="yes"/>
      <point x="146" y="622" type="line" smooth="yes"/>
    </contour>
  </outline>
</glyph>
<glyph name="germandbls" format="1">
  <advance width="571"/>
  <unicode hex="00DF"/>
  <outline>
    <contour>
      <point x="262" y="370" type="line" smooth="yes"/>
      <point x="339" y="319" type="line" smooth="yes"/>
      <point x="398" y="278" type="line" smooth="yes"/>
      <point x="440" y="241" type="line" smooth="yes"/>
      <point x="465" y="203" type="line" smooth="yes"/>
      <point x="473" y="161" type="line" smooth="yes"/>
      <point x="469" y="119" type="line" smooth="yes"/>
      <point x="452" y="83" type="line" smooth="yes"/>
      <point x="419" y="58" type="line" smooth="yes"/>
      <point x="366" y="48" type="line" smooth="yes"/>
      <point x="312" y="58" type="line" smooth="yes"/>
      <point x="279" y="83" type="line" smooth="yes"/>
      <point x="263" y="120" type="line" smooth="yes"/>
      <point x="258" y="162" type="line" smooth="yes"/>
      <point x="196" y="162" type="line" smooth="yes"/>
      <point x="196" y="157" type="line" smooth="yes"/>
      <point x="203" y="98" type="line" smooth="yes"/>
      <point x="229" y="44" type="line" smooth="yes"/>
      <point x="282" y="4" type="line" smooth="yes"/>
      <point x="369" y="-11" type="line" smooth="yes"/>
      <point x="456" y="4" type="line" smooth="yes"/>
      <point x="509" y="44" type="line" smooth="yes"/>
      <point x="536" y="99" type="line" smooth="yes"/>
      <point x="543" y="159" type="line" smooth="yes"/>
      <point x="543" y="164" type="line" smooth="yes"/>
      <point x="533" y="221" type="line" smooth="yes"/>
      <point x="504" y="270" type="line" smooth="yes"/>
      <point x="457" y="317" type="line" smooth="yes"/>
      <point x="392" y="364" type="line" smooth="yes"/>
      <point x="342" y="396" type="line" smooth="yes"/>
      <point x="402" y="441" type="line" smooth="yes"/>
      <point x="443" y="489" type="line" smooth="yes"/>
      <point x="467" y="542" type="line" smooth="yes"/>
      <point x="475" y="602" type="line" smooth="yes"/>
      <point x="475" y="609" type="line" smooth="yes"/>
      <point x="463" y="690" type="line" smooth="yes"/>
      <point x="425" y="754" type="line" smooth="yes"/>
      <point x="361" y="796" type="line" smooth="yes"/>
      <point x="270" y="811" type="line" smooth="yes"/>
      <point x="177" y="796" type="line" smooth="yes"/>
      <point x="114" y="755" type="line" smooth="yes"/>
      <point x="77" y="691" type="line" smooth="yes"/>
      <point x="65" y="609" type="line" smooth="yes"/>
      <point x="65" y="0" type="line" smooth="yes"/>
      <point x="135" y="0" type="line" smooth="yes"/>
      <point x="135" y="604" type="line" smooth="yes"/>
      <point x="143" y="661" type="line" smooth="yes"/>
      <point x="167" y="706" type="line" smooth="yes"/>
      <point x="209" y="735" type="line" smooth="yes"/>
      <point x="270" y="746" type="line" smooth="yes"/>
      <point x="331" y="736" type="line" smooth="yes"/>
      <point x="373" y="706" type="line" smooth="yes"/>
      <point x="397" y="661" type="line" smooth="yes"/>
      <point x="405" y="602" type="line" smooth="yes"/>
      <point x="397" y="547" type="line" smooth="yes"/>
      <point x="371" y="499" type="line" smooth="yes"/>
      <point x="327" y="457" type="line" smooth="yes"/>
      <point x="262" y="416" type="line" smooth="yes"/>
    </contour>
  </outline>
</glyph>
<glyph name="atilde" format="1">
  <advance width="512"/>
  <unicode hex="00E3"/>
  <outline>
    <contour>
      <point x="357" y="746" type="line" smooth="yes"/>
      <point x="354" y="725" type="line" smooth="yes"/>
      <point x="347" y="712" type="line" smooth="yes"/>
      <point x="335" y="705" type="line" smooth="yes"/>
      <point x="321" y="703" type="line" smooth="yes"/>
      <point x="291" y="711" type="line" smooth="yes"/>
      <point x="259" y="730" type="line" smooth="yes"/>
      <point x="223" y="749" type="line" smooth="yes"/>
      <point x="181" y="757" type="line" smooth="yes"/>
      <point x="148" y="751" type="line" smooth="yes"/>
      <point x="123" y="732" type="line" smooth="yes"/>
      <point x="106" y="700" type="line" smooth="yes"/>
      <point x="100" y="654" type="line" smooth="yes"/>
      <point x="155" y="654" type="line" smooth="yes"/>
      <point x="158" y="675" type="line" smooth="yes"/>
      <point x="166" y="688" type="line" smooth="yes"/>
      <point x="177" y="695" type="line" smooth="yes"/>
      <point x="191" y="697" type="line" smooth="yes"/>
      <point x="221" y="689" type="line" smooth="yes"/>
      <point x="253" y="670" type="line" smooth="yes"/>
      <point x="289" y="651" type="line" smooth="yes"/>
      <point x="331" y="643" type="line" smooth="yes"/>
      <point x="364" y="649" type="line" smooth="yes"/>
      <point x="390" y="668" type="line" smooth="yes"/>
      <point x="406" y="700" type="line" smooth="yes"/>
      <point x="412" y="746" type="line" smooth="yes"/>
    </contour>
    <contour>
      <point x="216" y="50" type="line" smooth="yes"/>
      <point x="170" y="57" type="line" smooth="yes"/>
      <point x="139" y="77" type="line" smooth="yes"/>
      <point x="121" y="106" type="line" smooth="yes"/>
      <point x="115" y="140" type="line" smooth="yes"/>
      <point x="115" y="149" type="line" smooth="yes"/>
      <point x="122" y="189" type="line" smooth="yes"/>
      <point x="144" y="220" type="line" smooth="yes"/>
      <point x="178" y="241" type="line" smooth="yes"/>
      <point x="224" y="254" type="line" smooth="yes"/>
      <point x="378" y="279" type="line" smooth="yes"/>
      <point x="378" y="134" type="line" smooth="yes"/>
      <point x="358" y="108" type="line" smooth="yes"/>
      <point x="327" y="80" type="line" smooth="yes"/>
      <point x="280" y="59" type="line" smooth="yes"/>
    </contour>
    <contour>
      <point x="396" y="0" type="line" smooth="yes"/>
      <point x="454" y="0" type="line" smooth="yes"/>
      <point x="448" y="150" type="line" smooth="yes"/>
      <point x="448" y="344" type="line" smooth="yes"/>
      <point x="439" y="424" type="line" smooth="yes"/>
      <point x="407" y="486" type="line" smooth="yes"/>
      <point x="348" y="527" type="line" smooth="yes"/>
      <point x="256" y="541" type="line" smooth="yes"/>
      <point x="160" y="525" type="line" smooth="yes"/>
      <point x="102" y="483" type="line" smooth="yes"/>
      <point x="73" y="425" type="line" smooth="yes"/>
      <point x="65" y="364" type="line" smooth="yes"/>
      <point x="65" y="355" type="line" smooth="yes"/>
      <point x="132" y="355" type="line" smooth="yes"/>
      <point x="137" y="404" type="line" smooth="yes"/>
      <point x="156" y="444" type="line" smooth="yes"/>
      <point x="194" y="472" type="line" smooth="yes"/>
      <point x="255" y="482" type="line" smooth="yes"/>
      <point x="314" y="473" type="line" smooth="yes"/>
      <point x="352" y="447" type="line" smooth="yes"/>
      <point x="372" y="404" type="line" smooth="yes"/>
      <point x="378" y="344" type="line" smooth="yes"/>
      <point x="378" y="330" type="line" smooth="yes"/>
      <point x="218" y="305" type="line" smooth="yes"/>
      <point x="155" y="291" type="line" smooth="yes"/>
      <point x="99" y="263" type="line" smooth="yes"/>
      <point x="60" y="216" type="line" smooth="yes"/>
      <point x="45" y="144" type="line" smooth="yes"/>
      <point x="45" y="134" type="line" smooth="yes"/>
      <point x="55" y="75" type="line" smooth="yes"/>
      <point x="85" y="30" type="line" smooth="yes"/>
      <point x="133" y="-0" type="line" smooth="yes"/>
      <point x="198" y="-11" type="line" smooth="yes"/>
      <point x="261" y="-4" type="line" smooth="yes"/>
      <point x="313" y="14" type="line" smooth="yes"/>
      <point x="354" y="41" type="line" smooth="yes"/>
      <point x="385" y="74" type="line" smooth="yes"/>
    </contour>
  </outline>
</glyph>
<glyph name="aring" format="1">
  <advance width="512"/>
  <unicode hex="00E5"/>
  <outline>
    <contour>
      <point x="200" y="697" type="line" smooth="yes"/>
      <point x="204" y="719" type="line" smooth="yes"/>
      <point x="216" y="737" type="line" smooth="yes"/>
      <point x="234" y="749" type="line" smooth="yes"/>
      <point x="256" y="753" type="line" smooth="yes"/>
      <point x="278" y="749" type="line" smooth="yes"/>
      <point x="296" y="737" type="line" smooth="yes"/>
      <point x="308" y="719" type="line" smooth="yes"/>
      <point x="312" y="697" type="line" smooth="yes"/>
      <point x="308" y="675" type="line" smooth="yes"/>
      <point x="296" y="657" type="line" smooth="yes"/>
      <point x="278" y="645" type="line" smooth="yes"/>
      <point x="256" y="641" type="line" smooth="yes"/>
      <point x="234" y="645" type="line" smooth="yes"/>
      <point x="216" y="657" type="line" smooth="yes"/>
      <point x="204" y="675" type="line" smooth="yes"/>
    </contour>
    <contour>
      <point x="162" y="697" type="line" smooth="yes"/>
      <point x="169" y="660" type="line" smooth="yes"/>
      <point x="190" y="631" type="line" smooth="yes"/>
      <point x="219" y="610" type="line" smooth="yes"/>
      <point x="256" y="603" type="line" smooth="yes"/>
      <point x="293" y="610" type="line" smooth="yes"/>
      <point x="323" y="631" type="line" smooth="yes"/>
      <point x="343" y="660" type="line" smooth="yes"/>
      <point x="350" y="697" type="line" smooth="yes"/>
      <point x="343" y="734" type="line" smooth="yes"/>
      <point x="323" y="764" type="line" smooth="yes"/>
      <point x="293" y="784" type="line" smooth="yes"/>
      <point x="256" y="791" type="line" smooth="yes"/>
      <point x="219" y="784" type="line" smooth="yes"/>
      <point x="190" y="764" type="line" smooth="yes"/>
      <point x="169" y="734" type="line" smooth="yes"/>
    </contour>
    <contour>
      <point x="216" y="50" type="line" smooth="yes"/>
      <point x="170" y="57" type="line" smooth="yes"/>
      <point x="139" y="77" type="line" smooth="yes"/>
      <point x="121" y="106" type="line" smooth="yes"/>
      <point x="115" y="140" type="line" smooth="yes"/>
      <point x="115" y="149" type="line" smooth="yes"/>
      <point x="122" y="189" type="line" smooth="yes"/>
      <point x="144" y="220" type="line" smooth="yes"/>
      <point x="178" y="241" type="line" smooth="yes"/>
      <point x="224" y="254" type="line" smooth="yes"/>
      <point x="378" y="279" type="line" smooth="yes"/>
      <point x="378" y="134" type="line" smooth="yes"/>
      <point x="358" y="108" type="line" smooth="yes"/>
      <point x="327" y="80" type="line" smooth="yes"/>
      <point x="280" y="59" type="line" smooth="yes"/>
    </contour>
    <contour>
      <point x="396" y="0" type="line" smooth="yes"/>
      <point x="454" y="0" type="line" smooth="yes"/>
      <point x="448" y="150" type="line" smooth="yes"/>
      <point x="448" y="344" type="line" smooth="yes"/>
      <point x="439" y="424" type="line" smooth="yes"/>
      <point x="407" y="486" type="line" smooth="yes"/>
      <point x="348" y="527" type="line" smooth="yes"/>
      <point x="256" y="541" type="line" smooth="yes"/>
      <point x="160" y="525" type="line" smooth="yes"/>
      <point x="102" y="483" type="line" smooth="yes"/>
      <point x="73" y="425" type="line" smooth="yes"/>
      <point x="65" y="364" type="line" smooth="yes"/>
      <point x="65" y="355" type="line" smooth="yes"/>
      <point x="132" y="355" type="line" smooth="yes"/>
      <point x="137" y="404" type="line" smooth="yes"/>
      <point x="156" y="444" type="line" smooth="yes"/>
      <point x="194" y="472" type="line" smooth="yes"/>
      <point x="255" y="482" type="line" smooth="yes"/>
      <point x="314" y="473" type="line" smooth="yes"/>
      <point x="352" y="447" type="line" smooth="yes"/>
      <point x="372" y="404" type="line" smooth="yes"/>
      <point x="378" y="344" type="line" smooth="yes"/>
      <point x="378" y="330" type="line" smooth="yes"/>
      <point x="218" y="305" type="line" smooth="yes"/>
      <point x="155" y="291" type="line" smooth="yes"/>
      <point x="99" y="263" type="line" smooth="yes"/>
      <point x="60" y="216" type="line" smooth="yes"/>
      <point x="45" y="144" type="line" smooth="yes"/>
      <point x="45" y="134" type="line" smooth="yes"/>
      <point x="55" y="75" type="line" smooth="yes"/>
      <point x="85" y="30" type="line" smooth="yes"/>
      <point x="133" y="-0" type="line" smooth="yes"/>
      <point x="198" y="-11" type="line" smooth="yes"/>
      <point x="261" y="-4" type="line" smooth="yes"/>
      <point x="313" y="14" type="line" smooth="yes"/>
      <point x="354" y="41" type="line" smooth="yes"/>
      <point x="385" y="74" type="line" smooth="yes"/>
    </contour>
  </outline>
</glyph>
<glyph name="ae" format="1">
  <advance width="871"/>
  <unicode hex="00E6"/>
  <outline>
    <contour>
      <point x="601" y="482" type="line" smooth="yes"/>
      <point x="667" y="469" type="line" smooth="yes"/>
      <point x="713" y="431" type="line" smooth="yes"/>
      <point x="742" y="372" type="line" smooth="yes"/>
      <point x="753" y="294" type="line" smooth="yes"/>
      <point x="449" y="294" type="line" smooth="yes"/>
      <point x="460" y="372" type="line" smooth="yes"/>
      <point x="489" y="431" type="line" smooth="yes"/>
      <point x="535" y="469" type="line" smooth="yes"/>
    </contour>
    <contour>
      <point x="381" y="138" type="line" smooth="yes"/>
      <point x="363" y="112" type="line" smooth="yes"/>
      <point x="331" y="83" type="line" smooth="yes"/>
      <point x="283" y="59" type="line" smooth="yes"/>
      <point x="216" y="49" type="line" smooth="yes"/>
      <point x="170" y="56" type="line" smooth="yes"/>
      <point x="139" y="76" type="line" smooth="yes"/>
      <point x="121" y="105" type="line" smooth="yes"/>
      <point x="115" y="139" type="line" smooth="yes"/>
      <point x="115" y="148" type="line" smooth="yes"/>
      <point x="122" y="188" type="line" smooth="yes"/>
      <point x="144" y="219" type="line" smooth="yes"/>
      <point x="179" y="240" type="line" smooth="yes"/>
      <point x="225" y="253" type="line" smooth="yes"/>
      <point x="378" y="278" type="line" smooth="yes"/>
      <point x="378" y="254" type="line" smooth="yes"/>
      <point x="379" y="227" type="line" smooth="yes"/>
      <point x="381" y="201" type="line" smooth="yes"/>
      <point x="385" y="176" type="line" smooth="yes"/>
      <point x="391" y="152" type="line" smooth="yes"/>
    </contour>
    <contour>
      <point x="825" y="236" type="line" smooth="yes"/>
      <point x="825" y="276" type="line" smooth="yes"/>
      <point x="812" y="379" type="line" smooth="yes"/>
      <point x="772" y="464" type="line" smooth="yes"/>
      <point x="702" y="520" type="line" smooth="yes"/>
      <point x="602" y="541" type="line" smooth="yes"/>
      <point x="542" y="534" type="line" smooth="yes"/>
      <point x="492" y="514" type="line" smooth="yes"/>
      <point x="453" y="483" type="line" smooth="yes"/>
      <point x="424" y="442" type="line" smooth="yes"/>
      <point x="403" y="483" type="line" smooth="yes"/>
      <point x="369" y="514" type="line" smooth="yes"/>
      <point x="321" y="534" type="line" smooth="yes"/>
      <point x="256" y="541" type="line" smooth="yes"/>
      <point x="160" y="525" type="line" smooth="yes"/>
      <point x="102" y="483" type="line" smooth="yes"/>
      <point x="73" y="425" type="line" smooth="yes"/>
      <point x="65" y="364" type="line" smooth="yes"/>
      <point x="65" y="355" type="line" smooth="yes"/>
      <point x="132" y="355" type="line" smooth="yes"/>
      <point x="137" y="404" type="line" smooth="yes"/>
      <point x="156" y="444" type="line" smooth="yes"/>
      <point x="194" y="472" type="line" smooth="yes"/>
      <point x="255" y="482" type="line" smooth="yes"/>
      <point x="314" y="473" type="line" smooth="yes"/>
      <point x="352" y="447" type="line" smooth="yes"/>
      <point x="372" y="404" type="line" smooth="yes"/>
      <point x="378" y="344" type="line" smooth="yes"/>
      <point x="378" y="330" type="line" smooth="yes"/>
      <point x="219" y="305" type="line" smooth="yes"/>
      <point x="156" y="291" type="line" smooth="yes"/>
      <point x="100" y="263" type="line" smooth="yes"/>
      <point x="60" y="216" type="line" smooth="yes"/>
      <point x="45" y="144" type="line" smooth="yes"/>
      <point x="45" y="134" type="line" smooth="yes"/>
      <point x="55" y="75" type="line" smooth="yes"/>
      <point x="86" y="30" type="line" smooth="yes"/>
      <point x="135" y="-0" type="line" smooth="yes"/>
      <point x="201" y="-11" type="line" smooth="yes"/>
      <point x="273" y="-2" type="line" smooth="yes"/>
      <point x="333" y="21" type="line" smooth="yes"/>
      <point x="380" y="54" type="line" smooth="yes"/>
      <point x="415" y="92" type="line" smooth="yes"/>
      <point x="447" y="49" type="line" smooth="yes"/>
      <point x="489" y="17" type="line" smooth="yes"/>
      <point x="542" y="-4" type="line" smooth="yes"/>
      <point x="607" y="-11" type="line" smooth="yes"/>
      <point x="704" y="5" type="line" smooth="yes"/>
      <point x="772" y="47" type="line" smooth="yes"/>
      <point x="812" y="104" type="line" smooth="yes"/>
      <point x="825" y="166" type="line" smooth="yes"/>
      <point x="825" y="170" type="line" smooth="yes"/>
      <point x="757" y="170" type="line" smooth="yes"/>
      <point x="748" y="127" type="line" smooth="yes"/>
      <point x="722" y="88" type="line" smooth="yes"/>
      <point x="676" y="59" type="line" smooth="yes"/>
      <point x="608" y="48" type="line" smooth="yes"/>
      <point x="538" y="61" type="line" smooth="yes"/>
      <point x="490" y="99" type="line" smooth="yes"/>
      <point x="460" y="158" type="line" smooth="yes"/>
      <point x="449" y="236" type="line" smooth="yes"/>
    </contour>
  </outline>
</glyph>
<glyph name="ccedilla" format="1">
  <advance width="522"/>
  <unicode hex="00E7"/>
  <outline>
    <contour>
      <point x="188" y="-191" type="line" smooth="yes"/>
      <point x="206" y="-200" type="line" smooth="yes"/>
      <point x="228" y="-206" type="line" smooth="yes"/>
      <point x="253" y="-210" type="line" smooth="yes"/>
      <point x="280" y="-211" type="line" smooth="yes"/>
      <point x="322" y="-207" type="line" smooth="yes"/>
      <point x="354" y="-193" type="line" smooth="yes"/>
      <point x="375" y="-169" type="line" smooth="yes"/>
      <point x="383" y="-133" type="line" smooth="yes"/>
      <point x="374" y="-97" type="line" smooth="yes"/>
      <point x="351" y="-74" type="line" smooth="yes"/>
      <point x="319" y="-60" type="line" smooth="yes"/>
      <point x="283" y="-56" type="line" smooth="yes"/>
      <point x="279" y="-56" type="line" smooth="yes"/>
      <point x="296" y="-10" type="line" smooth="yes"/>
      <point x="377" y="11" type="line" smooth="yes"/>
      <point x="432" y="54" type="line" smooth="yes"/>
      <point x="463" y="108" type="line" smooth="yes"/>
      <point x="473" y="168" type="line" smooth="yes"/>
      <point x="473" y="184" type="line" smooth="yes"/>
      <point x="406" y="184" type="line" smooth="yes"/>
      <point x="399" y="134" type="line" smooth="yes"/>
      <point x="376" y="92" type="line" smooth="yes"/>
      <point x="334" y="63" type="line" smooth="yes"/>
      <point x="271" y="52" type="line" smooth="yes"/>
      <point x="203" y="66" type="line" smooth="yes"/>
      <point x="156" y="107" type="line" smooth="yes"/>
      <point x="129" y="171" type="line" smooth="yes"/>
      <point x="120" y="253" type="line" smooth="yes"/>
      <point x="120" y="277" type="line" smooth="yes"/>
      <point x="129" y="359" type="line" smooth="yes"/>
      <point x="156" y="423" type="line" smooth="yes"/>
      <point x="203" y="464" type="line" smooth="yes"/>
      <point x="271" y="478" type="line" smooth="yes"/>
      <point x="333" y="467" type="line" smooth="yes"/>
      <point x="375" y="437" type="line" smooth="yes"/>
      <point x="398" y="392" type="line" smooth="yes"/>
      <point x="406" y="336" type="line" smooth="yes"/>
      <point x="473" y="336" type="line" smooth="yes"/>
      <point x="473" y="356" type="line" smooth="yes"/>
      <point x="462" y="421" type="line" smooth="yes"/>
      <point x="426" y="481" type="line" smooth="yes"/>
      <point x="363" y="524" type="line" smooth="yes"/>
      <point x="270" y="541" type="line" smooth="yes"/>
      <point x="170" y="520" type="line" smooth="yes"/>
      <point x="101" y="464" type="line" smooth="yes"/>
      <point x="62" y="380" type="line" smooth="yes"/>
      <point x="49" y="277" type="line" smooth="yes"/>
      <point x="49" y="253" type="line" smooth="yes"/>
      <point x="61" y="154" type="line" smooth="yes"/>
      <point x="96" y="73" type="line" smooth="yes"/>
      <point x="158" y="16" type="line" smooth="yes"/>
      <point x="248" y="-10" type="line" smooth="yes"/>
      <point x="221" y="-80" type="line" smooth="yes"/>
      <point x="240" y="-103" type="line" smooth="yes"/>
      <point x="242" y="-103" type="line" smooth="yes"/>
      <point x="249" y="-102" type="line" smooth="yes"/>
      <point x="258" y="-100" type="line" smooth="yes"/>
      <point x="269" y="-100" type="line" smooth="yes"/>
      <point x="295" y="-102" type="line" smooth="yes"/>
      <point x="314" y="-107" type="line" smooth="yes"/>
      <point x="327" y="-116" type="line" smooth="yes"/>
      <point x="331" y="-131" type="line" smooth="yes"/>
      <point x="327" y="-146" type="line" smooth="yes"/>
      <point x="317" y="-156" type="line" smooth="yes"/>
      <point x="299" y="-161" type="line" smooth="yes"/>
      <point x="273" y="-162" type="line" smooth="yes"/>
      <point x="253" y="-161" type="line" smooth="yes"/>
      <point x="235" y="-158" type="line" smooth="yes"/>
      <point x="217" y="-153" type="line" smooth="yes"/>
      <point x="203" y="-147" type="line" smooth="yes"/>
    </contour>
  </outline>
</glyph>
<glyph name="igrave" format="1">
  <advance width="217"/>
  <unicode hex="00EC"/>
  <outline>
    <contour>
      <point x="-22" y="780" type="line" smooth="yes"/>
      <point x="72" y="614" type="line" smooth="yes"/>
      <point x="144" y="614" type="line" smooth="yes"/>
      <point x="54" y="780" type="line" smooth="yes"/>
    </contour>
    <contour>
      <point x="73" y="0" type="line" smooth="yes"/>
      <point x="143" y="0" type="line" smooth="yes"/>
      <point x="143" y="530" type="line" smooth="yes"/>
      <point x="73" y="530" type="line" smooth="yes"/>
    </contour>
  </outline>
</glyph>
<glyph name="eth" format="1">
  <advance width="544"/>
  <unicode hex="00F0"/>
  <outline>
    <contour>
      <point x="272" y="52" type="line" smooth="yes"/>
      <point x="204" y="66" type="line" smooth="yes"/>
      <point x="157" y="107" type="line" smooth="yes"/>
      <point x="129" y="171" type="line" smooth="yes"/>
      <point x="120" y="253" type="line" smooth="yes"/>
      <point x="120" y="277" type="line" smooth="yes"/>
      <point x="129" y="359" type="line" smooth="yes"/>
      <point x="157" y="423" type="line" smooth="yes"/>
      <point x="204" y="464" type="line" smooth="yes"/>
      <point x="272" y="478" type="line" smooth="yes"/>
      <point x="340" y="464" type="line" smooth="yes"/>
      <point x="387" y="423" type="line" smooth="yes"/>
      <point x="415" y="359" type="line" smooth="yes"/>
      <point x="424" y="277" type="line" smooth="yes"/>
      <point x="424" y="253" type="line" smooth="yes"/>
      <point x="415" y="171" type="line" smooth="yes"/>
      <point x="387" y="107" type="line" smooth="yes"/>
      <point x="340" y="66" type="line" smooth="yes"/>
    </contour>
    <contour>
      <point x="49" y="747" type="line" smooth="yes"/>
      <point x="91" y="741" type="line" smooth="yes"/>
      <point x="132" y="731" type="line" smooth="yes"/>
      <point x="172" y="719" type="line" smooth="yes"/>
      <point x="210" y="703" type="line" smooth="yes"/>
      <point x="87" y="632" type="line" smooth="yes"/>
      <point x="87" y="577" type="line" smooth="yes"/>
      <point x="258" y="676" type="line" smooth="yes"/>
      <point x="275" y="664" type="line" smooth="yes"/>
      <point x="292" y="650" type="line" smooth="yes"/>
      <point x="309" y="636" type="line" smooth="yes"/>
      <point x="325" y="620" type="line" smooth="yes"/>
      <point x="348" y="592" type="line" smooth="yes"/>
      <point x="367" y="562" type="line" smooth="yes"/>
      <point x="384" y="529" type="line" smooth="yes"/>
      <point x="398" y="494" type="line" smooth="yes"/>
      <point x="372" y="514" type="line" smooth="yes"/>
      <point x="341" y="528" type="line" smooth="yes"/>
      <point x="306" y="538" type="line" smooth="yes"/>
      <point x="266" y="541" type="line" smooth="yes"/>
      <point x="169" y="520" type="line" smooth="yes"/>
      <point x="101" y="464" type="line" smooth="yes"/>
      <point x="62" y="380" type="line" smooth="yes"/>
      <point x="49" y="277" type="line" smooth="yes"/>
      <point x="49" y="253" type="line" smooth="yes"/>
      <point x="62" y="150" type="line" smooth="yes"/>
      <point x="102" y="66" type="line" smooth="yes"/>
      <point x="171" y="10" type="line" smooth="yes"/>
      <point x="272" y="-11" type="line" smooth="yes"/>
      <point x="373" y="10" type="line" smooth="yes"/>
      <point x="442" y="66" type="line" smooth="yes"/>
      <point x="482" y="150" type="line" smooth="yes"/>
      <point x="495" y="253" type="line" smooth="yes"/>
      <point x="495" y="277" type="line" smooth="yes"/>
      <point x="490" y="372" type="line" smooth="yes"/>
      <point x="472" y="474" type="line" smooth="yes"/>
      <point x="437" y="575" type="line" smooth="yes"/>
      <point x="380" y="662" type="line" smooth="yes"/>
      <point x="366" y="676" type="line" smooth="yes"/>
      <point x="352" y="690" type="line" smooth="yes"/>
      <point x="338" y="702" type="line" smooth="yes"/>
      <point x="324" y="714" type="line" smooth="yes"/>
      <point x="398" y="756" type="line" smooth="yes"/>
      <point x="398" y="811" type="line" smooth="yes"/>
      <point x="281" y="743" type="line" smooth="yes"/>
      <point x="227" y="770" type="line" smooth="yes"/>
      <point x="170" y="790" type="line" smooth="yes"/>
      <point x="111" y="803" type="line" smooth="yes"/>
      <point x="49" y="811" type="line" smooth="yes"/>
    </contour>
  </outline>
</glyph>
<glyph name="ntilde" format="1">
  <advance width="528"/>
  <unicode hex="00F1"/>
  <outline>
    <contour>
      <point x="368" y="746" type="line" smooth="yes"/>
      <point x="365" y="725" type="line" smooth="yes"/>
      <point x="358" y="712" type="line" smooth="yes"/>
      <point x="346" y="705" type="line" smooth="yes"/>
      <point x="332" y="703" type="line" smooth="yes"/>
      <point x="302" y="711" type="line" smooth="yes"/>
      <point x="270" y="730" type="line" smooth="yes"/>
      <point x="234" y="749" type="line" smooth="yes"/>
      <point x="192" y="757" type="line" smooth="yes"/>
      <point x="159" y="751" type="line" smooth="yes"/>
      <point x="134" y="732" type="line" smooth="yes"/>
      <point x="117" y="700" type="line" smooth="yes"/>
      <point x="111" y="654" type="line" smooth="yes"/>
      <point x="166" y="654" type="line" smooth="yes"/>
      <point x="169" y="675" type="line" smooth="yes"/>
      <point x="177" y="688" type="line" smooth="yes"/>
      <point x="188" y="695" type="line" smooth="yes"/>
      <point x="202" y="697" type="line" smooth="yes"/>
      <point x="232" y="689" type="line" smooth="yes"/>
      <point x="264" y="670" type="line" smooth="yes"/>
      <point x="300" y="651" type="line" smooth="yes"/>
      <point x="342" y="643" type="line" smooth="yes"/>
      <point x="375" y="649" type="line" smooth="yes"/>
      <point x="401" y="668" type="line" smooth="yes"/>
      <point x="417" y="700" type="line" smooth="yes"/>
      <point x="423" y="746" type="line" smooth="yes"/>
    </contour>
    <contour>
      <point x="467" y="0" type="line" smooth="yes"/>
      <point x="467" y="371" type="line" smooth="yes"/>
      <point x="457" y="439" type="line" smooth="yes"/>
      <point x="426" y="493" type="line" smooth="yes"/>
      <point x="375" y="528" type="line" smooth="yes"/>
      <point x="306" y="541" type="line" smooth="yes"/>
      <point x="244" y="534" type="line" smooth="yes"/>
      <point x="195" y="516" type="line" smooth="yes"/>
      <point x="156" y="488" type="line" smooth="yes"/>
      <point x="128" y="455" type="line" smooth="yes"/>
      <point x="118" y="530" type="line" smooth="yes"/>
      <point x="60" y="530" type="line" smooth="yes"/>
      <point x="66" y="380" type="line" smooth="yes"/>
      <point x="66" y="0" type="line" smooth="yes"/>
      <point x="136" y="0" type="line" smooth="yes"/>
      <point x="136" y="396" type="line" smooth="yes"/>
      <point x="156" y="424" type="line" smooth="yes"/>
      <point x="186" y="450" type="line" smooth="yes"/>
      <point x="227" y="470" type="line" smooth="yes"/>
      <point x="282" y="478" type="line" smooth="yes"/>
      <point x="330" y="471" type="line" smooth="yes"/>
      <point x="366" y="450" type="line" smooth="yes"/>
      <point x="389" y="413" type="line" smooth="yes"/>
      <point x="397" y="361" type="line" smooth="yes"/>
      <point x="397" y="0" type="line" smooth="yes"/>
    </contour>
  </outline>
</glyph>
<glyph name="ocircumflex" format="1">
  <advance width="544"/>
  <unicode hex="00F4"/>
  <outline>
    <contour>
      <point x="179" y="614" type="line" smooth="yes"/>
      <point x="272" y="727" type="line" smooth="yes"/>
      <point x="365" y="614" type="line" smooth="yes"/>
      <point x="434" y="614" type="line" smooth="yes"/>
      <point x="303" y="780" type="line" smooth="yes"/>
      <point x="241" y="780" type="line" smooth="yes"/>
      <point x="110" y="614" type="line" smooth="yes"/>
    </contour>
    <contour>
      <point x="272" y="52" type="line" smooth="yes"/>
      <point x="204" y="66" type="line" smooth="yes"/>
      <point x="157" y="107" type="line" smooth="yes"/>
      <point x="129" y="171" type="line" smooth="yes"/>
      <point x="120" y="253" type="line" smooth="yes"/>
      <point x="120" y="277" type="line" smooth="yes"/>
      <point x="129" y="359" type="line" smooth="yes"/>
      <point x="157" y="423" type="line" smooth="yes"/>
      <point x="204" y="464" type="line" smooth="yes"/>
      <point x="272" y="478" type="line" smooth="yes"/>
      <point x="340" y="464" type="line" smooth="yes"/>
      <point x="387" y="423" type="line" smooth="yes"/>
      <point x="415" y="359" type="line" smooth="yes"/>
      <point x="424" y="277" type="line" smooth="yes"/>
      <point x="424" y="253" type="line" smooth="yes"/>
      <point x="415" y="171" type="line" smooth="yes"/>
      <point x="387" y="107" type="line" smooth="yes"/>
      <point x="340" y="66" type="line" smooth="yes"/>
    </contour>
    <contour>
      <point x="272" y="-11" type="line" smooth="yes"/>
      <point x="373" y="10" type="line" smooth="yes"/>
      <point x="442" y="66" type="line" smooth="yes"/>
      <point x="482" y="150" type="line" smooth="yes"/>
      <point x="495" y="253" type="line" smooth="yes"/>
      <point x="495" y="277" type="line" smooth="yes"/>
      <point x="482" y="380" type="line" smooth="yes"/>
      <point x="442" y="464" type="line" smooth="yes"/>
      <point x="373" y="520" type="line" smooth="yes"/>
      <point x="272" y="541" type="line" smooth="yes"/>
      <point x="171" y="520" type="line" smooth="yes"/>
      <point x="102" y="464" type="line" smooth="yes"/>
      <point x="62" y="380" type="line" smooth="yes"/>
      <point x="49" y="277" type="line" smooth="yes"/>
      <point x="49" y="253" type="line" smooth="yes"/>
      <point x="62" y="150" type="line" smooth="yes"/>
      <point x="102" y="66" type="line" smooth="yes"/>
      <point x="171" y="10" type="line" smooth="yes"/>
    </contour>
  </outline>
</glyph>
<glyph name="otilde" format="1">
  <advance width="544"/>
  <unicode hex="00F5"/>
  <outline>
    <contour>
      <point x="373" y="746" type="line" smooth="yes"/>
      <point x="370" y="725" type="line" smooth="yes"/>
      <point x="363" y="712" type="line" smooth="yes"/>
      <point x="351" y="705" type="line" smooth="yes"/>
      <point x="337" y="703" type="line" smooth="yes"/>
      <point x="307" y="711" type="line" smooth="yes"/>
      <point x="275" y="730" type="line" smooth="yes"/>
      <point x="239" y="749" type="line" smooth="yes"/>
      <point x="197" y="757" type="line" smooth="yes"/>
      <point x="164" y="751" type="line" smooth="yes"/>
      <point x="139" y="732" type="line" smooth="yes"/>
      <point x="122" y="700" type="line" smooth="yes"/>
      <point x="116" y="654" type="line" smooth="yes"/>
      <point x="171" y="654" type="line" smooth="yes"/>
      <point x="174" y="675" type="line" smooth="yes"/>
      <point x="182" y="688" type="line" smooth="yes"/>
      <point x="193" y="695" type="line" smooth="yes"/>
      <point x="207" y="697" type="line" smooth="yes"/>
      <point x="237" y="689" type="line" smooth="yes"/>
      <point x="269" y="670" type="line" smooth="yes"/>
      <point x="305" y="651" type="line" smooth="yes"/>
      <point x="347" y="643" type="line" smooth="yes"/>
      <point x="380" y="649" type="line" smooth="yes"/>
      <point x="406" y="668" type="line" smooth="yes"/>
      <point x="422" y="700" type="line" smooth="yes"/>
      <point x="428" y="746" type="line" smooth="yes"/>
    </contour>
    <contour>
      <point x="272" y="52" type="line" smooth="yes"/>
      <point x="204" y="66" type="line" smooth="yes"/>
      <point x="157" y="107" type="line" smooth="yes"/>
      <point x="129" y="171" type="line" smooth="yes"/>
      <point x="120" y="253" type="line" smooth="yes"/>
      <point x="120" y="277" type="line" smooth="yes"/>
      <point x="129" y="359" type="line" smooth="yes"/>
      <point x="157" y="423" type="line" smooth="yes"/>
      <point x="204" y="464" type="line" smooth="yes"/>
      <point x="272" y="478" type="line" smooth="yes"/>
      <point x="340" y="464" type="line" smooth="yes"/>
      <point x="387" y="423" type="line" smooth="yes"/>
      <point x="415" y="359" type="line" smooth="yes"/>
      <point x="424" y="277" type="line" smooth="yes"/>
      <point x="424" y="253" type="line" smooth="yes"/>
      <point x="415" y="171" type="line" smooth="yes"/>
      <point x="387" y="107" type="line" smooth="yes"/>
      <point x="340" y="66" type="line" smooth="yes"/>
    </contour>
    <contour>
      <point x="272" y="-11" type="line" smooth="yes"/>
      <point x="373" y="10" type="line" smooth="yes"/>
      <point x="442" y="66" type="line" smooth="yes"/>
      <point x="482" y="150" type="line" smooth="yes"/>
      <point x="495" y="253" type="line" smooth="yes"/>
      <point x="495" y="277" type="line" smooth="yes"/>
      <point x="482" y="380" type="line" smooth="yes"/>
      <point x="442" y="464" type="line" smooth="yes"/>
      <point x="373" y="520" type="line" smooth="yes"/>
      <point x="272" y="541" type="line" smooth="yes"/>
      <point x="171" y="520" type="line" smooth="yes"/>
      <point x="102" y="464" type="line" smooth="yes"/>
      <point x="62" y="380" type="line" smooth="yes"/>
      <point x="49" y="277" type="line" smooth="yes"/>
      <point x="49" y="253" type="line" smooth="yes"/>
      <point x="62" y="150" type="line" smooth="yes"/>
      <point x="102" y="66" type="line" smooth="yes"/>
      <point x="171" y="10" type="line" smooth="yes"/>
    </contour>
  </outline>
</glyph>
<glyph name="oslash" format="1">
  <advance width="544"/>
  <unicode hex="00F8"/>
  <outline>
    <contour>
      <point x="424" y="277" type="line" smooth="yes"/>
      <point x="424" y="253" type="line" smooth="yes"/>
      <point x="415" y="171" type="line" smooth="yes"/>
      <point x="387" y="107" type="line" smooth="yes"/>
      <point x="340" y="66" type="line" smooth="yes"/>
      <point x="272" y="52" type="line" smooth="yes"/>
      <point x="241" y="55" type="line" smooth="yes"/>
      <point x="213" y="62" type="line" smooth="yes"/>
      <point x="189" y="74" type="line" smooth="yes"/>
      <point x="169" y="91" type="line" smooth="yes"/>
      <point x="399" y="401" type="line" smooth="yes"/>
      <point x="410" y="375" type="line" smooth="yes"/>
      <point x="418" y="345" type="line" smooth="yes"/>
      <point x="422" y="312" type="line" smooth="yes"/>
    </contour>
    <contour>
      <point x="120" y="253" type="line" smooth="yes"/>
      <point x="120" y="277" type="line" smooth="yes"/>
      <point x="129" y="359" type="line" smooth="yes"/>
      <point x="157" y="423" type="line" smooth="yes"/>
      <point x="204" y="464" type="line" smooth="yes"/>
      <point x="272" y="478" type="line" smooth="yes"/>
      <point x="303" y="475" type="line" smooth="yes"/>
      <point x="331" y="468" type="line" smooth="yes"/>
      <point x="354" y="455" type="line" smooth="yes"/>
      <point x="374" y="438" type="line" smooth="yes"/>
      <point x="144" y="128" type="line" smooth="yes"/>
      <point x="134" y="155" type="line" smooth="yes"/>
      <point x="126" y="185" type="line" smooth="yes"/>
      <point x="122" y="217" type="line" smooth="yes"/>
    </contour>
    <contour>
      <point x="495" y="530" type="line" smooth="yes"/>
      <point x="442" y="530" type="line" smooth="yes"/>
      <point x="414" y="493" type="line" smooth="yes"/>
      <point x="385" y="513" type="line" smooth="yes"/>
      <point x="352" y="528" type="line" smooth="yes"/>
      <point x="315" y="538" type="line" smooth="yes"/>
      <point x="272" y="541" type="line" smooth="yes"/>
      <point x="171" y="520" type="line" smooth="yes"/>
      <point x="102" y="464" type="line" smooth="yes"/>
      <point x="62" y="380" type="line" smooth="yes"/>
      <point x="49" y="277" type="line" smooth="yes"/>
      <point x="49" y="253" type="line" smooth="yes"/>
      <point x="52" y="200" type="line" smooth="yes"/>
      <point x="61" y="152" type="line" smooth="yes"/>
      <point x="77" y="107" type="line" smooth="yes"/>
      <point x="100" y="68" type="line" smooth="yes"/>
      <point x="49" y="0" type="line" smooth="yes"/>
      <point x="102" y="0" type="line" smooth="yes"/>
      <point x="129" y="37" type="line" smooth="yes"/>
      <point x="158" y="17" type="line" smooth="yes"/>
      <point x="191" y="2" type="line" smooth="yes"/>
      <point x="229" y="-8" type="line" smooth="yes"/>
      <point x="272" y="-11" type="line" smooth="yes"/>
      <point x="373" y="10" type="line" smooth="yes"/>
      <point x="442" y="66" type="line" smooth="yes"/>
      <point x="482" y="150" type="line" smooth="yes"/>
      <point x="495" y="253" type="line" smooth="yes"/>
      <point x="495" y="277" type="line" smooth="yes"/>
      <point x="492" y="330" type="line" smooth="yes"/>
      <point x="483" y="378" type="line" smooth="yes"/>
      <point x="467" y="423" type="line" smooth="yes"/>
      <point x="444" y="461" type="line" smooth="yes"/>
    </contour>
  </outline>
</glyph>
<glyph name="uacute" format="1">
  <advance width="528"/>
  <unicode hex="00FA"/>
  <outline>
    <contour>
      <point x="315" y="780" type="line" smooth="yes"/>
      <point x="225" y="614" type="line" smooth="yes"/>
      <point x="297" y="614" type="line" smooth="yes"/>
      <point x="391" y="780" type="line" smooth="yes"/>
    </contour>
    <contour>
      <point x="61" y="530" type="line" smooth="yes"/>
      <point x="61" y="159" type="line" smooth="yes"/>
      <point x="71" y="91" type="line" smooth="yes"/>
      <point x="102" y="37" type="line" smooth="yes"/>
      <point x="152" y="2" type="line" smooth="yes"/>
      <point x="222" y="-11" type="line" smooth="yes"/>
      <point x="283" y="-4" type="line" smooth="yes"/>
      <point x="333" y="14" type="line" smooth="yes"/>
      <point x="371" y="41" type="line" smooth="yes"/>
      <point x="399" y="74" type="line" smooth="yes"/>
      <point x="410" y="0" type="line" smooth="yes"/>
      <point x="468" y="0" type="line" smooth="yes"/>
      <point x="462" y="150" type="line" smooth="yes"/>
      <point x="462" y="530" type="line" smooth="yes"/>
      <point x="392" y="530" type="line" smooth="yes"/>
      <point x="392" y="134" type="line" smooth="yes"/>
      <point x="372" y="106" type="line" smooth="yes"/>
      <point x="342" y="80" type="line" smooth="yes"/>
      <point x="300" y="60" type="line" smooth="yes"/>
      <point x="245" y="52" type="line" smooth="yes"/>
      <point x="198" y="59" type="line" smooth="yes"/>
      <point x="161" y="81" type="line" smooth="yes"/>
      <point x="138" y="117" type="line" smooth="yes"/>
      <point x="130" y="169" type="line" smooth="yes"/>
      <point x="130" y="530" type="line" smooth="yes"/>
    </contour>
  </outline>
</glyph>
<glyph name="udieresis" format="1">
  <advance width="528"/>
  <unicode hex="00FC"/>
  <outline>
    <contour>
      <point x="221" y="745" type="line" smooth="yes"/>
      <point x="134" y="745" type="line" smooth="yes"/>
      <point x="134" y="657" type="line" smooth="yes"/>
      <point x="221" y="657" type="line" smooth="yes"/>
    </contour>
    <contour>
      <point x="388" y="745" type="line" smooth="yes"/>
      <point x="301" y="745" type="line" smooth="yes"/>
      <point x="301" y="657" type="line" smooth="yes"/>
      <point x="388" y="657" type="line" smooth="yes"/>
    </contour>
    <contour>
      <point x="61" y="530" type="line" smooth="yes"/>
      <point x="61" y="159" type="line" smooth="yes"/>
      <point x="71" y="91" type="line" smooth="yes"/>
      <point x="102" y="37" type="line" smooth="yes"/>
      <point x="152" y="2" type="line" smooth="yes"/>
      <point x="222" y="-11" type="line" smooth="yes"/>
      <point x="283" y="-4" type="line" smooth="yes"/>
      <point x="333" y="14" type="line" smooth="yes"/>
      <point x="371" y="41" type="line" smooth="yes"/>
      <point x="399" y="74" type="line" smooth="yes"/>
      <point x="410" y="0" type="line" smooth="yes"/>
      <point x="468" y="0" type="line" smooth="yes"/>
      <point x="462" y="150" type="line" smooth="yes"/>
      <point x="462" y="530" type="line" smooth="yes"/>
      <point x="392" y="530" type="line" smooth="yes"/>
      <point x="392" y="134" type="line" smooth="yes"/>
      <point x="372" y="106" type="line" smooth="yes"/>
      <point x="342" y="80" type="line" smooth="yes"/>
      <point x="300" y="60" type="line" smooth="yes"/>
      <point x="245" y="52" type="line" smooth="yes"/>
      <point x="198" y="59" type="line" smooth="yes"/>
      <point x="161" y="81" type="line" smooth="yes"/>
      <point x="138" y="117" type="line" smooth="yes"/>
      <point x="130" y="169" type="line" smooth="yes"/>
      <point x="130" y="530" type="line" smooth="yes"/>
    </contour>
  </outline>
</glyph>
<glyph name="thorn" format="1">
  <advance width="537"/>
  <unicode hex="00FE"/>
  <outline>
    <contour>
      <point x="136" y="134" type="line" smooth="yes"/>
      <point x="136" y="396" type="line" smooth="yes"/>
      <point x="156" y="424" type="line" smooth="yes"/>
      <point x="184" y="450" type="line" smooth="yes"/>
      <point x="222" y="470" type="line" smooth="yes"/>
      <point x="270" y="478" type="line" smooth="yes"/>
      <point x="335" y="464" type="line" smooth="yes"/>
      <point x="381" y="424" type="line" smooth="yes"/>
      <point x="408" y="360" type="line" smooth="yes"/>
      <point x="417" y="277" type="line" smooth="yes"/>
      <point x="417" y="253" type="line" smooth="yes"/>
      <point x="408" y="170" type="line" smooth="yes"/>
      <point x="381" y="106" type="line" smooth="yes"/>
      <point x="335" y="66" type="line" smooth="yes"/>
      <point x="270" y="52" type="line" smooth="yes"/>
      <point x="222" y="60" type="line" smooth="yes"/>
      <point x="184" y="80" type="line" smooth="yes"/>
      <point x="156" y="106" type="line" smooth="yes"/>
    </contour>
    <contour>
      <point x="65" y="800" type="line" smooth="yes"/>
      <point x="65" y="-200" type="line" smooth="yes"/>
      <point x="135" y="-200" type="line" smooth="yes"/>
      <point x="135" y="62" type="line" smooth="yes"/>
      <point x="160" y="33" type="line" smooth="yes"/>
      <point x="193" y="10" type="line" smooth="yes"/>
      <point x="235" y="-5" type="line" smooth="yes"/>
      <point x="286" y="-11" type="line" smooth="yes"/>
      <point x="379" y="10" type="line" smooth="yes"/>
      <point x="442" y="66" type="line" smooth="yes"/>
      <point x="478" y="150" type="line" smooth="yes"/>
      <point x="489" y="253" type="line" smooth="yes"/>
      <point x="489" y="277" type="line" smooth="yes"/>
      <point x="478" y="380" type="line" smooth="yes"/>
      <point x="442" y="464" type="line" smooth="yes"/>
      <point x="379" y="520" type="line" smooth="yes"/>
      <point x="286" y="541" type="line" smooth="yes"/>
      <point x="235" y="535" type="line" smooth="yes"/>
      <point x="193" y="520" type="line" smooth="yes"/>
      <point x="160" y="497" type="line" smooth="yes"/>
      <point x="135" y="468" type="line" smooth="yes"/>
      <point x="135" y="800" type="line" smooth="yes"/>
    </contour>
  </outline>
</glyph>
<glyph name="amacron" format="1">
  <advance width="512"/>
  <unicode hex="0101"/>
  <outline>
    <contour>
      <point x="139" y="664" type="line" smooth="yes"/>
      <point x="373" y="664" type="line" smooth="yes"/>
      <point x="373" y="730" type="line" smooth="yes"/>
      <point x="139" y="730" type="line" smooth="yes"/>
    </contour>
    <contour>
      <point x="216" y="50" type="line" smooth="yes"/>
      <point x="170" y="57" type="line" smooth="yes"/>
      <point x="139" y="77" type="line" smooth="yes"/>
      <point x="121" y="106" type="line" smooth="yes"/>
      <point x="115" y="140" type="line" smooth="yes"/>
      <point x="115" y="149" type="line" smooth="yes"/>
      <point x="122" y="189" type="line" smooth="yes"/>
      <point x="144" y="220" type="line" smooth="yes"/>
      <point x="178" y="241" type="line" smooth="yes"/>
      <point x="224" y="254" type="line" smooth="yes"/>
      <point x="378" y="279" type="line" smooth="yes"/>
      <point x="378" y="134" type="line" smooth="yes"/>
      <point x="358" y="108" type="line" smooth="yes"/>
      <point x="327" y="80" type="line" smooth="yes"/>
      <point x="280" y="59" type="line" smooth="yes"/>
    </contour>
    <contour>
      <point x="396" y="0" type="line" smooth="yes"/>
      <point x="454" y="0" type="line" smooth="yes"/>
      <point x="448" y="150" type="line" smooth="yes"/>
      <point x="448" y="344" type="line" smooth="yes"/>
      <point x="439" y="424" type="line" smooth="yes"/>
      <point x="407" y="486" type="line" smooth="yes"/>
      <point x="348" y="527" type="line" smooth="yes"/>
      <point x="256" y="541" type="line" smooth="yes"/>
      <point x="160" y="525" type="line" smooth="yes"/>
      <point x="102" y="483" type="line" smooth="yes"/>
      <point x="73" y="425" type="line" smooth="yes"/>
      <point x="65" y="364" type="line" smooth="yes"/>
      <point x="65" y="355" type="line" smooth="yes"/>
      <point x="132" y="355" type="line" smooth="yes"/>
      <point x="137" y="404" type="line" smooth="yes"/>
      <point x="156" y="444" type="line" smooth="yes"/>
      <point x="194" y="472" type="line" smooth="yes"/>
      <point x="255" y="482" type="line" smooth="yes"/>
      <point x="314" y="473" type="line" smooth="yes"/>
      <point x="352" y="447" type="line" smooth="yes"/>
      <point x="372" y="404" type="line" smooth="yes"/>
      <point x="378" y="344" type="line" smooth="yes"/>
      <point x="378" y="330" type="line" smooth="yes"/>
      <point x="218" y="305" type="line" smooth="yes"/>
      <point x="155" y="291" type="line" smooth="yes"/>
      <point x="99" y="263" type="line" smooth="yes"/>
      <point x="60" y="216" type="line" smooth="yes"/>
      <point x="45" y="144" type="line" smooth="yes"/>
      <point x="45" y="134" type="line" smooth="yes"/>
      <point x="55" y="75" type="line" smooth="yes"/>
      <point x="85" y="30" type="line" smooth="yes"/>
      <point x="133" y="-0" type="line" smooth="yes"/>
      <point x="198" y="-11" type="line" smooth="yes"/>
      <point x="261" y="-4" type="line" smooth="yes"/>
      <point x="313" y="14" type="line" smooth="yes"/>
      <point x="354" y="41" type="line" smooth="yes"/>
      <point x="385" y="74" type="line" smooth="yes"/>
    </contour>
  </outline>
</glyph>
<glyph name="Aogonek" format="1">
  <advance width="611"/>
  <unicode hex="0104"/>
  <outline>
    <contour>
      <point x="305" y="709" type="line" smooth="yes"/>
      <point x="429" y="265" type="line" smooth="yes"/>
      <point x="181" y="265" type="line" smooth="yes"/>
    </contour>
    <contour>
      <point x="499" y="-103" type="line" smooth="yes"/>
      <point x="506" y="-68" type="line" smooth="yes"/>
      <point x="524" y="-40" type="line" smooth="yes"/>
      <point x="550" y="-17" type="line" smooth="yes"/>
      <point x="582" y="0" type="line" smooth="yes"/>
      <point x="357" y="788" type="line" smooth="yes"/>
      <point x="254" y="788" type="line" smooth="yes"/>
      <point x="29" y="0" type="line" smooth="yes"/>
      <point x="107" y="0" type="line" smooth="yes"/>
      <point x="163" y="200" type="line" smooth="yes"/>
      <point x="448" y="200" type="line" smooth="yes"/>
      <point x="502" y="7" type="line" smooth="yes"/>
      <point x="477" y="-16" type="line" smooth="yes"/>
      <point x="457" y="-44" type="line" smooth="yes"/>
      <point x="444" y="-76" type="line" smooth="yes"/>
      <point x="439" y="-113" type="line" smooth="yes"/>
      <point x="447" y="-157" type="line" smooth="yes"/>
      <point x="469" y="-188" type="line" smooth="yes"/>
      <point x="504" y="-205" type="line" smooth="yes"/>
      <point x="548" y="-211" type="line" smooth="yes"/>
      <point x="572" y="-210" type="line" smooth="yes"/>
      <point x="597" y="-206" type="line" smooth="yes"/>
      <point x="619" y="-200" type="line" smooth="yes"/>
      <point x="637" y="-191" type="line" smooth="yes"/>
      <point x="618" y="-139" type="line" smooth="yes"/>
      <point x="605" y="-145" type="line" smooth="yes"/>
      <point x="590" y="-149" type="line" smooth="yes"/>
      <point x="573" y="-152" type="line" smooth="yes"/>
      <point x="555" y="-153" type="line" smooth="yes"/>
      <point x="531" y="-149" type="line" smooth="yes"/>
      <point x="514" y="-139" type="line" smooth="yes"/>
      <point x="503" y="-123" type="line" smooth="yes"/>
    </contour>
  </outline>
</glyph>
<glyph name="aogonek" format="1">
  <advance width="512"/>
  <unicode hex="0105"/>
  <outline>
    <contour>
      <point x="216" y="50" type="line" smooth="yes"/>
      <point x="170" y="57" type="line" smooth="yes"/>
      <point x="139" y="77" type="line" smooth="yes"/>
      <point x="121" y="106" type="line" smooth="yes"/>
      <point x="115" y="140" type="line" smooth="yes"/>
      <point x="115" y="149" type="line" smooth="yes"/>
      <point x="122" y="189" type="line" smooth="yes"/>
      <point x="144" y="220" type="line" smooth="yes"/>
      <point x="178" y="241" type="line" smooth="yes"/>
      <point x="224" y="254" type="line" smooth="yes"/>
      <point x="378" y="279" type="line" smooth="yes"/>
      <point x="378" y="134" type="line" smooth="yes"/>
      <point x="358" y="108" type="line" smooth="yes"/>
      <point x="327" y="80" type="line" smooth="yes"/>
      <point x="280" y="59" type="line" smooth="yes"/>
    </contour>
    <contour>
      <point x="371" y="-103" type="line" smooth="yes"/>
      <point x="378" y="-68" type="line" smooth="yes"/>
      <point x="396" y="-40" type="line" smooth="yes"/>
      <point x="422" y="-17" type="line" smooth="yes"/>
      <point x="454" y="0" type="line" smooth="yes"/>
      <point x="448" y="150" type="line" smooth="yes"/>
      <point x="448" y="344" type="line" smooth="yes"/>
      <point x="439" y="424" type="line" smooth="yes"/>
      <point x="407" y="486" type="line" smooth="yes"/>
      <point x="348" y="527" type="line" smooth="yes"/>
      <point x="256" y="541" type="line" smooth="yes"/>
      <point x="160" y="525" type="line" smooth="yes"/>
      <point x="102" y="483" type="line" smooth="yes"/>
      <point x="73" y="425" type="line" smooth="yes"/>
      <point x="65" y="364" type="line" smooth="yes"/>
      <point x="65" y="355" type="line" smooth="yes"/>
      <point x="132" y="355" type="line" smooth="yes"/>
      <point x="137" y="404" type="line" smooth="yes"/>
      <point x="156" y="444" type="line" smooth="yes"/>
      <point x="194" y="472" type="line" smooth="yes"/>
      <point x="255" y="482" type="line" smooth="yes"/>
      <point x="314" y="473" type="line" smooth="yes"/>
      <point x="352" y="447" type="line" smooth="yes"/>
      <point x="372" y="404" type="line" smooth="yes"/>
      <point x="378" y="344" type="line" smooth="yes"/>
      <point x="378" y="330" type="line" smooth="yes"/>
      <point x="218" y="305" type="line" smooth="yes"/>
      <point x="155" y="291" type="line" smooth="yes"/>
      <point x="99" y="263" type="line" smooth="yes"/>
      <point x="60" y="216" type="line" smooth="yes"/>
      <point x="45" y="144" type="line" smooth="yes"/>
      <point x="45" y="134" type="line" smooth="yes"/>
      <point x="55" y="75" type="line" smooth="yes"/>
      <point x="85" y="30" type="line" smooth="yes"/>
      <point x="133" y="-0" type="line" smooth="yes"/>
      <point x="198" y="-11" type="line" smooth="yes"/>
      <point x="261" y="-4" type="line" smooth="yes"/>
      <point x="313" y="14" type="line" smooth="yes"/>
      <point x="354" y="41" type="line" smooth="yes"/>
      <point x="385" y="74" type="line" smooth="yes"/>
      <point x="393" y="21" type="line" smooth="yes"/>
      <point x="361" y="-3" type="line" smooth="yes"/>
      <point x="335" y="-34" type="line" smooth="yes"/>
      <point x="317" y="-70" type="line" smooth="yes"/>
      <point x="311" y="-113" type="line" smooth="yes"/>
      <point x="319" y="-157" type="line" smooth="yes"/>
      <point x="341" y="-188" type="line" smooth="yes"/>
      <point x="376" y="-205" type="line" smooth="yes"/>
      <point x="420" y="-211" type="line" smooth="yes"/>
      <point x="444" y="-210" type="line" smooth="yes"/>
      <point x="469" y="-206" type="line" smooth="yes"/>
      <point x="491" y="-200" type="line" smooth="yes"/>
      <point x="509" y="-191" type="line" smooth="yes"/>
      <point x="490" y="-139" type="line" smooth="yes"/>
      <point x="477" y="-145" type="line" smooth="yes"/>
      <point x="462" y="-149" type="line" smooth="yes"/>
      <point x="445" y="-152" type="line" smooth="yes"/>
      <point x="427" y="-153" type="line" smooth="yes"/>
      <point x="403" y="-149" type="line" smooth="yes"/>
      <point x="386" y="-139" type="line" smooth="yes"/>
      <point x="375" y="-123" type="line" smooth="yes"/>
    </contour>
  </outline>
</glyph>
